<svg width="42" height="40" fill="none" xmlns="http://www.w3.org/2000/svg"><path fill="#fff" d="M.417 0h41.165v40H.417z"/><path d="M30.61 19.788a10.478 10.478 0 00-3.778-4.73A10.941 10.941 0 0021 13.125a10.941 10.941 0 00-5.832 1.933 10.478 10.478 0 00-3.777 4.73.608.608 0 000 .424 10.478 10.478 0 003.777 4.73A10.941 10.941 0 0021 26.875a10.941 10.941 0 005.832-1.933 10.478 10.478 0 003.778-4.73.608.608 0 000-.424zM21 25.625c-3.409 0-7.01-2.456-8.316-5.625 1.305-3.169 4.907-5.625 8.316-5.625 3.41 0 7.011 2.456 8.317 5.625-1.306 3.169-4.908 5.625-8.317 5.625z" fill="#4F8FF0"/><path d="M21 16.25c-.763 0-1.51.22-2.144.632a3.775 3.775 0 00-1.421 1.683 3.652 3.652 0 00-.22 2.167 3.718 3.718 0 001.056 1.92c.54.524 1.228.881 1.976 1.026.75.145 1.525.07 2.23-.213a3.837 3.837 0 001.732-1.382c.424-.616.65-1.341.65-2.083 0-.995-.406-1.948-1.13-2.652A3.917 3.917 0 0021 16.25zm0 6.25a2.626 2.626 0 01-1.429-.421 2.517 2.517 0 01-.948-1.122 2.433 2.433 0 01-.146-1.445c.1-.485.344-.93.704-1.28s.818-.587 1.317-.684a2.643 2.643 0 011.487.142c.47.19.872.51 1.155.921.282.411.433.895.433 1.389 0 .663-.27 1.299-.753 1.768A2.612 2.612 0 0121 22.5z" fill="#4F8FF0"/></svg>