<svg width="162" height="162" fill="none" xmlns="http://www.w3.org/2000/svg"><path fill="#161A34" d="M67.029 97.443l-2.725-2.726L93.6 65.42l2.725 2.725z"/><path fill="#161A34" d="M69.891 68.963v-3.854h26.98v3.854z"/><path fill="#161A34" d="M96.891 92.108h-3.854v-26.98h3.854zm-8.465-67.044l-.573 3.207a2.833 2.833 0 01-.653.42c-.283.14-.644.24-1.083.3-.44.06-.969.035-1.588-.076a3.895 3.895 0 01-1.4-.524 3.221 3.221 0 01-.995-.994 3.676 3.676 0 01-.507-1.394c-.083-.53-.068-1.115.046-1.754l.105-.582c.113-.635.293-1.186.54-1.654.25-.47.557-.852.918-1.145a2.94 2.94 0 011.225-.59c.46-.104.958-.109 1.496-.012.689.123 1.237.34 1.646.651.413.308.706.686.88 1.134.174.448.247.937.22 1.468l-1.42-.254c.007-.3-.037-.578-.13-.833a1.396 1.396 0 00-.468-.643c-.218-.178-.522-.302-.91-.371a1.98 1.98 0 00-.916.032c-.277.082-.522.23-.735.446a2.79 2.79 0 00-.536.833 5.31 5.31 0 00-.343 1.188l-.107.595c-.082.46-.107.879-.075 1.254.036.375.124.703.265.982.144.28.34.507.586.682.247.171.54.287.878.348.33.059.607.08.828.064a1.94 1.94 0 00.538-.112 1.59 1.59 0 00.335-.178l.298-1.667-1.747-.313.193-1.078 3.19.57zm7.536 4.873l-.364 1.108-4.302-1.415.364-1.107 4.302 1.414zm-1.607-8.281L91.69 29.76l-1.397-.459 2.664-8.104 1.397.459zm2.233 4.484l-.359 1.09-3.74-1.229.358-1.09 3.74 1.229zm1.647-3.209l-.366 1.113-4.275-1.405.366-1.113 4.275 1.405zm6.477 2.236l-3.813 7.631-1.305-.652 3.813-7.631 1.305.652zm2.396 1.197l-.524 1.048-6.075-3.035.524-1.049 6.075 3.036zm8.127 4.644l-5.118 6.825-1.177-.883 5.119-6.825 1.176.883zm8.256 6.81l-6.226 5.832-1.006-1.074 1.845-6.97-4.46 4.178-1.006-1.074 6.227-5.832 1.005 1.074-1.845 6.986 4.469-4.185.997 1.065zm8.304 10.046l-7.409 4.23-.723-1.267 7.408-4.23.724 1.267zm1.328 2.325l-1.018.581-3.368-5.897 1.018-.581 3.368 5.897zm.368 9.734l-.442.156a5.543 5.543 0 01-1.719.341 3.742 3.742 0 01-1.472-.243 3.095 3.095 0 01-1.15-.774 3.586 3.586 0 01-.746-1.265 3.575 3.575 0 01-.214-1.447c.037-.469.172-.912.405-1.33.233-.419.562-.796.986-1.133a5.443 5.443 0 011.549-.821l.442-.157c.607-.215 1.179-.326 1.715-.333a3.816 3.816 0 011.474.249c.448.177.832.437 1.152.779.326.345.575.764.75 1.258.176.497.246.981.21 1.454a3.064 3.064 0 01-.405 1.33 3.753 3.753 0 01-.991 1.116c-.422.332-.936.605-1.544.82zm-.932-1.23l.453-.16a5.062 5.062 0 001.14-.553c.316-.207.56-.437.733-.688a1.7 1.7 0 00.313-.801 1.934 1.934 0 00-.109-.888 1.89 1.89 0 00-.472-.753 1.748 1.748 0 00-.747-.425 2.732 2.732 0 00-1.002-.074 5.063 5.063 0 00-1.235.287l-.453.16a5.144 5.144 0 00-1.146.556c-.315.21-.562.443-.741.697a1.85 1.85 0 00-.317.808 1.94 1.94 0 00.112.88c.11.31.266.563.469.76.206.197.456.337.75.419.298.08.635.102 1.012.065.377-.034.79-.131 1.24-.29zm7.436 8.289l.258 1.442-5.613 1.004c-.638.114-1.197.072-1.677-.128s-.873-.519-1.177-.956a3.851 3.851 0 01-.607-1.529c-.108-.603-.097-1.161.034-1.673.135-.512.393-.943.775-1.293.382-.346.893-.576 1.531-.69l5.612-1.004.258 1.442-5.612 1.003c-.404.073-.724.201-.961.387a1.322 1.322 0 00-.466.69 2.083 2.083 0 00-.023.933c.062.346.177.633.344.86.169.233.394.395.677.487.286.092.631.101 1.035.03l5.612-1.005zm-4.288 9.844l.029 1.464a3.377 3.377 0 01-1.503-.44 2.786 2.786 0 01-1.047-1.099c-.259-.475-.396-1.057-.409-1.744a3.477 3.477 0 01.254-1.429c.183-.425.446-.792.787-1.1a3.66 3.66 0 011.258-.715 5.525 5.525 0 011.66-.267l.708-.013a5.4 5.4 0 011.669.208c.499.154.927.38 1.285.678.361.298.639.658.835 1.08.196.426.299.907.309 1.442.013.68-.101 1.256-.342 1.73-.24.473-.579.843-1.015 1.109-.437.27-.939.44-1.508.51l-.029-1.465c.367-.046.679-.138.938-.276.26-.134.455-.33.587-.586.136-.256.2-.59.192-1a1.947 1.947 0 00-.205-.875 1.657 1.657 0 00-.563-.616 2.648 2.648 0 00-.903-.364 5.336 5.336 0 00-1.209-.1l-.721.015c-.43.008-.819.053-1.169.134a2.86 2.86 0 00-.89.368 1.695 1.695 0 00-.568.62 1.79 1.79 0 00-.188.89c.008.417.081.754.219 1.01.137.258.335.452.591.58.26.131.576.215.948.25zm2.076 9.982l-1.151-.188.729-4.47 1.151.188-.729 4.47zm4.187-3.538l-8.42-1.373.237-1.452 8.42 1.373-.237 1.452zm-.853 5.228l-8.42-1.374.236-1.445 8.42 1.373-.236 1.446zm-15.335 26.814l-2.496-2.094a2.875 2.875 0 01-.038-.774c.019-.315.112-.678.279-1.089.166-.411.452-.858.856-1.34.344-.41.728-.727 1.152-.953a3.217 3.217 0 011.357-.368c.475-.02.962.065 1.461.255.502.191 1.001.496 1.498.913l.453.38c.494.414.883.845 1.166 1.291.283.452.462.908.535 1.368.074.459.041.911-.098 1.356a3.73 3.73 0 01-.734 1.303c-.449.536-.911.903-1.384 1.103a2.553 2.553 0 01-1.422.199 3.509 3.509 0 01-1.382-.54l.926-1.105c.258.155.52.256.788.302.265.049.528.02.791-.086.263-.101.521-.302.775-.604.218-.261.361-.531.428-.811.067-.281.06-.567-.021-.859a2.8 2.8 0 00-.456-.88 5.29 5.29 0 00-.859-.889l-.463-.388a4.77 4.77 0 00-1.05-.69 2.743 2.743 0 00-.983-.26 1.889 1.889 0 00-.884.169 2.212 2.212 0 00-.739.589 3.475 3.475 0 00-.468.685c-.093.203-.15.377-.17.523-.02.151-.025.278-.013.379l1.297 1.089 1.141-1.36.84.704-2.083 2.482zm-8.254 4.345l-.779-.869 3.373-3.023.778.868-3.372 3.024zm7.979 2.738l-5.695-6.352 1.095-.982 5.695 6.352-1.095.982zm-5-.302l-.767-.855 2.932-2.629.766.856-2.931 2.628zm1.959 3.028l-.782-.873 3.35-3.003.783.872-3.351 3.004zm-5.011 4.329l-4.737-7.095 1.213-.81 4.737 7.095-1.213.81zm-2.227 1.487l-.651-.974 5.648-3.771.651.974-5.648 3.771zm-7.958 4.668l-3.382-7.832 1.35-.583 3.382 7.832-1.35.583zm-10.321 3.85l-1.917-8.313 1.433-.331 5.101 5.095-1.373-5.955 1.433-.33 1.917 8.313-1.433.33-5.115-5.104 1.375 5.967-1.421.328zM84.1 141.557l.066-8.531 1.46.011-.067 8.531-1.459-.011zm-2.677-.021l.009-1.172 6.79.053-.009 1.171-6.79-.052zm-8.651-4.586l.087-.461a5.546 5.546 0 01.566-1.658c.259-.472.575-.857.948-1.152.37-.297.785-.5 1.246-.608.46-.105.95-.109 1.469-.012a3.59 3.59 0 011.36.54c.386.267.703.606.948 1.018.245.411.407.884.485 1.42a5.412 5.412 0 01-.065 1.752l-.086.461c-.118.633-.308 1.184-.57 1.651a3.807 3.807 0 01-.955 1.152 3.123 3.123 0 01-1.251.606 3.51 3.51 0 01-1.464.019 3.53 3.53 0 01-1.364-.547 3.06 3.06 0 01-.949-1.018 3.74 3.74 0 01-.468-1.416c-.076-.531-.055-1.113.063-1.747zm1.532-.191l-.088.473a5.11 5.11 0 00-.093 1.264c.02.377.097.703.229.978.126.278.305.502.536.673.23.174.504.291.822.35.319.06.615.049.888-.031.273-.076.52-.221.743-.433.218-.21.407-.487.566-.83.16-.34.282-.744.37-1.213l.088-.472c.087-.469.119-.892.094-1.27a2.792 2.792 0 00-.232-.991 1.843 1.843 0 00-.54-.679c-.227-.17-.5-.284-.819-.344a1.959 1.959 0 00-.892.024c-.274.08-.52.227-.738.44-.22.218-.407.499-.563.843-.16.344-.283.75-.37 1.218zm-10.801 2.3l-1.377-.499 1.943-5.36c.22-.61.538-1.073.951-1.388a2.652 2.652 0 011.418-.54 3.85 3.85 0 011.626.241c.577.209 1.054.498 1.43.867.377.373.62.813.732 1.319.108.504.052 1.061-.17 1.671l-1.942 5.36-1.377-.499 1.943-5.36c.14-.386.188-.728.147-1.025a1.319 1.319 0 00-.365-.749 2.07 2.07 0 00-.795-.488 2.033 2.033 0 00-.918-.133c-.285.03-.538.144-.76.342-.222.201-.403.495-.543.881l-1.943 5.36zm-6.47-8.697l-1.28-.713a3.38 3.38 0 011.137-1.077c.443-.25.935-.367 1.476-.352.541.015 1.113.19 1.713.524.461.257.83.569 1.108.938.275.373.46.784.554 1.234a3.66 3.66 0 01-.014 1.447 5.52 5.52 0 01-.605 1.568l-.344.62a5.405 5.405 0 01-1.02 1.337c-.384.354-.795.61-1.232.769-.44.163-.89.222-1.354.179a3.585 3.585 0 01-1.401-.458c-.594-.33-1.035-.719-1.323-1.165a2.71 2.71 0 01-.448-1.436 3.674 3.674 0 01.318-1.56l1.28.712c-.144.34-.222.657-.233.95-.015.291.055.558.21.801.154.247.41.47.769.669.293.163.58.251.859.263.28.013.551-.046.816-.176.264-.13.52-.329.768-.598.243-.267.474-.599.695-.995l.35-.63c.21-.375.367-.735.473-1.078.1-.342.143-.66.128-.954a1.693 1.693 0 00-.25-.803 1.793 1.793 0 00-.673-.61c-.366-.203-.693-.309-.983-.319a1.332 1.332 0 00-.8.219c-.244.159-.475.39-.694.694zm-9.465-3.1l.74-.901 3.501 2.873-.74.902-3.5-2.874zm.96 5.397l5.413-6.595 1.137.933-5.413 6.595-1.136-.933zm-4.094-3.36l5.412-6.595 1.133.929-5.413 6.595-1.132-.929zm-15.498-26.534l3.059-1.121c.192.058.422.176.69.352.264.174.533.435.806.784.274.349.519.819.736 1.409a3.9 3.9 0 01.253 1.474 3.24 3.24 0 01-.356 1.36c-.22.422-.537.802-.95 1.14-.415.34-.928.622-1.537.845l-.555.204c-.605.222-1.172.344-1.7.367a3.654 3.654 0 01-1.453-.216 2.934 2.934 0 01-1.127-.76 3.746 3.746 0 01-.765-1.286c-.24-.656-.33-1.24-.267-1.749a2.55 2.55 0 01.535-1.332 3.51 3.51 0 011.157-.93l.496 1.353c-.262.146-.48.324-.653.533-.174.205-.28.448-.32.729-.043.278.003.602.139.973.117.319.28.577.49.775.21.197.462.334.755.409.293.072.623.086.99.043a5.296 5.296 0 001.2-.303l.566-.207c.44-.162.814-.351 1.121-.568.306-.22.544-.461.715-.723.169-.266.266-.549.293-.851a2.2 2.2 0 00-.142-.933 3.43 3.43 0 00-.362-.748 1.962 1.962 0 00-.368-.408 1.607 1.607 0 00-.323-.2l-1.59.583.611 1.667-1.028.377-1.116-3.042zm.351-9.275l1.141-.24.933 4.432-1.14.24-.934-4.431zm-6.36 5.543l8.349-1.758.303 1.44-8.348 1.758-.303-1.44zm2.76-4.18l1.125-.236.811 3.853-1.124.236-.811-3.853zm-3.601.184l1.147-.241.927 4.403-1.147.242-.927-4.404zm-1.276-6.635l8.514-.526.09 1.456-8.515.526-.09-1.456zm-.166-2.672l1.17-.073.419 6.778-1.17.073-.419-6.778zm-.066-9.217l8.474.984-.17 1.461-8.474-.984.17-1.46zm1.792-10.815l8.163 2.48-.427 1.407-6.96 1.885 5.848 1.776-.428 1.407-8.163-2.48.428-1.407 6.974-1.892-5.859-1.78.424-1.396zm4.508-12.081l7.361 4.312-.737 1.259-7.361-4.312.737-1.26zm1.354-2.31l1.01.592-3.432 5.86-1.01-.593 3.432-5.86zm8.333-5.287l.356.305c.489.42.873.86 1.152 1.32.28.461.453.927.523 1.398.071.469.039.93-.098 1.383a3.59 3.59 0 01-.725 1.277c-.341.398-.724.7-1.149.907a3.226 3.226 0 01-1.355.311c-.48.007-.97-.09-1.473-.29a5.432 5.432 0 01-1.484-.934l-.356-.305c-.489-.42-.87-.86-1.144-1.321a3.815 3.815 0 01-.518-1.402c-.07-.477-.036-.94.101-1.388.137-.453.376-.879.717-1.276a3.53 3.53 0 011.157-.907 3.064 3.064 0 011.355-.312c.477-.003.964.099 1.461.304.498.2.99.51 1.48.93zm-.602 1.421l-.364-.312a5.066 5.066 0 00-1.048-.714 2.588 2.588 0 00-.962-.292 1.691 1.691 0 00-.85.127c-.266.112-.504.29-.715.537a1.89 1.89 0 00-.418.784c-.07.274-.07.56.003.86.073.294.218.596.435.906.215.307.503.616.865.927l.364.313c.362.31.713.55 1.053.717.34.168.664.266.974.295.31.024.595-.019.858-.128.26-.111.496-.29.707-.536.214-.249.356-.51.427-.784a1.753 1.753 0 00-.012-.86 2.785 2.785 0 00-.448-.909 5.142 5.142 0 00-.869-.93zm3.405-10.511l1.119-.945 3.68 4.354c.419.495.662 1 .73 1.516a2.65 2.65 0 01-.238 1.498 3.845 3.845 0 01-1.019 1.29c-.468.396-.956.666-1.465.809a2.62 2.62 0 01-1.507-.022c-.491-.158-.946-.484-1.365-.98l-3.68-4.354 1.118-.945 3.68 4.354c.266.313.538.526.816.638.277.109.554.128.831.057.278-.071.55-.22.82-.447.268-.227.459-.47.572-.73a1.32 1.32 0 00.082-.828c-.064-.294-.229-.598-.493-.91l-3.681-4.355zm10.814-1.328l1.256-.754c.247.503.37 1.01.367 1.522a2.79 2.79 0 01-.431 1.455c-.283.462-.72.87-1.309 1.224a3.47 3.47 0 01-1.365.492c-.46.053-.909.008-1.346-.135a3.659 3.659 0 01-1.247-.734 5.525 5.525 0 01-1.058-1.306l-.365-.608a5.4 5.4 0 01-.651-1.55 3.68 3.68 0 01-.052-1.452 3.04 3.04 0 01.52-1.262c.272-.382.637-.71 1.096-.986.582-.35 1.139-.539 1.67-.566.53-.027 1.02.082 1.468.328.451.243.85.595 1.193 1.053l-1.256.755a2.705 2.705 0 00-.706-.676 1.329 1.329 0 00-.8-.217c-.29.01-.611.12-.963.332a1.942 1.942 0 00-.657.613c-.15.236-.234.501-.254.795-.019.294.026.616.136.965.11.344.282.71.516 1.098l.37.618c.222.368.455.684.7.947.246.258.5.454.763.588.266.131.54.193.82.183.282-.01.57-.103.865-.28.358-.215.613-.446.766-.692a1.33 1.33 0 00.209-.802 2.66 2.66 0 00-.255-.948zm7.288-6.622l.413 1.09-4.234 1.608-.414-1.09 4.235-1.608zm-5.16-1.852l3.028 7.976-1.375.522-3.027-7.976 1.375-.522zm4.953-1.88l3.027 7.977-1.37.52-3.026-7.977 1.369-.52z"/><circle cx="71.5" cy="25.5" r="1.5" fill="#161A34"/><circle cx="133.5" cy="99.5" r="1.5" fill="#161A34"/><circle cx="38.5" cy="117.5" r="1.5" fill="#161A34"/></svg>