<svg width="55" height="56" fill="none" xmlns="http://www.w3.org/2000/svg"><path d="M50.563 2.648l-11.01 3.203 4.458-3.018c-2.815.636-6.37 1.88-10.84 3.888l-7.293 7.604 2.589-5.312c-2.503 1.392-5.157 3.217-7.713 5.355l-1.698 6.907-.365-5.113c-2.524 2.32-4.898 4.899-6.864 7.616-2.066 2.847-3.68 5.855-4.49 8.852l-3.02-2.02a14.592 14.592 0 002.48 6.79l-3.611-1.107c.82 2.524 2.162 4.157 4.431 5.479-1.27 3.577-1.867 7.315-2.507 11.043l1.977.333c2.292-22.85 18.469-37.416 33.089-43.87l.74 1.867C27.845 17 17.683 26.883 12.365 41.127c1.944.01 3.846-.226 5.608-.677l.526-6.542 1.407 5.962a16.996 16.996 0 003.201-1.547l-2.223-4.673 3.523 3.739c.86-.688 1.569-1.461 2.106-2.31 3.265-5.102 6.681-10.173 13.406-14.416l-4.91-1.74 7.531.225c1.225-.623 2.514-1.385 3.491-2.105l-5.339-.43 8.025-1.89a24.013 24.013 0 001.73-1.934c1.858-2.357 3.114-4.81 2.814-7.041a3.649 3.649 0 00-1.891-2.754 5.84 5.84 0 00-.806-.346z" fill="#222" opacity=".1"/></svg>