<svg width="290" height="298" fill="none" xmlns="http://www.w3.org/2000/svg"><path fill="#fff" d="M0 0h290v298H0z"/><path stroke="#EDEDED" stroke-width=".731" d="M17.487 170.137h255.025"/><rect x="17.487" y="60.477" width="8.674" height="87.014" rx="4.337" fill="#fff"/><rect x="17.487" y="108.006" width="8.674" height="39.486" rx="4.337" fill="#1463FF"/><rect x="38.933" y="60.477" width="8.674" height="87.014" rx="4.337" fill="#fff"/><rect x="38.933" y="92.651" width="8.674" height="54.841" rx="4.337" fill="#1463FF"/><rect x="60.378" y="60.477" width="8.674" height="87.014" rx="4.337" fill="#fff"/><rect x="60.378" y="100.694" width="8.674" height="46.798" rx="4.337" fill="#1463FF"/><rect x="81.823" y="60.477" width="8.674" height="87.014" rx="4.337" fill="#fff"/><rect x="81.823" y="82.414" width="8.674" height="65.078" rx="4.337" fill="#1463FF"/><rect x="103.27" y="60.477" width="8.674" height="87.014" rx="4.337" fill="#fff"/><rect x="103.27" y="69.251" width="8.674" height="78.24" rx="4.337" fill="#1463FF"/><path d="M138.163 68.665v-.964h5.741v.964h-2.315v6.455h-1.115v-6.455h-2.311zm8.46 6.568c-.522 0-.977-.12-1.366-.359a2.416 2.416 0 01-.905-1.003c-.215-.43-.323-.933-.323-1.507 0-.578.108-1.082.323-1.515a2.41 2.41 0 01.905-1.007c.389-.239.844-.358 1.366-.358.522 0 .977.12 1.366.358.388.24.69.575.905 1.007.215.433.323.937.323 1.515 0 .574-.108 1.077-.323 1.507a2.42 2.42 0 01-.905 1.003c-.389.24-.844.359-1.366.359zm.004-.91c.338 0 .618-.089.84-.268.222-.178.386-.416.493-.713.108-.297.163-.625.163-.982 0-.355-.055-.681-.163-.978-.107-.3-.271-.54-.493-.721-.222-.181-.502-.272-.84-.272-.341 0-.623.09-.848.272a1.615 1.615 0 00-.496.72c-.107.298-.16.624-.16.979 0 .357.053.685.16.982.108.297.274.535.496.713.225.18.507.268.848.268zm6.396-4.767v.87h-3.039v-.87h3.039zm-2.224-1.333h1.083v5.264c0 .21.031.368.094.474a.493.493 0 00.243.214.97.97 0 00.329.054c.087 0 .164-.006.229-.018l.152-.029.195.895a2.11 2.11 0 01-.702.116 1.908 1.908 0 01-.797-.152 1.363 1.363 0 01-.598-.493c-.152-.222-.228-.501-.228-.837v-5.488zm5.041 7.02c-.352 0-.671-.065-.956-.195a1.605 1.605 0 01-.677-.576c-.165-.251-.247-.56-.247-.924 0-.314.061-.572.181-.775.121-.203.284-.364.49-.482.205-.118.434-.207.688-.268a7.05 7.05 0 01.775-.138l.811-.094c.208-.026.359-.069.453-.126.094-.059.142-.153.142-.283v-.025c0-.317-.09-.562-.269-.736-.176-.174-.439-.26-.789-.26-.365 0-.652.08-.862.242a1.29 1.29 0 00-.431.533l-1.018-.232a1.95 1.95 0 01.529-.819 2.14 2.14 0 01.807-.456 3.16 3.16 0 01.96-.145c.222 0 .458.026.707.08.251.05.485.144.702.282.22.138.4.334.54.59.14.254.21.584.21.99v3.694h-1.057v-.76h-.044a1.54 1.54 0 01-.315.413c-.14.135-.32.247-.54.337-.22.089-.483.133-.79.133zm.236-.869c.299 0 .555-.059.768-.177.215-.119.378-.273.489-.464.113-.193.17-.4.17-.62v-.717a.556.556 0 01-.224.109 3.31 3.31 0 01-.374.083c-.14.022-.276.043-.409.062l-.333.043c-.21.027-.402.072-.576.134a.987.987 0 00-.413.272c-.102.116-.152.27-.152.464 0 .268.099.47.297.608.198.135.45.203.757.203zm5.036-6.673v7.42h-1.083V67.7h1.083zm5.363 0v7.42h-1.119V67.7h1.119zm2.627 4.116v3.303h-1.084v-5.564h1.04v.906h.069a1.59 1.59 0 01.601-.71c.276-.179.622-.268 1.04-.268.379 0 .711.08.996.239.285.157.506.391.663.703.157.311.236.696.236 1.155v3.54h-1.084v-3.41c0-.403-.105-.718-.315-.945-.21-.23-.498-.344-.866-.344-.251 0-.474.054-.67.163a1.176 1.176 0 00-.46.478 1.58 1.58 0 00-.166.754zm7.357 3.416c-.539 0-1.002-.122-1.391-.366a2.413 2.413 0 01-.891-1.018c-.208-.432-.312-.928-.312-1.485 0-.566.106-1.064.319-1.496a2.44 2.44 0 01.898-1.018c.387-.244.842-.366 1.366-.366.423 0 .799.078 1.13.235a1.976 1.976 0 011.167 1.634h-1.054a1.262 1.262 0 00-.399-.674c-.205-.188-.481-.282-.826-.282-.302 0-.566.08-.793.239a1.53 1.53 0 00-.525.674c-.126.29-.189.632-.189 1.028 0 .406.062.756.185 1.05.123.295.297.524.522.685.227.162.493.243.8.243.205 0 .391-.037.558-.112.169-.077.31-.187.424-.33a1.24 1.24 0 00.243-.514h1.054a2.014 2.014 0 01-1.138 1.63c-.326.162-.709.243-1.148.243zm5.788 0c-.522 0-.977-.12-1.366-.359a2.418 2.418 0 01-.906-1.003c-.214-.43-.322-.933-.322-1.507 0-.578.108-1.082.322-1.515.215-.432.517-.768.906-1.007.389-.239.844-.358 1.366-.358.521 0 .977.12 1.365.358.389.24.691.575.906 1.007.215.433.322.937.322 1.515 0 .574-.107 1.077-.322 1.507-.215.43-.517.764-.906 1.003-.388.24-.844.359-1.365.359zm.003-.91c.338 0 .619-.089.841-.268.222-.178.386-.416.492-.713a2.83 2.83 0 00.163-.982 2.82 2.82 0 00-.163-.978c-.106-.3-.27-.54-.492-.721-.222-.181-.503-.272-.841-.272-.34 0-.623.09-.847.272a1.625 1.625 0 00-.497.72 2.892 2.892 0 00-.159.979c0 .357.053.685.159.982a1.6 1.6 0 00.497.713c.224.18.507.268.847.268zm3.8.797v-5.564h1.039v.906h.069c.116-.307.305-.546.569-.718.263-.173.578-.26.945-.26.372 0 .684.087.935.26.253.174.441.413.561.718h.058c.133-.297.344-.534.634-.71.29-.179.635-.268 1.036-.268.505 0 .917.158 1.236.474.321.317.481.794.481 1.431v3.731h-1.083v-3.63c0-.376-.102-.649-.308-.818a1.119 1.119 0 00-.735-.254c-.353 0-.627.109-.822.326-.196.215-.294.492-.294.83v3.546h-1.079v-3.698c0-.302-.095-.545-.283-.728-.188-.184-.433-.276-.735-.276-.206 0-.395.055-.569.163-.171.107-.31.255-.417.446-.103.19-.155.412-.155.663v3.43h-1.083zm11.413.113c-.548 0-1.02-.118-1.416-.352a2.382 2.382 0 01-.913-.996c-.213-.43-.319-.933-.319-1.51 0-.57.106-1.073.319-1.507.215-.435.514-.774.898-1.018.387-.244.838-.366 1.355-.366.314 0 .618.052.913.156.295.103.559.266.793.489a2.3 2.3 0 01.555.865c.135.353.202.782.202 1.286v.384h-4.423v-.811h3.362c0-.285-.058-.537-.174-.757a1.316 1.316 0 00-1.221-.718c-.304 0-.57.075-.797.225-.224.147-.398.34-.521.58a1.67 1.67 0 00-.181.771v.634c0 .372.065.689.195.95.133.26.318.46.554.597.237.135.514.203.83.203.205 0 .392-.03.562-.087a1.163 1.163 0 00.72-.706l1.026.184c-.083.302-.23.567-.442.794-.21.224-.475.4-.794.525a2.965 2.965 0 01-1.083.185z" fill="#7E8492"/><path d="M144.785 109.371V88.174h1.357v21.197h-1.357zm3.601-14.2c-.066-.669-.35-1.187-.852-1.557-.503-.37-1.185-.555-2.046-.555-.585 0-1.079.083-1.482.248-.403.16-.712.384-.927.671-.21.287-.315.613-.315.977-.011.304.053.569.191.795.143.226.339.422.588.588.248.16.535.3.861.422a8.88 8.88 0 001.043.298l1.523.365c.74.165 1.419.386 2.037.662a6.186 6.186 0 011.607 1.018c.452.403.803.878 1.051 1.425.254.546.384 1.173.389 1.879-.005 1.038-.27 1.938-.794 2.699-.519.757-1.27 1.345-2.253 1.764-.977.414-2.155.621-3.535.621-1.369 0-2.562-.21-3.577-.629-1.01-.42-1.8-1.041-2.368-1.863-.563-.828-.859-1.852-.886-3.072h3.469c.039.568.202 1.043.489 1.424.292.375.681.66 1.167.853.491.188 1.046.281 1.664.281.608 0 1.135-.088 1.582-.265.453-.176.803-.422 1.051-.736.249-.315.373-.677.373-1.085 0-.381-.113-.701-.339-.961-.221-.259-.547-.48-.977-.662a9.989 9.989 0 00-1.565-.497l-1.847-.463c-1.43-.348-2.558-.892-3.386-1.632-.828-.74-1.24-1.736-1.234-2.989-.006-1.026.268-1.923.82-2.69.557-.768 1.322-1.367 2.293-1.797.972-.431 2.076-.646 3.312-.646 1.259 0 2.357.215 3.296.645.944.431 1.678 1.03 2.202 1.797.525.767.795 1.656.812 2.666h-3.437zm6.651 12.08l7.03-13.91v-.116h-8.189v-2.931h11.898v2.972l-7.038 13.985h-3.701zm12.377.215a1.935 1.935 0 01-1.408-.579 1.935 1.935 0 01-.579-1.408c0-.541.193-1.005.579-1.391.392-.386.861-.58 1.408-.58.53 0 .993.194 1.391.58.397.386.596.85.596 1.391 0 .364-.094.698-.281 1.002a2.15 2.15 0 01-.721.72 1.892 1.892 0 01-.985.265zm10.816.158c-1.425-.006-2.65-.356-3.677-1.052-1.021-.696-1.807-1.703-2.359-3.022-.547-1.319-.817-2.906-.812-4.761 0-1.85.273-3.425.82-4.728.552-1.303 1.338-2.294 2.36-2.973 1.026-.684 2.249-1.026 3.668-1.026 1.418 0 2.638.342 3.659 1.026 1.027.685 1.817 1.678 2.369 2.981.552 1.297.825 2.87.819 4.72 0 1.86-.276 3.45-.828 4.769-.546 1.319-1.33 2.327-2.351 3.022-1.021.696-2.244 1.044-3.668 1.044zm0-2.973c.971 0 1.747-.488 2.326-1.466.58-.977.867-2.442.861-4.396 0-1.286-.132-2.357-.397-3.213-.259-.855-.629-1.499-1.109-1.93a2.42 2.42 0 00-1.681-.645c-.966 0-1.739.483-2.319 1.449-.579.966-.872 2.412-.877 4.339 0 1.303.129 2.39.389 3.262.265.867.637 1.518 1.118 1.954.48.431 1.043.646 1.689.646zm9.404 2.6v-2.583l6.036-5.59a22.95 22.95 0 001.292-1.34c.353-.398.621-.787.803-1.168.182-.387.273-.803.273-1.25 0-.497-.113-.925-.34-1.284a2.225 2.225 0 00-.927-.836 2.905 2.905 0 00-1.333-.298c-.519 0-.972.105-1.358.314-.386.21-.684.51-.894.903-.21.392-.315.858-.315 1.4h-3.403c0-1.11.251-2.074.754-2.89.502-.818 1.206-1.45 2.111-1.897.905-.447 1.949-.67 3.13-.67 1.214 0 2.271.215 3.171.645.905.425 1.609 1.016 2.112 1.772.502.757.753 1.623.753 2.6a4.99 4.99 0 01-.381 1.897c-.248.623-.693 1.316-1.333 2.078-.64.756-1.543 1.664-2.708 2.724l-2.475 2.426v.116h7.121v2.931h-12.089zm21.335.373c-1.424-.006-2.649-.356-3.676-1.052-1.021-.696-1.808-1.703-2.36-3.022-.546-1.319-.817-2.906-.811-4.761 0-1.85.273-3.425.819-4.728.552-1.303 1.339-2.294 2.36-2.973 1.027-.684 2.25-1.026 3.668-1.026 1.419 0 2.639.342 3.66 1.026 1.027.685 1.816 1.678 2.368 2.981.552 1.297.825 2.87.82 4.72 0 1.86-.276 3.45-.828 4.769-.547 1.319-1.33 2.327-2.352 3.022-1.021.696-2.244 1.044-3.668 1.044zm0-2.973c.972 0 1.747-.488 2.327-1.466.58-.977.867-2.442.861-4.396 0-1.286-.132-2.357-.397-3.213-.26-.855-.63-1.499-1.11-1.93a2.42 2.42 0 00-1.681-.645c-.966 0-1.739.483-2.318 1.449-.58.966-.872 2.412-.878 4.339 0 1.303.13 2.39.389 3.262.265.867.638 1.518 1.118 1.954.48.431 1.043.646 1.689.646z" fill="#1D1E25"/><path d="M137.937 124.324h.882l1.763 2.968h.075l1.764-2.968h.881l-2.297 3.738v2.621h-.77v-2.621l-2.298-3.738zm7.525 6.458c-.431 0-.808-.102-1.133-.307a2.09 2.09 0 01-.758-.86c-.18-.368-.27-.799-.27-1.292 0-.497.09-.93.27-1.301.182-.37.435-.658.758-.863a2.076 2.076 0 011.133-.307c.431 0 .807.102 1.13.307.325.205.578.493.758.863.182.371.273.804.273 1.301 0 .493-.091.924-.273 1.292-.18.368-.433.655-.758.86a2.061 2.061 0 01-1.13.307zm0-.658c.327 0 .596-.084.807-.251a1.48 1.48 0 00.469-.662c.102-.273.152-.569.152-.888 0-.318-.05-.616-.152-.891a1.496 1.496 0 00-.469-.667c-.211-.17-.48-.255-.807-.255-.327 0-.596.085-.807.255a1.488 1.488 0 00-.469.667 2.546 2.546 0 00-.152.891c0 .319.05.615.152.888.101.274.257.494.469.662.211.167.48.251.807.251zm6.285-1.391v-2.819h.733v4.769h-.733v-.807h-.049a1.57 1.57 0 01-.522.618c-.236.167-.534.251-.894.251-.298 0-.563-.065-.795-.195a1.377 1.377 0 01-.547-.597c-.132-.267-.198-.603-.198-1.009v-3.03h.732v2.981c0 .347.098.625.292.832.197.207.447.31.752.31.182 0 .367-.046.555-.139.191-.094.35-.236.479-.429.13-.192.195-.438.195-.736zm2.075 1.95v-4.769h.708v.72h.05c.087-.236.244-.427.472-.574.227-.147.484-.221.77-.221l.202.003c.08.002.141.006.183.01v.745a2.09 2.09 0 00-.171-.028 1.625 1.625 0 00-.276-.022 1.3 1.3 0 00-.621.146 1.073 1.073 0 00-.584.972v3.018h-.733zm6.939-6.359v6.359h-1.344v-6.359h1.344zm2.404 3.602v2.757h-1.323v-4.769h1.261v.841h.056c.106-.277.283-.497.531-.658.248-.164.55-.245.903-.245.332 0 .62.072.867.217.246.145.438.352.574.621.137.267.205.586.205.956v3.037h-1.323v-2.801c.002-.291-.072-.519-.223-.683-.151-.165-.359-.248-.624-.248a.943.943 0 00-.472.115.797.797 0 00-.317.335 1.17 1.17 0 00-.115.525zm6.272 2.85c-.489 0-.909-.103-1.261-.31a2.093 2.093 0 01-.807-.87c-.187-.37-.28-.797-.28-1.279 0-.488.094-.917.283-1.285.19-.371.46-.66.81-.867.35-.209.766-.313 1.248-.313.416 0 .781.075 1.093.226.313.151.56.364.742.637.183.273.283.594.302.962h-1.249a.962.962 0 00-.279-.574c-.149-.147-.345-.22-.587-.22a.884.884 0 00-.537.167c-.151.11-.269.27-.354.482a2.05 2.05 0 00-.127.766c0 .305.041.563.124.777.085.213.204.375.357.487a.885.885 0 00.537.168.875.875 0 00.407-.093.787.787 0 00.301-.27c.081-.12.134-.264.158-.432h1.249c-.021.364-.12.685-.299.963-.175.275-.419.49-.729.645-.311.156-.678.233-1.102.233zm5.131 0c-.482 0-.899-.102-1.251-.307a2.101 2.101 0 01-.81-.863c-.191-.371-.286-.8-.286-1.289 0-.493.095-.923.286-1.292.19-.37.46-.658.81-.863.352-.207.769-.31 1.251-.31.483 0 .899.103 1.249.31.351.205.623.493.813.863.191.369.286.799.286 1.292 0 .489-.095.918-.286 1.289-.19.368-.462.656-.813.863-.35.205-.766.307-1.249.307zm.007-1.024a.818.818 0 00.549-.187 1.15 1.15 0 00.332-.515c.077-.217.115-.465.115-.742a2.21 2.21 0 00-.115-.742 1.153 1.153 0 00-.332-.516.814.814 0 00-.549-.189.843.843 0 00-.559.189 1.172 1.172 0 00-.339.516 2.291 2.291 0 00-.112.742c0 .277.038.525.112.742.077.217.19.389.339.515a.846.846 0 00.559.187zm3.201.931v-4.769h1.26v.841h.056c.1-.279.265-.5.497-.661.232-.162.509-.242.832-.242.327 0 .606.081.836.245.229.161.382.381.459.658h.05c.097-.273.273-.491.528-.655.256-.165.56-.248.909-.248.445 0 .807.142 1.084.425.279.282.419.681.419 1.199v3.207h-1.319v-2.947c0-.265-.071-.463-.212-.596a.739.739 0 00-.527-.198c-.241 0-.428.076-.562.229-.135.151-.202.351-.202.6v2.912h-1.283v-2.974c0-.234-.067-.421-.201-.559a.693.693 0 00-.525-.208.734.734 0 00-.674.419.977.977 0 00-.102.459v2.863h-1.323zm10.149.093c-.491 0-.913-.099-1.267-.298a2.044 2.044 0 01-.814-.851c-.19-.368-.285-.804-.285-1.307 0-.49.095-.921.285-1.291.191-.371.459-.66.804-.867.348-.207.756-.31 1.224-.31.314 0 .607.05.878.152.274.099.512.249.715.45.205.201.364.453.478.758.114.302.171.656.171 1.062v.363h-4.028v-.82h2.782c0-.19-.041-.359-.124-.506a.891.891 0 00-.344-.345.993.993 0 00-.506-.127c-.201 0-.379.047-.535.14a.98.98 0 00-.36.369 1.045 1.045 0 00-.133.513v.779c0 .236.043.44.13.612a.949.949 0 00.376.397c.161.093.353.14.574.14.147 0 .282-.021.404-.062a.806.806 0 00.512-.491l1.224.081c-.062.294-.19.551-.382.77a1.925 1.925 0 01-.739.509c-.3.12-.647.18-1.04.18zm7.591.006c-.43 0-.808-.102-1.133-.307a2.098 2.098 0 01-.758-.86c-.18-.368-.27-.799-.27-1.292 0-.497.09-.93.27-1.301.183-.37.435-.658.758-.863a2.079 2.079 0 011.133-.307c.431 0 .808.102 1.131.307.325.205.577.493.757.863.182.371.273.804.273 1.301 0 .493-.091.924-.273 1.292a2.06 2.06 0 01-.757.86c-.323.205-.7.307-1.131.307zm0-.658c.327 0 .596-.084.808-.251.211-.168.367-.388.468-.662.102-.273.153-.569.153-.888 0-.318-.051-.616-.153-.891a1.494 1.494 0 00-.468-.667c-.212-.17-.481-.255-.808-.255-.327 0-.596.085-.807.255a1.504 1.504 0 00-.469.667 2.569 2.569 0 00-.152.891c0 .319.051.615.152.888.102.274.258.494.469.662.211.167.48.251.807.251zm5.404-4.21v.621h-2.571v-.621h2.571zm-1.801 4.769v-5.427c0-.274.064-.501.192-.684.129-.182.295-.318.5-.409.205-.092.422-.137.649-.137a1.695 1.695 0 01.696.124l-.211.634a3.314 3.314 0 00-.156-.047.924.924 0 00-.254-.028c-.242 0-.417.061-.525.183-.106.122-.158.301-.158.537v5.254h-.733zm7.361-4.769v.621h-2.471v-.621h2.471zm-1.751-1.143h.733v4.546c0 .207.03.362.09.466a.47.47 0 00.236.205.945.945 0 00.307.049c.081 0 .147-.004.199-.012l.124-.025.149.658c-.05.019-.119.038-.208.056a1.513 1.513 0 01-.338.031c-.207 0-.41-.044-.609-.133a1.213 1.213 0 01-.491-.407c-.128-.182-.192-.412-.192-.689v-4.745zm3.689 3.043v2.869h-.733v-6.359h.733v2.335h.062a1.35 1.35 0 01.503-.587c.225-.147.526-.22.9-.22.325 0 .61.065.854.195.244.129.434.326.568.593.137.265.205.603.205 1.013v3.03h-.733v-2.981c0-.379-.098-.671-.295-.878-.194-.209-.464-.314-.81-.314-.24 0-.455.051-.646.152-.188.102-.337.25-.447.444a1.442 1.442 0 00-.161.708zm4.433 2.869v-4.769h.733v4.769h-.733zm.372-5.564a.522.522 0 01-.369-.146.47.47 0 01-.152-.351c0-.137.051-.253.152-.351a.522.522 0 01.369-.146c.143 0 .265.049.367.146a.467.467 0 01.155.351.465.465 0 01-.155.351.514.514 0 01-.367.146zm5.081 1.863l-.658.186a1.283 1.283 0 00-.183-.32.898.898 0 00-.323-.26 1.166 1.166 0 00-.525-.103c-.292 0-.535.067-.73.202-.192.132-.289.301-.289.506 0 .182.067.326.199.432.133.105.34.193.621.264l.708.173c.427.104.744.262.953.476.209.211.314.483.314.816 0 .273-.079.518-.236.733a1.566 1.566 0 01-.652.509c-.28.124-.605.186-.975.186-.487 0-.889-.105-1.208-.316-.319-.211-.521-.52-.605-.926l.695-.173c.066.256.192.449.376.577.186.128.429.193.73.193.341 0 .612-.073.813-.218.203-.147.304-.323.304-.528a.556.556 0 00-.174-.416c-.115-.114-.294-.198-.534-.254l-.795-.187c-.436-.103-.757-.263-.962-.481a1.165 1.165 0 01-.304-.823c0-.269.075-.507.226-.714.153-.207.362-.369.624-.487.265-.118.566-.177.901-.177.472 0 .842.103 1.111.31.272.207.464.48.578.82zm3.649 3.701v-4.769h.708v.745h.062c.1-.255.26-.452.481-.593.222-.143.488-.214.798-.214.315 0 .577.071.786.214.211.141.376.338.494.593h.049a1.4 1.4 0 01.55-.587c.244-.147.537-.22.879-.22.426 0 .775.133 1.046.4.271.265.407.678.407 1.239v3.192h-.733v-3.192c0-.352-.096-.603-.289-.754a1.068 1.068 0 00-.68-.227c-.335 0-.595.101-.779.304-.184.201-.276.456-.276.764v3.105h-.746v-3.266c0-.272-.088-.49-.264-.656-.175-.167-.402-.251-.68-.251-.19 0-.368.051-.534.152a1.153 1.153 0 00-.397.422 1.25 1.25 0 00-.149.618v2.981h-.733zm9.537.099c-.43 0-.808-.102-1.133-.307a2.09 2.09 0 01-.758-.86c-.18-.368-.27-.799-.27-1.292 0-.497.09-.93.27-1.301.182-.37.435-.658.758-.863a2.079 2.079 0 011.133-.307c.431 0 .808.102 1.13.307.325.205.578.493.758.863.182.371.273.804.273 1.301 0 .493-.091.924-.273 1.292-.18.368-.433.655-.758.86a2.06 2.06 0 01-1.13.307zm0-.658c.327 0 .596-.084.808-.251.211-.168.367-.388.468-.662.102-.273.153-.569.153-.888 0-.318-.051-.616-.153-.891a1.494 1.494 0 00-.468-.667c-.212-.17-.481-.255-.808-.255-.327 0-.596.085-.807.255a1.496 1.496 0 00-.469.667 2.569 2.569 0 00-.152.891c0 .319.051.615.152.888.101.274.258.494.469.662.211.167.48.251.807.251zm4.013-2.31v2.869h-.733v-4.769h.708v.745h.062c.112-.242.281-.437.509-.584.228-.149.522-.223.882-.223.323 0 .605.066.848.198.242.131.43.33.565.597.134.265.202.6.202 1.006v3.03h-.733v-2.981c0-.374-.097-.666-.292-.875-.195-.211-.462-.317-.801-.317-.234 0-.443.051-.627.152-.183.102-.326.25-.432.444a1.464 1.464 0 00-.158.708zm6.456-1.9v.621h-2.472v-.621h2.472zm-1.751-1.143h.732v4.546c0 .207.03.362.09.466a.473.473 0 00.236.205c.098.033.2.049.308.049.08 0 .147-.004.198-.012l.125-.025.149.658c-.05.019-.119.038-.208.056a1.517 1.517 0 01-.339.031 1.47 1.47 0 01-.608-.133 1.207 1.207 0 01-.491-.407c-.128-.182-.192-.412-.192-.689v-4.745zm3.688 3.043v2.869h-.732v-6.359h.732v2.335h.062c.112-.246.28-.442.503-.587.226-.147.526-.22.901-.22.325 0 .609.065.854.195.244.129.433.326.568.593.137.265.205.603.205 1.013v3.03h-.733v-2.981c0-.379-.098-.671-.295-.878-.194-.209-.465-.314-.81-.314-.24 0-.456.051-.646.152-.188.102-.338.25-.447.444a1.442 1.442 0 00-.162.708zm-103.574 13.968c-.448 0-.833-.105-1.155-.316a2.064 2.064 0 01-.746-.873 2.953 2.953 0 01-.26-1.27c0-.484.089-.912.267-1.282.18-.373.43-.664.751-.873a2.02 2.02 0 011.13-.316c.336 0 .638.062.907.186s.489.298.661.522c.172.223.279.484.32.782h-.733a1.136 1.136 0 00-.372-.577c-.191-.17-.447-.255-.77-.255-.286 0-.537.074-.752.224-.213.146-.38.355-.5.624-.118.267-.177.58-.177.94 0 .369.058.69.174.963.118.273.284.485.497.637.215.151.468.226.758.226.19 0 .363-.033.518-.099a1.066 1.066 0 00.624-.733h.733a1.699 1.699 0 01-.307.761 1.733 1.733 0 01-.643.534c-.265.13-.574.195-.925.195zm4.884 0a2.08 2.08 0 01-1.134-.307 2.095 2.095 0 01-.757-.86c-.18-.368-.27-.799-.27-1.292 0-.497.09-.93.27-1.301.182-.37.435-.658.757-.863a2.08 2.08 0 011.134-.307c.43 0 .807.102 1.13.307.325.205.578.493.758.863.182.371.273.804.273 1.301 0 .493-.091.924-.273 1.292-.18.368-.433.655-.758.86-.323.205-.7.307-1.13.307zm0-.658c.327 0 .596-.084.807-.251a1.48 1.48 0 00.469-.662 2.54 2.54 0 00.152-.888c0-.318-.051-.616-.152-.891a1.496 1.496 0 00-.469-.667c-.211-.17-.48-.255-.807-.255-.327 0-.596.085-.808.255a1.494 1.494 0 00-.468.667 2.546 2.546 0 00-.153.891c0 .319.051.615.153.888.101.274.257.494.468.662.212.167.481.251.808.251zm3.279.559v-4.769h.708v.745h.062a1.2 1.2 0 01.482-.593c.221-.143.487-.214.798-.214.314 0 .576.071.785.214.211.141.376.338.494.593h.05c.122-.246.305-.442.549-.587.245-.147.537-.22.879-.22.426 0 .775.133 1.046.4.272.265.407.678.407 1.239v3.192h-.733v-3.192c0-.352-.096-.603-.288-.754a1.072 1.072 0 00-.68-.227c-.336 0-.596.101-.78.304-.184.201-.276.456-.276.764v3.105h-.745v-3.266c0-.272-.088-.49-.264-.656a.949.949 0 00-.68-.251c-.191 0-.369.051-.534.152a1.155 1.155 0 00-.398.422 1.25 1.25 0 00-.149.618v2.981h-.733zm7.6 1.789v-6.558h.708v.757h.087c.054-.082.128-.188.223-.316.098-.131.236-.247.416-.348.183-.104.429-.155.739-.155.402 0 .756.1 1.062.301a2 2 0 01.718.854c.171.368.257.803.257 1.304 0 .505-.086.943-.257 1.313a2.03 2.03 0 01-.715.857 1.864 1.864 0 01-1.052.301c-.306 0-.552-.05-.736-.152a1.346 1.346 0 01-.425-.351 4.446 4.446 0 01-.23-.329h-.062v2.522h-.733zm.72-4.174c0 .361.053.678.159.954.105.273.259.487.462.642.203.154.452.23.746.23.306 0 .562-.081.766-.242.207-.164.363-.383.466-.658.106-.278.159-.586.159-.926 0-.335-.052-.637-.156-.906a1.397 1.397 0 00-.462-.643c-.205-.159-.463-.239-.773-.239-.299 0-.549.076-.752.227a1.355 1.355 0 00-.459.627 2.564 2.564 0 00-.156.934zm6.012 2.497c-.303 0-.577-.057-.823-.171a1.405 1.405 0 01-.587-.5 1.407 1.407 0 01-.217-.795c0-.273.053-.494.161-.664.108-.172.252-.307.432-.404.18-.097.378-.17.596-.217.219-.05.44-.089.661-.118.29-.037.525-.065.705-.084.182-.021.315-.055.397-.102.085-.048.128-.131.128-.249v-.025c0-.306-.084-.544-.252-.714-.165-.17-.417-.254-.754-.254-.35 0-.624.076-.823.229a1.346 1.346 0 00-.419.491l-.696-.248c.124-.29.29-.516.497-.677.209-.164.437-.278.683-.342.249-.066.493-.099.733-.099.153 0 .329.018.528.056.201.035.394.108.58.22.189.112.345.281.469.506.124.226.187.528.187.907v3.142h-.733v-.646h-.037c-.05.104-.133.215-.249.332-.116.118-.27.219-.463.302a1.792 1.792 0 01-.704.124zm.111-.658c.29 0 .534-.057.733-.171.201-.114.352-.261.454-.441.103-.18.155-.37.155-.568v-.671c-.031.037-.1.071-.205.103a3.888 3.888 0 01-.36.077c-.135.021-.266.039-.395.056l-.307.037a2.782 2.782 0 00-.534.121.923.923 0 00-.398.246c-.099.107-.149.254-.149.441 0 .254.095.447.283.577.19.128.432.193.723.193zm3.412.546v-4.769h.708v.72h.05c.087-.236.244-.427.472-.574.227-.147.484-.221.77-.221l.202.003c.08.002.141.006.183.01v.745a2.09 2.09 0 00-.171-.028 1.625 1.625 0 00-.276-.022 1.3 1.3 0 00-.621.146 1.073 1.073 0 00-.584.972v3.018h-.733zm5.108.099c-.46 0-.856-.101-1.189-.304a2.034 2.034 0 01-.767-.857c-.178-.368-.267-.797-.267-1.285 0-.489.089-.919.267-1.292.18-.375.43-.667.751-.876a2.02 2.02 0 011.13-.316c.249 0 .494.041.736.124.242.083.463.217.662.404.198.184.357.428.475.732.118.305.177.679.177 1.124v.311h-3.677v-.634h2.931c0-.269-.053-.509-.161-.72a1.224 1.224 0 00-.453-.5 1.274 1.274 0 00-.69-.183c-.292 0-.544.072-.757.217a1.433 1.433 0 00-.488.559 1.64 1.64 0 00-.171.739v.422c0 .361.062.666.187.916.126.249.301.438.524.569.224.128.484.192.78.192.192 0 .366-.027.521-.081.158-.055.293-.138.407-.248.114-.112.202-.25.264-.416l.708.199c-.074.24-.2.451-.376.633-.176.18-.393.321-.652.422-.258.1-.549.149-.872.149zm4.89 0c-.397 0-.748-.1-1.052-.301a2.03 2.03 0 01-.715-.857c-.171-.37-.257-.808-.257-1.313 0-.501.086-.936.257-1.304a2 2 0 01.718-.854 1.89 1.89 0 011.062-.301c.31 0 .555.051.736.155.182.101.32.217.416.348.097.128.172.234.226.316h.062v-2.347h.733v6.359h-.708v-.733h-.087c-.054.087-.13.197-.23.329a1.346 1.346 0 01-.425.351c-.184.102-.429.152-.736.152zm.1-.658c.293 0 .542-.076.745-.23a1.43 1.43 0 00.462-.642c.106-.276.159-.593.159-.954 0-.356-.052-.667-.155-.934a1.363 1.363 0 00-.46-.627 1.223 1.223 0 00-.751-.227c-.311 0-.57.08-.777.239a1.426 1.426 0 00-.462.643 2.54 2.54 0 00-.152.906c0 .34.051.648.155.926.105.275.261.494.466.658.207.161.463.242.77.242zm8.063-4.21v.621h-2.471v-.621h2.471zm-1.751-1.143h.733v4.546c0 .207.03.362.09.466a.473.473 0 00.236.205.95.95 0 00.307.049c.081 0 .147-.004.199-.012l.124-.025.149.658a1.339 1.339 0 01-.208.056 1.513 1.513 0 01-.338.031c-.207 0-.41-.044-.609-.133a1.204 1.204 0 01-.49-.407c-.129-.182-.193-.412-.193-.689v-4.745zm4.74 6.011c-.431 0-.808-.102-1.133-.307a2.09 2.09 0 01-.758-.86c-.18-.368-.27-.799-.27-1.292 0-.497.09-.93.27-1.301.182-.37.435-.658.758-.863a2.076 2.076 0 011.133-.307c.43 0 .807.102 1.13.307.325.205.578.493.758.863.182.371.273.804.273 1.301 0 .493-.091.924-.273 1.292-.18.368-.433.655-.758.86-.323.205-.7.307-1.13.307zm0-.658c.327 0 .596-.084.807-.251a1.48 1.48 0 00.469-.662 2.54 2.54 0 00.152-.888c0-.318-.051-.616-.152-.891a1.496 1.496 0 00-.469-.667c-.211-.17-.48-.255-.807-.255-.327 0-.596.085-.807.255a1.488 1.488 0 00-.469.667 2.546 2.546 0 00-.152.891c0 .319.05.615.152.888.101.274.257.494.469.662.211.167.48.251.807.251zm6.471-5.8v6.359h-.732v-6.359h.732zm2.746 6.471a1.94 1.94 0 01-.823-.171 1.411 1.411 0 01-.587-.5 1.415 1.415 0 01-.217-.795c0-.273.054-.494.162-.664.107-.172.251-.307.431-.404.18-.097.379-.17.596-.217.22-.05.44-.089.662-.118.289-.037.524-.065.704-.084.183-.021.315-.055.398-.102.085-.048.127-.131.127-.249v-.025c0-.306-.084-.544-.251-.714-.166-.17-.417-.254-.755-.254-.35 0-.624.076-.823.229a1.366 1.366 0 00-.419.491l-.695-.248c.124-.29.289-.516.496-.677.21-.164.437-.278.684-.342.248-.066.492-.099.732-.099.154 0 .329.018.528.056.201.035.395.108.581.22.188.112.345.281.469.506.124.226.186.528.186.907v3.142h-.733v-.646h-.037a1.29 1.29 0 01-.248.332 1.446 1.446 0 01-.463.302 1.8 1.8 0 01-.705.124zm.112-.658c.29 0 .534-.057.733-.171a1.166 1.166 0 00.608-1.009v-.671c-.031.037-.099.071-.205.103a3.75 3.75 0 01-.36.077 16.94 16.94 0 01-.394.056l-.308.037c-.19.025-.368.065-.534.121a.92.92 0 00-.397.246c-.099.107-.149.254-.149.441 0 .254.094.447.282.577.191.128.432.193.724.193zm6.79-3.155l-.659.186a1.223 1.223 0 00-.183-.32.882.882 0 00-.323-.26 1.158 1.158 0 00-.524-.103c-.292 0-.535.067-.73.202-.193.132-.289.301-.289.506 0 .182.066.326.199.432.132.105.339.193.621.264l.708.173c.426.104.744.262.953.476.209.211.314.483.314.816 0 .273-.079.518-.236.733a1.573 1.573 0 01-.652.509c-.28.124-.605.186-.975.186-.487 0-.889-.105-1.208-.316-.319-.211-.521-.52-.606-.926l.696-.173c.066.256.191.449.376.577.186.128.429.193.729.193.342 0 .613-.073.814-.218.203-.147.304-.323.304-.528a.556.556 0 00-.174-.416c-.116-.114-.294-.198-.534-.254l-.795-.187c-.437-.103-.757-.263-.962-.481a1.165 1.165 0 01-.305-.823c0-.269.076-.507.227-.714a1.54 1.54 0 01.624-.487c.265-.118.565-.177.901-.177.472 0 .842.103 1.111.31.271.207.464.48.578.82zm3.264-1.068v.621h-2.472v-.621h2.472zm-1.751-1.143h.732v4.546c0 .207.03.362.091.466.062.101.14.169.235.205.098.033.2.049.308.049.081 0 .147-.004.199-.012l.124-.025.149.658c-.05.019-.119.038-.208.056a1.517 1.517 0 01-.339.031 1.47 1.47 0 01-.608-.133 1.213 1.213 0 01-.491-.407c-.128-.182-.192-.412-.192-.689v-4.745zm5.312 5.912v-4.769h.708v.745h.062a1.2 1.2 0 01.482-.593c.221-.143.487-.214.798-.214.314 0 .576.071.785.214.211.141.376.338.494.593h.05c.122-.246.305-.442.549-.587.244-.147.537-.22.879-.22.426 0 .775.133 1.046.4.271.265.407.678.407 1.239v3.192h-.733v-3.192c0-.352-.096-.603-.288-.754a1.072 1.072 0 00-.68-.227c-.336 0-.596.101-.78.304-.184.201-.276.456-.276.764v3.105h-.745v-3.266c0-.272-.088-.49-.264-.656a.949.949 0 00-.68-.251c-.191 0-.369.051-.534.152a1.155 1.155 0 00-.398.422 1.25 1.25 0 00-.149.618v2.981h-.733zm9.537.099c-.43 0-.808-.102-1.133-.307a2.098 2.098 0 01-.758-.86c-.18-.368-.27-.799-.27-1.292 0-.497.09-.93.27-1.301.183-.37.435-.658.758-.863a2.079 2.079 0 011.133-.307c.431 0 .808.102 1.131.307.325.205.577.493.757.863.182.371.273.804.273 1.301 0 .493-.091.924-.273 1.292a2.06 2.06 0 01-.757.86c-.323.205-.7.307-1.131.307zm0-.658c.327 0 .597-.084.808-.251.211-.168.367-.388.469-.662a2.54 2.54 0 00.152-.888c0-.318-.051-.616-.152-.891a1.504 1.504 0 00-.469-.667c-.211-.17-.481-.255-.808-.255-.327 0-.596.085-.807.255a1.504 1.504 0 00-.469.667 2.569 2.569 0 00-.152.891c0 .319.051.615.152.888.102.274.258.494.469.662.211.167.48.251.807.251zm4.013-2.31v2.869h-.733v-4.769h.708v.745h.062a1.37 1.37 0 01.509-.584c.228-.149.522-.223.882-.223.323 0 .606.066.848.198.242.131.43.33.565.597.134.265.202.6.202 1.006v3.03h-.733v-2.981c0-.374-.097-.666-.292-.875-.194-.211-.462-.317-.801-.317-.234 0-.443.051-.627.152a1.1 1.1 0 00-.432.444 1.475 1.475 0 00-.158.708zm6.456-1.9v.621h-2.472v-.621h2.472zm-1.751-1.143h.733v4.546c0 .207.03.362.09.466a.47.47 0 00.236.205.945.945 0 00.307.049c.081 0 .147-.004.199-.012l.124-.025.149.658c-.05.019-.119.038-.208.056a1.517 1.517 0 01-.339.031c-.207 0-.409-.044-.608-.133a1.213 1.213 0 01-.491-.407c-.128-.182-.192-.412-.192-.689v-4.745zm3.688 3.043v2.869h-.732v-6.359h.732v2.335h.063c.111-.246.279-.442.503-.587.225-.147.525-.22.9-.22.325 0 .61.065.854.195.244.129.434.326.568.593.137.265.205.603.205 1.013v3.03h-.733v-2.981c0-.379-.098-.671-.295-.878-.194-.209-.464-.314-.81-.314-.24 0-.455.051-.646.152-.188.102-.337.25-.447.444a1.442 1.442 0 00-.162.708z" fill="#7E8492"/><path d="M255.093 94.581V102h-1.123v-6.296h-.044l-1.775 1.16V95.79l1.852-1.21h1.09zm4.456 7.52c-.454 0-.863-.087-1.225-.26a2.229 2.229 0 01-.862-.725 1.91 1.91 0 01-.344-1.05h1.087c.026.318.168.58.423.786.256.205.563.308.921.308.285 0 .537-.066.757-.196a1.4 1.4 0 00.521-.547c.128-.232.192-.496.192-.793a1.65 1.65 0 00-.195-.808 1.452 1.452 0 00-.54-.558 1.525 1.525 0 00-.782-.206 2.1 2.1 0 00-.678.115c-.227.078-.41.18-.551.305l-1.025-.152.417-3.739h4.079v.96h-3.148l-.236 2.076h.044c.145-.14.337-.257.576-.352.241-.094.5-.14.775-.14a2.268 2.268 0 012.043 1.202c.205.37.307.794.304 1.275.003.48-.106.909-.326 1.286a2.355 2.355 0 01-.905.891 2.66 2.66 0 01-1.322.322zm7.749-1.492v-.391c0-.28.058-.536.174-.768.118-.234.29-.422.514-.562a1.52 1.52 0 01.823-.214c.328 0 .603.07.826.21.222.14.39.328.503.562.116.234.174.492.174.772v.391c0 .28-.058.537-.174.772a1.392 1.392 0 01-.511.561c-.222.14-.495.21-.818.21-.326 0-.602-.07-.826-.21a1.392 1.392 0 01-.511-.561 1.719 1.719 0 01-.174-.772zm.844-.391v.391c0 .208.05.396.149.565.099.169.271.254.518.254.244 0 .414-.085.51-.254.097-.169.145-.357.145-.565v-.391c0-.208-.047-.396-.141-.565-.092-.17-.263-.254-.514-.254-.242 0-.413.085-.515.254a1.08 1.08 0 00-.152.565zm-4.575-3.855v-.39c0-.281.058-.538.174-.772a1.39 1.39 0 01.514-.562c.227-.14.501-.21.822-.21.329 0 .604.07.826.21.223.14.39.327.504.562.113.234.17.491.17.771v.391c0 .28-.058.538-.174.772a1.361 1.361 0 01-.507.561c-.222.14-.495.21-.819.21-.328 0-.604-.07-.829-.21a1.403 1.403 0 01-.507-.561 1.715 1.715 0 01-.174-.772zm.848-.39v.39c0 .208.048.396.144.566.099.168.272.253.518.253.242 0 .411-.085.508-.254.099-.169.148-.357.148-.565v-.39c0-.209-.047-.397-.141-.566-.094-.169-.266-.254-.515-.254-.241 0-.412.085-.514.254-.099.17-.148.357-.148.565zm-.504 6.027l5.101-7.419h.865l-5.1 7.419h-.866z" fill="#1D1E25"/><path fill-rule="evenodd" clip-rule="evenodd" d="M245.707 101.707a.999.999 0 01-1.414 0L241 98.414l-3.293 3.293a.999.999 0 11-1.414-1.414l4-4a1 1 0 011.414 0l4 4a.999.999 0 010 1.414z" fill="#50CD89"/><rect x="17.488" y="193.089" width="8.674" height="87.422" rx="4.337" fill="#fff"/><rect x="17.488" y="225.56" width="8.674" height="54.951" rx="4.337" fill="#1463FF"/><rect x="38.933" y="193.089" width="8.674" height="87.437" rx="4.337" fill="#fff"/><rect x="38.933" y="215.132" width="8.674" height="65.394" rx="4.337" fill="#1463FF"/><rect x="60.377" y="193.089" width="8.674" height="87.437" rx="4.337" fill="#fff"/><rect x="60.377" y="231.296" width="8.674" height="49.229" rx="4.337" fill="#1463FF"/><rect x="81.823" y="193.089" width="8.674" height="87.437" rx="4.337" fill="#fff"/><rect x="81.823" y="240.113" width="8.674" height="40.412" rx="4.337" fill="#1463FF"/><rect x="103.27" y="193.089" width="8.674" height="87.437" rx="4.337" fill="#fff"/><rect x="103.27" y="248.931" width="8.674" height="31.595" rx="4.337" fill="#1463FF"/><path d="M138.162 201.297v-.963h5.741v.963h-2.315v6.455h-1.115v-6.455h-2.311zm8.46 6.568c-.522 0-.977-.12-1.366-.359a2.414 2.414 0 01-.905-1.003c-.215-.43-.323-.933-.323-1.507 0-.577.108-1.082.323-1.515.215-.432.516-.767.905-1.007.389-.239.844-.358 1.366-.358.522 0 .977.119 1.366.358.388.24.69.575.905 1.007.215.433.323.938.323 1.515 0 .574-.108 1.077-.323 1.507a2.42 2.42 0 01-.905 1.003c-.389.239-.844.359-1.366.359zm.004-.91c.338 0 .618-.089.84-.268.222-.178.386-.416.493-.713.108-.297.163-.624.163-.982 0-.355-.055-.681-.163-.978a1.603 1.603 0 00-.493-.721c-.222-.181-.502-.272-.84-.272-.341 0-.623.091-.848.272a1.617 1.617 0 00-.496.721c-.107.297-.16.623-.16.978 0 .358.053.685.16.982.108.297.274.535.496.713.225.179.507.268.848.268zm6.396-4.767v.87h-3.039v-.87h3.039zm-2.224-1.333h1.083v5.264c0 .21.031.368.094.474a.495.495 0 00.243.214.976.976 0 00.33.054c.086 0 .163-.006.228-.018l.152-.029.195.895a1.798 1.798 0 01-.268.072c-.115.027-.26.041-.434.044a1.907 1.907 0 01-.797-.152 1.37 1.37 0 01-.598-.493c-.152-.222-.228-.501-.228-.837v-5.488zm5.041 7.021c-.352 0-.671-.066-.956-.196a1.608 1.608 0 01-.677-.576c-.165-.251-.247-.559-.247-.924 0-.314.061-.572.182-.775a1.33 1.33 0 01.489-.482c.205-.118.434-.207.688-.268a6.82 6.82 0 01.775-.137l.811-.095c.208-.026.359-.068.453-.126.094-.058.142-.153.142-.283v-.025c0-.317-.09-.562-.268-.736-.177-.174-.44-.261-.79-.261-.365 0-.652.081-.862.243-.208.16-.352.337-.431.533l-1.018-.232c.12-.338.297-.611.529-.819a2.14 2.14 0 01.807-.456c.305-.097.625-.145.96-.145.222 0 .458.026.707.08.251.05.485.144.702.282.22.138.4.335.54.591.14.253.21.583.21.988v3.695h-1.057v-.76h-.044c-.07.14-.175.277-.315.413-.14.135-.32.247-.54.337-.22.089-.483.134-.79.134zm.236-.87c.299 0 .555-.059.768-.177.215-.119.378-.273.489-.464.113-.193.17-.4.17-.619v-.718a.554.554 0 01-.224.109 3.544 3.544 0 01-.374.083c-.14.022-.276.043-.409.062l-.333.043c-.21.027-.402.072-.576.134a.992.992 0 00-.413.272c-.102.116-.152.271-.152.464 0 .268.099.471.297.608.198.136.45.203.757.203zm5.036-6.672v7.418h-1.083v-7.418h1.083zm4.244 7.418v-7.418h4.651v.963h-3.532v2.261h3.29v.96h-3.29v2.271h3.576v.963h-4.695zm6.914-5.564l1.228 2.167 1.239-2.167h1.185l-1.735 2.782 1.749 2.782h-1.184l-1.254-2.079-1.249 2.079h-1.189l1.732-2.782-1.71-2.782h1.188zm4.764 7.651v-7.651h1.058v.902h.09c.063-.116.154-.25.272-.402a1.53 1.53 0 01.493-.398c.21-.116.488-.174.833-.174.449 0 .85.113 1.203.34.352.227.629.555.829.982.203.427.304.942.304 1.543 0 .602-.1 1.117-.3 1.547a2.355 2.355 0 01-.826.989c-.35.229-.75.344-1.199.344-.338 0-.615-.057-.83-.17a1.575 1.575 0 01-.5-.399 3.18 3.18 0 01-.279-.405h-.065v2.952h-1.083zm1.061-4.869c0 .392.057.735.171 1.029.113.295.277.525.492.692.215.164.478.246.79.246.324 0 .594-.085.811-.257a1.59 1.59 0 00.493-.706c.114-.297.17-.632.17-1.004 0-.367-.055-.696-.166-.989a1.513 1.513 0 00-.493-.691c-.217-.17-.489-.254-.815-.254-.314 0-.58.081-.797.243a1.482 1.482 0 00-.489.677c-.111.29-.167.628-.167 1.014zm7.633 2.895c-.548 0-1.02-.117-1.416-.352a2.374 2.374 0 01-.913-.996c-.213-.43-.319-.933-.319-1.51 0-.57.106-1.073.319-1.507.215-.435.514-.774.898-1.018.387-.244.838-.366 1.355-.366.314 0 .618.052.913.156a2.19 2.19 0 011.347 1.354c.136.353.203.782.203 1.286v.384h-4.423v-.811h3.362c0-.285-.058-.537-.174-.757a1.316 1.316 0 00-1.221-.717c-.304 0-.57.074-.797.224a1.509 1.509 0 00-.521.58 1.668 1.668 0 00-.182.771v.634c0 .372.066.689.196.949.133.261.318.46.554.598.237.135.514.203.83.203.205 0 .392-.029.561-.087a1.158 1.158 0 00.721-.706l1.025.184a1.86 1.86 0 01-.441.794 2.162 2.162 0 01-.794.525 2.97 2.97 0 01-1.083.185zm4.672-3.416v3.303h-1.083v-5.564h1.04v.906h.069c.128-.295.328-.531.601-.71.275-.179.622-.268 1.04-.268.379 0 .711.08.996.239.285.157.506.391.663.703.157.311.235.696.235 1.155v3.539h-1.083v-3.408c0-.404-.105-.719-.315-.946-.21-.229-.499-.344-.866-.344-.251 0-.475.054-.67.163a1.172 1.172 0 00-.46.478 1.582 1.582 0 00-.167.754zm9.183-.902l-.981.174a1.183 1.183 0 00-.196-.359.957.957 0 00-.355-.279 1.294 1.294 0 00-.562-.109c-.306 0-.562.069-.768.207-.205.135-.307.31-.307.525 0 .186.068.336.206.449.138.114.36.207.667.279l.883.203c.512.118.894.301 1.145.547.251.246.377.566.377.96 0 .333-.097.63-.29.891a1.905 1.905 0 01-.8.609 2.972 2.972 0 01-1.185.221c-.623 0-1.131-.133-1.525-.399-.394-.268-.635-.648-.725-1.141l1.047-.159c.066.273.2.479.402.619.203.138.468.207.794.207.355 0 .639-.074.851-.221.213-.15.319-.332.319-.547a.569.569 0 00-.196-.439c-.128-.118-.325-.207-.59-.268l-.942-.206c-.519-.118-.903-.307-1.152-.565-.246-.259-.37-.586-.37-.982a1.4 1.4 0 01.276-.862c.183-.246.437-.438.76-.576.324-.14.695-.21 1.113-.21.601 0 1.074.13 1.42.391.345.258.573.605.684 1.04zm3.698 4.318c-.548 0-1.02-.117-1.416-.352a2.374 2.374 0 01-.913-.996c-.213-.43-.319-.933-.319-1.51 0-.57.106-1.073.319-1.507.215-.435.514-.774.898-1.018.386-.244.838-.366 1.355-.366.314 0 .618.052.913.156a2.19 2.19 0 011.347 1.354c.136.353.203.782.203 1.286v.384h-4.423v-.811h3.362c0-.285-.058-.537-.174-.757a1.316 1.316 0 00-1.221-.717c-.304 0-.57.074-.797.224a1.509 1.509 0 00-.521.58 1.668 1.668 0 00-.182.771v.634c0 .372.066.689.196.949.133.261.318.46.554.598.237.135.513.203.83.203.205 0 .392-.029.561-.087a1.158 1.158 0 00.721-.706l1.025.184a1.852 1.852 0 01-.442.794 2.15 2.15 0 01-.793.525 2.97 2.97 0 01-1.083.185z" fill="#7E8492"/><path d="M144.784 242.658v-21.197h1.357v21.197h-1.357zm3.601-14.2c-.066-.668-.35-1.187-.852-1.557-.503-.37-1.185-.555-2.046-.555-.585 0-1.079.083-1.482.249-.403.16-.712.383-.927.67-.21.287-.315.613-.315.977-.011.304.053.569.191.795.143.227.339.423.588.588.248.16.535.301.861.423.325.115.673.215 1.043.298l1.523.364c.74.166 1.419.386 2.037.662a6.185 6.185 0 011.607 1.019 4.23 4.23 0 011.051 1.424c.254.546.384 1.173.389 1.88-.005 1.037-.27 1.937-.794 2.699-.519.756-1.27 1.344-2.253 1.763-.977.414-2.155.621-3.535.621-1.369 0-2.561-.209-3.577-.629-1.01-.419-1.8-1.04-2.368-1.863-.563-.828-.859-1.852-.886-3.072h3.469c.039.569.202 1.044.489 1.424.292.376.681.66 1.167.853.491.188 1.046.282 1.664.282.608 0 1.135-.089 1.582-.265.453-.177.803-.422 1.051-.737a1.7 1.7 0 00.373-1.085c0-.381-.113-.701-.339-.96-.221-.26-.547-.48-.977-.663a9.996 9.996 0 00-1.565-.496l-1.847-.464c-1.43-.348-2.558-.892-3.386-1.631-.828-.74-1.24-1.736-1.234-2.989-.006-1.027.268-1.924.82-2.691.557-.768 1.322-1.367 2.293-1.797.972-.431 2.076-.646 3.312-.646 1.259 0 2.357.215 3.296.646.944.43 1.678 1.029 2.202 1.797.525.767.795 1.656.812 2.666h-3.437zm5.981 12.08v-2.583l6.036-5.589c.513-.497.944-.944 1.291-1.341.354-.398.621-.787.804-1.168.182-.386.273-.803.273-1.25 0-.497-.113-.925-.34-1.284a2.226 2.226 0 00-.927-.836 2.902 2.902 0 00-1.333-.298c-.519 0-.972.105-1.358.315-.386.209-.684.51-.894.902-.21.392-.315.859-.315 1.4H154.2c0-1.11.251-2.073.754-2.89.502-.817 1.206-1.449 2.111-1.896.905-.447 1.948-.671 3.13-.671 1.214 0 2.271.215 3.171.646.905.425 1.609 1.016 2.111 1.772.503.756.754 1.623.754 2.6a4.99 4.99 0 01-.381 1.896c-.248.624-.693 1.316-1.333 2.078-.64.756-1.543 1.664-2.708 2.724l-2.475 2.426v.116h7.12v2.931h-12.088zm16.781.216a1.936 1.936 0 01-1.407-.58 1.932 1.932 0 01-.58-1.408c0-.541.193-1.004.58-1.391a1.935 1.935 0 011.407-.579c.53 0 .994.193 1.391.579.398.387.596.85.596 1.391 0 .365-.093.699-.281 1.002a2.15 2.15 0 01-.72.721 1.907 1.907 0 01-.986.265zm10.11-17.173v16.957h-3.585v-13.554h-.1l-3.883 2.434v-3.179l4.198-2.658h3.37zm10.224 17.189c-1.17 0-2.214-.215-3.13-.646-.911-.43-1.634-1.024-2.169-1.78-.536-.756-.815-1.623-.837-2.6h3.478c.039.657.315 1.19.828 1.598.513.409 1.123.613 1.83.613.563 0 1.06-.124 1.49-.373a2.669 2.669 0 001.019-1.051c.248-.453.372-.972.372-1.557 0-.596-.127-1.12-.381-1.573a2.685 2.685 0 00-1.035-1.06c-.441-.254-.946-.384-1.515-.389-.497 0-.98.102-1.449.306-.463.205-.825.483-1.084.837l-3.188-.572.803-8.942h10.366v2.931h-7.41l-.439 4.248h.099c.298-.42.748-.768 1.35-1.044.602-.276 1.275-.414 2.02-.414 1.022 0 1.932.24 2.733.721.8.48 1.432 1.14 1.896 1.979.464.833.693 1.794.687 2.881.006 1.143-.259 2.158-.795 3.047-.53.883-1.272 1.579-2.227 2.087-.95.502-2.054.753-3.312.753zm15.484.141c-1.425-.006-2.65-.356-3.677-1.052-1.021-.695-1.808-1.703-2.36-3.022-.546-1.319-.817-2.906-.811-4.761 0-1.849.273-3.425.82-4.728.552-1.302 1.338-2.293 2.359-2.972 1.027-.685 2.25-1.027 3.669-1.027 1.418 0 2.638.342 3.659 1.027 1.027.684 1.816 1.678 2.368 2.981.552 1.297.826 2.87.82 4.719 0 1.86-.276 3.45-.828 4.769-.546 1.32-1.33 2.327-2.351 3.023-1.022.695-2.244 1.043-3.668 1.043zm0-2.973c.971 0 1.747-.488 2.326-1.465.58-.977.867-2.443.861-4.397 0-1.286-.132-2.357-.397-3.213-.26-.855-.629-1.498-1.11-1.929a2.42 2.42 0 00-1.68-.646c-.966 0-1.739.483-2.319 1.449-.579.966-.872 2.413-.878 4.339 0 1.303.13 2.39.39 3.262.265.867.637 1.518 1.117 1.955.481.43 1.044.645 1.69.645z" fill="#1D1E25"/><path d="M137.936 257.666h.882l1.764 2.968h.074l1.764-2.968h.882l-2.298 3.739v2.62h-.77v-2.62l-2.298-3.739zm7.525 6.459a2.08 2.08 0 01-1.133-.308 2.098 2.098 0 01-.758-.86c-.18-.368-.27-.799-.27-1.292 0-.496.09-.93.27-1.301.183-.37.435-.658.758-.863a2.079 2.079 0 011.133-.307c.431 0 .808.102 1.131.307.325.205.577.493.757.863.182.371.274.805.274 1.301 0 .493-.092.924-.274 1.292a2.06 2.06 0 01-.757.86c-.323.205-.7.308-1.131.308zm0-.659c.328 0 .597-.084.808-.251.211-.168.367-.388.469-.662a2.54 2.54 0 00.152-.888c0-.318-.051-.615-.152-.891a1.504 1.504 0 00-.469-.667c-.211-.17-.48-.255-.808-.255-.327 0-.596.085-.807.255a1.504 1.504 0 00-.469.667 2.573 2.573 0 00-.152.891c0 .319.051.615.152.888.102.274.258.494.469.662.211.167.48.251.807.251zm6.286-1.391v-2.819h.733v4.769h-.733v-.807h-.05a1.57 1.57 0 01-.522.618c-.236.167-.534.251-.894.251-.298 0-.563-.065-.795-.195a1.37 1.37 0 01-.546-.597c-.133-.267-.199-.603-.199-1.009v-3.03h.733v2.981c0 .347.097.625.292.832a.99.99 0 00.751.31c.182 0 .368-.046.556-.139.19-.094.35-.236.478-.429.131-.192.196-.438.196-.736zm2.075 1.95v-4.769h.708v.72h.049c.087-.236.245-.427.472-.574.228-.147.485-.221.77-.221l.202.003c.081.003.142.006.183.01v.745a1.96 1.96 0 00-.17-.028 1.737 1.737 0 00-.277-.022 1.3 1.3 0 00-.621.146c-.18.095-.323.228-.428.398a1.065 1.065 0 00-.156.574v3.018h-.732zm5.594 0v-6.359h4.285v1.109h-2.94v1.515h2.72v1.108h-2.72v1.519h2.952v1.108h-4.297zm6.435-4.769l.875 1.667.897-1.667h1.357l-1.381 2.384 1.419 2.385h-1.351l-.941-1.649-.925 1.649h-1.366l1.416-2.385-1.367-2.384h1.367zm3.915 6.558v-6.558h1.304v.801h.059a1.74 1.74 0 01.252-.391 1.31 1.31 0 01.434-.336 1.48 1.48 0 01.671-.136c.348 0 .669.091.962.273.294.18.529.452.705.817.176.362.264.816.264 1.363 0 .532-.086.981-.257 1.347-.17.365-.402.641-.696.829a1.78 1.78 0 01-.981.28c-.257 0-.475-.043-.655-.128a1.348 1.348 0 01-.438-.319 1.624 1.624 0 01-.261-.395h-.04v2.553h-1.323zm1.295-4.174c0 .284.039.531.118.743.078.211.192.375.341.493.149.116.33.174.544.174a.852.852 0 00.546-.177c.149-.12.262-.285.339-.497.078-.213.118-.458.118-.736 0-.275-.039-.517-.115-.726a1.088 1.088 0 00-.339-.491.857.857 0 00-.549-.177.873.873 0 00-.547.171c-.147.114-.26.275-.338.485a2.085 2.085 0 00-.118.738zm5.598 2.475c-.304 0-.575-.053-.813-.158a1.317 1.317 0 01-.566-.475c-.136-.211-.204-.474-.204-.789 0-.265.048-.487.145-.667.098-.181.23-.325.398-.435.168-.11.358-.193.571-.249.215-.055.441-.095.677-.118.277-.029.501-.055.671-.08a.957.957 0 00.369-.118.26.26 0 00.115-.23v-.019c0-.196-.062-.348-.186-.456-.122-.108-.296-.162-.522-.162-.238 0-.427.053-.568.159a.723.723 0 00-.279.391l-1.224-.099c.062-.29.184-.541.367-.752.182-.213.417-.377.704-.49.29-.116.626-.174 1.006-.174.265 0 .519.031.761.093.244.062.461.158.649.289.191.13.341.298.45.503.11.203.165.446.165.729v3.217h-1.255v-.661h-.037c-.076.149-.179.28-.307.394-.129.112-.283.2-.463.264-.18.062-.388.093-.624.093zm.379-.913c.194 0 .366-.038.515-.115a.912.912 0 00.351-.316.818.818 0 00.127-.451v-.506a.706.706 0 01-.17.075 3.222 3.222 0 01-.506.105l-.243.035a1.63 1.63 0 00-.406.108.65.65 0 00-.27.202.487.487 0 00-.097.311c0 .18.065.317.196.413.132.093.3.139.503.139zm4.656-1.934v2.757h-1.323v-4.769h1.261v.841h.056c.105-.277.282-.496.531-.658.248-.163.549-.245.903-.245.331 0 .62.072.866.217.247.145.438.352.575.621.137.267.205.586.205.956v3.037h-1.323v-2.801c.002-.291-.072-.519-.223-.683-.152-.165-.36-.248-.625-.248a.946.946 0 00-.472.115.794.794 0 00-.316.335c-.075.145-.113.32-.115.525zm8.085-.652l-1.211.074a.635.635 0 00-.134-.279.706.706 0 00-.27-.202.914.914 0 00-.394-.078.97.97 0 00-.519.131c-.141.085-.211.199-.211.341 0 .114.045.211.137.289.091.079.247.142.468.19l.864.173c.463.096.809.249 1.037.46.227.211.341.489.341.832a1.3 1.3 0 01-.276.823c-.182.236-.433.42-.752.553-.316.13-.682.195-1.096.195-.631 0-1.134-.131-1.509-.394a1.537 1.537 0 01-.655-1.081l1.301-.068a.67.67 0 00.286.441c.151.099.345.149.58.149.232 0 .419-.044.559-.133.143-.092.216-.208.218-.351a.365.365 0 00-.152-.295c-.1-.079-.253-.139-.46-.18l-.826-.165c-.466-.093-.812-.255-1.04-.484-.226-.23-.339-.523-.339-.879 0-.306.083-.57.249-.792.168-.221.403-.392.705-.512a2.9 2.9 0 011.068-.18c.602 0 1.076.127 1.422.382.348.254.551.601.609 1.04zm3.115 3.502c-.491 0-.913-.099-1.267-.298a2.044 2.044 0 01-.814-.851c-.19-.368-.285-.804-.285-1.307 0-.49.095-.921.285-1.291.191-.371.459-.66.804-.867.348-.207.756-.31 1.224-.31.314 0 .607.05.879.152.273.099.511.249.714.45.205.201.364.453.478.758.114.302.171.656.171 1.062v.363h-4.028v-.82h2.783c0-.19-.042-.359-.125-.506a.884.884 0 00-.344-.345.993.993 0 00-.506-.127c-.201 0-.379.047-.534.14a.976.976 0 00-.361.369 1.045 1.045 0 00-.133.513v.779c0 .236.043.44.13.612a.949.949 0 00.376.397c.161.093.353.14.574.14.147 0 .282-.021.404-.062a.86.86 0 00.314-.186.806.806 0 00.198-.305l1.224.081c-.062.294-.19.551-.382.77a1.925 1.925 0 01-.739.509c-.3.12-.647.18-1.04.18zm7.591.007a2.08 2.08 0 01-1.133-.308 2.098 2.098 0 01-.758-.86c-.18-.368-.27-.799-.27-1.292 0-.496.09-.93.27-1.301.183-.37.435-.658.758-.863a2.079 2.079 0 011.133-.307c.431 0 .808.102 1.131.307.325.205.577.493.757.863.182.371.273.805.273 1.301 0 .493-.091.924-.273 1.292a2.06 2.06 0 01-.757.86c-.323.205-.7.308-1.131.308zm0-.659c.327 0 .597-.084.808-.251.211-.168.367-.388.469-.662a2.54 2.54 0 00.152-.888c0-.318-.051-.615-.152-.891a1.504 1.504 0 00-.469-.667c-.211-.17-.481-.255-.808-.255-.327 0-.596.085-.807.255a1.504 1.504 0 00-.469.667 2.573 2.573 0 00-.152.891c0 .319.051.615.152.888.102.274.258.494.469.662.211.167.48.251.807.251zm5.404-4.21v.621h-2.571v-.621h2.571zm-1.801 4.769v-5.427c0-.274.064-.501.192-.684.129-.182.295-.318.5-.409.205-.091.422-.137.649-.137a1.695 1.695 0 01.696.124l-.211.634a3.314 3.314 0 00-.156-.047.924.924 0 00-.254-.028c-.242 0-.417.061-.525.183-.105.122-.158.301-.158.537v5.254h-.733zm7.361-4.769v.621h-2.471v-.621h2.471zm-1.751-1.143h.733v4.546c0 .207.03.362.09.466a.473.473 0 00.236.205.95.95 0 00.307.049c.081 0 .147-.004.199-.012l.124-.025.149.658c-.05.019-.119.038-.208.056a1.513 1.513 0 01-.338.031c-.207 0-.41-.044-.609-.133a1.213 1.213 0 01-.491-.407c-.128-.182-.192-.412-.192-.689v-4.745zm3.689 3.043v2.869h-.733v-6.359h.733v2.335h.062a1.35 1.35 0 01.503-.587c.225-.147.526-.22.9-.22.325 0 .61.065.854.195.244.129.434.326.568.593.137.265.205.603.205 1.013v3.03h-.732v-2.981c0-.378-.099-.671-.295-.878-.195-.209-.465-.314-.811-.314-.24 0-.455.051-.646.152-.188.102-.337.25-.447.444a1.453 1.453 0 00-.161.708zm4.433 2.869v-4.769h.733v4.769h-.733zm.373-5.564a.524.524 0 01-.37-.146.47.47 0 01-.152-.351c0-.136.051-.253.152-.351a.524.524 0 01.37-.146c.142 0 .264.049.366.146a.468.468 0 01.155.351.465.465 0 01-.155.351.513.513 0 01-.366.146zm5.08 1.863l-.658.186a1.283 1.283 0 00-.183-.32.898.898 0 00-.323-.26 1.166 1.166 0 00-.525-.103c-.292 0-.535.067-.73.202-.192.132-.288.301-.288.506 0 .182.066.326.198.432.133.105.34.193.621.264l.708.174c.427.103.744.261.953.475.209.211.314.483.314.816 0 .273-.079.518-.236.733a1.566 1.566 0 01-.652.509 2.382 2.382 0 01-.975.187c-.486 0-.889-.106-1.208-.317-.319-.211-.52-.52-.605-.925l.695-.174c.066.256.192.449.376.577.186.128.429.193.73.193.341 0 .612-.073.813-.218.203-.147.304-.323.304-.528a.558.558 0 00-.173-.416c-.116-.113-.294-.198-.535-.254l-.794-.187c-.437-.103-.758-.263-.963-.481a1.163 1.163 0 01-.304-.823c0-.269.075-.507.226-.714a1.55 1.55 0 01.625-.487c.264-.118.565-.177.9-.177.472 0 .842.103 1.112.31.271.207.463.48.577.82zm3.649 3.701v-4.769h.708v.745h.062a1.2 1.2 0 01.482-.593c.221-.143.487-.214.798-.214.314 0 .576.071.785.214.211.141.376.338.494.593h.05c.122-.246.305-.442.549-.587.244-.147.537-.22.879-.22.426 0 .775.133 1.046.4.271.265.407.678.407 1.239v3.192h-.733v-3.192c0-.352-.096-.603-.289-.754a1.068 1.068 0 00-.68-.227c-.335 0-.595.101-.779.304-.184.201-.276.456-.276.764v3.105h-.745v-3.266c0-.271-.088-.49-.264-.655-.176-.168-.403-.252-.68-.252-.191 0-.369.051-.534.152a1.155 1.155 0 00-.398.422 1.25 1.25 0 00-.149.618v2.981h-.733zm9.537.1a2.08 2.08 0 01-1.133-.308 2.098 2.098 0 01-.758-.86c-.18-.368-.27-.799-.27-1.292 0-.496.09-.93.27-1.301.183-.37.435-.658.758-.863a2.079 2.079 0 011.133-.307c.431 0 .808.102 1.131.307.325.205.577.493.757.863.182.371.273.805.273 1.301 0 .493-.091.924-.273 1.292a2.06 2.06 0 01-.757.86c-.323.205-.7.308-1.131.308zm0-.659c.327 0 .596-.084.808-.251.211-.168.367-.388.468-.662.102-.273.153-.569.153-.888a2.55 2.55 0 00-.153-.891 1.494 1.494 0 00-.468-.667c-.212-.17-.481-.255-.808-.255-.327 0-.596.085-.807.255a1.504 1.504 0 00-.469.667 2.573 2.573 0 00-.152.891c0 .319.051.615.152.888.102.274.258.494.469.662.211.167.48.251.807.251zm4.013-2.31v2.869h-.733v-4.769h.708v.745h.062a1.37 1.37 0 01.509-.584c.228-.149.522-.223.882-.223.323 0 .606.066.848.198.242.131.43.33.565.597.134.265.202.6.202 1.006v3.03h-.733v-2.981c0-.374-.097-.666-.292-.875-.195-.211-.462-.317-.801-.317-.234 0-.443.051-.627.152a1.1 1.1 0 00-.432.444 1.475 1.475 0 00-.158.708zm6.456-1.9v.621h-2.472v-.621h2.472zm-1.751-1.143h.732v4.546c0 .207.03.362.09.466a.477.477 0 00.236.205c.098.033.2.049.308.049.081 0 .147-.004.199-.012l.124-.025.149.658c-.05.019-.119.038-.208.056a1.517 1.517 0 01-.339.031 1.47 1.47 0 01-.608-.133 1.213 1.213 0 01-.491-.407c-.128-.182-.192-.412-.192-.689v-4.745zm3.688 3.043v2.869h-.732v-6.359h.732v2.335h.062c.112-.246.28-.442.504-.587.225-.147.525-.22.9-.22.325 0 .61.065.854.195.244.129.434.326.568.593.137.265.205.603.205 1.013v3.03h-.733v-2.981c0-.378-.098-.671-.295-.878-.194-.209-.464-.314-.81-.314-.24 0-.456.051-.646.152-.188.102-.337.25-.447.444a1.442 1.442 0 00-.162.708zm-108.544 13.969c-.447 0-.832-.106-1.155-.317a2.062 2.062 0 01-.745-.873 2.953 2.953 0 01-.261-1.27c0-.484.089-.912.267-1.282a2.12 2.12 0 01.751-.873 2.02 2.02 0 011.131-.316c.335 0 .637.062.906.186s.49.298.662.522c.172.223.278.484.32.782h-.733a1.132 1.132 0 00-.373-.577c-.19-.17-.447-.255-.77-.255-.286 0-.536.075-.751.224a1.45 1.45 0 00-.5.624c-.118.267-.177.58-.177.94 0 .369.058.69.174.963.118.273.283.485.496.637.216.151.468.226.758.226.191 0 .363-.033.519-.099a1.074 1.074 0 00.624-.733h.733a1.7 1.7 0 01-.951 1.295c-.265.13-.573.196-.925.196zm4.884 0a2.08 2.08 0 01-1.133-.308 2.09 2.09 0 01-.758-.86c-.18-.368-.27-.799-.27-1.292 0-.496.09-.93.27-1.301.182-.37.435-.658.758-.863a2.079 2.079 0 011.133-.307c.431 0 .808.102 1.131.307.325.205.577.493.757.863.182.371.273.805.273 1.301 0 .493-.091.924-.273 1.292a2.06 2.06 0 01-.757.86c-.323.205-.7.308-1.131.308zm0-.659c.327 0 .596-.084.808-.251.211-.168.367-.388.468-.662.102-.273.153-.569.153-.888a2.55 2.55 0 00-.153-.891 1.494 1.494 0 00-.468-.667c-.212-.17-.481-.255-.808-.255-.327 0-.596.085-.807.255a1.504 1.504 0 00-.469.667 2.573 2.573 0 00-.152.891c0 .319.051.615.152.888.102.274.258.494.469.662.211.167.48.251.807.251zm3.28.559v-4.769h.708v.745h.062c.099-.255.26-.452.481-.593.222-.143.488-.214.798-.214.315 0 .577.071.786.214.211.141.376.338.494.593h.049c.122-.246.306-.442.55-.587.244-.147.537-.22.879-.22.426 0 .775.133 1.046.4.271.265.407.678.407 1.239v3.192h-.733v-3.192c0-.352-.096-.603-.289-.754a1.068 1.068 0 00-.68-.227c-.335 0-.595.101-.779.304a1.09 1.09 0 00-.277.764v3.105h-.745v-3.266c0-.271-.088-.49-.264-.655-.176-.168-.402-.252-.68-.252-.19 0-.368.051-.534.152a1.153 1.153 0 00-.397.422 1.24 1.24 0 00-.149.618v2.981h-.733zm7.599 1.789v-6.558h.708v.757h.087c.054-.082.129-.188.224-.316.097-.131.236-.247.416-.348.182-.104.428-.155.739-.155.402 0 .756.1 1.062.301.306.201.545.485.717.854.172.368.258.803.258 1.304 0 .505-.086.943-.258 1.313-.172.369-.41.654-.714.857a1.866 1.866 0 01-1.053.302c-.306 0-.551-.051-.735-.153a1.34 1.34 0 01-.426-.351 4.776 4.776 0 01-.23-.329h-.062v2.522h-.733zm.721-4.174c0 .361.053.678.158.954.106.273.26.487.463.642.203.154.451.23.745.23.306 0 .562-.08.767-.242.207-.163.362-.383.466-.658a2.6 2.6 0 00.158-.926c0-.335-.052-.637-.155-.906a1.406 1.406 0 00-.463-.643c-.205-.159-.462-.239-.773-.239a1.22 1.22 0 00-.751.227 1.363 1.363 0 00-.46.627 2.586 2.586 0 00-.155.934zm6.011 2.497a1.94 1.94 0 01-.823-.171 1.411 1.411 0 01-.587-.5 1.415 1.415 0 01-.217-.795c0-.273.054-.494.162-.664.107-.172.251-.306.431-.404.18-.097.379-.17.596-.217.22-.05.44-.089.662-.118a33.3 33.3 0 01.705-.084c.182-.021.314-.055.397-.102.085-.048.127-.131.127-.249v-.025c0-.306-.084-.544-.251-.714-.166-.17-.417-.254-.755-.254-.35 0-.624.076-.823.229a1.374 1.374 0 00-.419.491l-.695-.248c.124-.29.29-.516.497-.677.209-.164.436-.278.683-.342.248-.066.492-.099.732-.099.154 0 .33.018.528.056.201.035.395.108.581.22.188.112.345.281.469.506.124.226.186.528.186.907v3.142h-.733v-.646h-.037c-.05.104-.132.215-.248.333a1.445 1.445 0 01-.463.301 1.78 1.78 0 01-.705.124zm.112-.658c.29 0 .534-.057.733-.171a1.16 1.16 0 00.608-1.009v-.671c-.031.037-.099.071-.205.103a3.468 3.468 0 01-.36.077 16.94 16.94 0 01-.394.056l-.308.037c-.19.025-.368.066-.534.121a.92.92 0 00-.397.246c-.099.107-.149.254-.149.441 0 .254.094.447.282.577.191.128.432.193.724.193zm3.412.546v-4.769h.708v.72h.049c.087-.236.244-.427.472-.574.228-.147.485-.221.77-.221l.202.003c.081.003.142.006.183.01v.745a2.09 2.09 0 00-.171-.028 1.734 1.734 0 00-.276-.022 1.3 1.3 0 00-.621.146c-.18.095-.323.228-.428.398a1.065 1.065 0 00-.156.574v3.018h-.732zm5.107.1c-.459 0-.856-.102-1.189-.305a2.04 2.04 0 01-.767-.857c-.178-.368-.267-.797-.267-1.285 0-.489.089-.919.267-1.292.18-.375.431-.666.752-.876a2.015 2.015 0 011.13-.316c.248 0 .493.041.736.124.242.083.462.217.661.404.199.184.357.428.475.732.118.305.177.679.177 1.124v.311h-3.676v-.634h2.931c0-.269-.054-.509-.162-.72a1.21 1.21 0 00-.453-.5 1.268 1.268 0 00-.689-.183c-.292 0-.545.072-.758.217a1.43 1.43 0 00-.487.559 1.64 1.64 0 00-.171.739v.423c0 .36.062.665.186.916.126.248.301.437.525.568.224.128.483.192.779.192.193 0 .367-.027.522-.08a1.12 1.12 0 00.407-.249c.114-.112.202-.25.264-.416l.708.199c-.075.24-.2.451-.376.633-.176.18-.393.321-.652.422-.259.1-.55.15-.873.15zm4.891 0c-.398 0-.749-.101-1.053-.302a2.034 2.034 0 01-.714-.857c-.172-.37-.258-.808-.258-1.313 0-.501.086-.936.258-1.304.172-.369.411-.653.717-.854a1.894 1.894 0 011.062-.301c.311 0 .556.051.736.155.182.101.321.217.416.348.097.128.173.234.227.316h.062v-2.347h.733v6.359h-.708v-.733h-.087a4.776 4.776 0 01-.23.329 1.346 1.346 0 01-.425.351c-.185.102-.43.153-.736.153zm.099-.659c.294 0 .542-.076.745-.23a1.44 1.44 0 00.463-.642c.105-.276.158-.593.158-.954 0-.356-.051-.667-.155-.934a1.356 1.356 0 00-.46-.627 1.22 1.22 0 00-.751-.227c-.31 0-.569.08-.776.239a1.435 1.435 0 00-.463.643 2.562 2.562 0 00-.152.906c0 .34.052.648.155.926.106.275.261.495.466.658.207.162.464.242.77.242zm8.064-4.21v.621h-2.472v-.621h2.472zm-1.751-1.143h.732v4.546c0 .207.03.362.09.466a.473.473 0 00.236.205c.098.033.2.049.308.049.08 0 .147-.004.198-.012l.125-.025.149.658c-.05.019-.119.038-.208.056a1.517 1.517 0 01-.339.031 1.47 1.47 0 01-.608-.133 1.207 1.207 0 01-.491-.407c-.128-.182-.192-.412-.192-.689v-4.745zm4.739 6.012a2.08 2.08 0 01-1.133-.308 2.098 2.098 0 01-.758-.86c-.18-.368-.27-.799-.27-1.292 0-.496.09-.93.27-1.301.183-.37.435-.658.758-.863a2.079 2.079 0 011.133-.307c.431 0 .808.102 1.131.307.325.205.577.493.757.863.182.371.273.805.273 1.301 0 .493-.091.924-.273 1.292a2.06 2.06 0 01-.757.86c-.323.205-.7.308-1.131.308zm0-.659c.327 0 .597-.084.808-.251.211-.168.367-.388.469-.662a2.54 2.54 0 00.152-.888c0-.318-.051-.615-.152-.891a1.504 1.504 0 00-.469-.667c-.211-.17-.481-.255-.808-.255-.327 0-.596.085-.807.255a1.504 1.504 0 00-.469.667 2.573 2.573 0 00-.152.891c0 .319.051.615.152.888.102.274.258.494.469.662.211.167.48.251.807.251zm6.472-5.8v6.359h-.733v-6.359h.733zm2.746 6.471c-.303 0-.577-.057-.823-.171a1.405 1.405 0 01-.587-.5 1.407 1.407 0 01-.217-.795c0-.273.053-.494.161-.664.108-.172.252-.306.432-.404.18-.097.378-.17.596-.217.219-.05.44-.089.661-.118.29-.037.525-.065.705-.084.182-.021.315-.055.397-.102.085-.048.128-.131.128-.249v-.025c0-.306-.084-.544-.252-.714-.165-.17-.417-.254-.754-.254-.35 0-.624.076-.823.229a1.354 1.354 0 00-.419.491l-.696-.248c.124-.29.29-.516.497-.677.209-.164.437-.278.683-.342.248-.066.493-.099.733-.099.153 0 .329.018.528.056.201.035.394.108.58.22.189.112.345.281.469.506.124.226.187.528.187.907v3.142h-.733v-.646h-.038a1.264 1.264 0 01-.248.333c-.116.118-.27.218-.463.301a1.774 1.774 0 01-.704.124zm.111-.658c.29 0 .534-.057.733-.171a1.16 1.16 0 00.609-1.009v-.671c-.031.037-.1.071-.205.103a3.586 3.586 0 01-.36.077c-.135.021-.266.039-.395.056l-.307.037a2.86 2.86 0 00-.534.121.923.923 0 00-.398.246c-.099.107-.149.254-.149.441 0 .254.095.447.283.577.19.128.432.193.723.193zm6.79-3.155l-.658.186a1.223 1.223 0 00-.183-.32.89.89 0 00-.323-.26 1.166 1.166 0 00-.525-.103c-.292 0-.535.067-.73.202-.192.132-.288.301-.288.506 0 .182.066.326.198.432.133.105.34.193.621.264l.708.174c.427.103.745.261.954.475.209.211.313.483.313.816 0 .273-.078.518-.236.733a1.56 1.56 0 01-.652.509 2.382 2.382 0 01-.975.187c-.486 0-.889-.106-1.208-.317-.318-.211-.52-.52-.605-.925l.695-.174c.067.256.192.449.376.577.186.128.43.193.73.193.341 0 .612-.073.813-.218.203-.147.305-.323.305-.528a.556.556 0 00-.174-.416c-.116-.113-.294-.198-.534-.254l-.795-.187c-.437-.103-.758-.263-.963-.481a1.163 1.163 0 01-.304-.823c0-.269.075-.507.227-.714a1.54 1.54 0 01.624-.487 2.19 2.19 0 01.9-.177c.472 0 .843.103 1.112.31.271.207.463.48.577.82zm3.264-1.068v.621h-2.471v-.621h2.471zm-1.751-1.143h.733v4.546c0 .207.03.362.09.466a.473.473 0 00.236.205.95.95 0 00.307.049c.081 0 .147-.004.199-.012l.124-.025.149.658a1.339 1.339 0 01-.208.056 1.513 1.513 0 01-.338.031c-.207 0-.41-.044-.609-.133a1.21 1.21 0 01-.49-.407c-.129-.182-.193-.412-.193-.689v-4.745zm5.313 5.912v-4.769h.708v.745h.062c.099-.255.26-.452.481-.593.222-.143.488-.214.798-.214.315 0 .577.071.786.214.211.141.375.338.493.593h.05c.122-.246.305-.442.55-.587.244-.147.537-.22.878-.22.427 0 .776.133 1.047.4.271.265.407.678.407 1.239v3.192h-.733v-3.192c0-.352-.096-.603-.289-.754a1.068 1.068 0 00-.68-.227c-.335 0-.595.101-.779.304-.185.201-.277.456-.277.764v3.105h-.745v-3.266c0-.271-.088-.49-.264-.655-.176-.168-.402-.252-.68-.252-.19 0-.368.051-.534.152a1.153 1.153 0 00-.397.422 1.24 1.24 0 00-.149.618v2.981h-.733zm9.537.1c-.431 0-.808-.103-1.133-.308a2.09 2.09 0 01-.758-.86c-.18-.368-.27-.799-.27-1.292 0-.496.09-.93.27-1.301.182-.37.435-.658.758-.863a2.076 2.076 0 011.133-.307c.43 0 .807.102 1.13.307.325.205.578.493.758.863.182.371.273.805.273 1.301 0 .493-.091.924-.273 1.292-.18.368-.433.655-.758.86-.323.205-.7.308-1.13.308zm0-.659c.327 0 .596-.084.807-.251a1.48 1.48 0 00.469-.662c.102-.273.152-.569.152-.888 0-.318-.05-.615-.152-.891a1.496 1.496 0 00-.469-.667c-.211-.17-.48-.255-.807-.255-.327 0-.596.085-.807.255a1.488 1.488 0 00-.469.667 2.55 2.55 0 00-.152.891c0 .319.05.615.152.888.101.274.257.494.469.662.211.167.48.251.807.251zm4.012-2.31v2.869h-.732v-4.769h.708v.745h.062c.111-.242.281-.437.509-.584.228-.149.521-.223.882-.223.323 0 .605.066.847.198.243.131.431.33.565.597.135.265.202.6.202 1.006v3.03h-.733v-2.981c0-.374-.097-.666-.291-.875-.195-.211-.462-.317-.801-.317-.234 0-.443.051-.628.152-.182.102-.326.25-.431.444a1.464 1.464 0 00-.159.708zm6.456-1.9v.621h-2.471v-.621h2.471zm-1.751-1.143h.733v4.546c0 .207.03.362.09.466a.473.473 0 00.236.205.95.95 0 00.307.049c.081 0 .147-.004.199-.012l.124-.025.149.658a1.339 1.339 0 01-.208.056 1.507 1.507 0 01-.338.031c-.207 0-.41-.044-.609-.133a1.21 1.21 0 01-.49-.407c-.129-.182-.193-.412-.193-.689v-4.745zm3.689 3.043v2.869h-.733v-6.359h.733v2.335h.062c.112-.246.28-.442.503-.587.226-.147.526-.22.901-.22.325 0 .609.065.853.195.245.129.434.326.569.593.136.265.205.603.205 1.013v3.03h-.733v-2.981c0-.378-.099-.671-.295-.878-.195-.209-.465-.314-.811-.314-.24 0-.455.051-.645.152-.189.102-.338.25-.448.444a1.453 1.453 0 00-.161.708z" fill="#7E8492"/><path fill-rule="evenodd" clip-rule="evenodd" d="M234.293 229.293a.999.999 0 011.414 0l3.293 3.293 3.293-3.293a.999.999 0 111.414 1.414l-4 4a.999.999 0 01-1.414 0l-4-4a.999.999 0 010-1.414z" fill="#EB5757"/><path d="M253.606 227.93v7.419h-1.123v-6.296h-.043l-1.775 1.16v-1.073l1.851-1.21h1.09zm4.59 7.543c-.573-.003-1.062-.154-1.467-.453-.406-.3-.716-.736-.931-1.308-.215-.572-.323-1.262-.323-2.068 0-.805.108-1.492.323-2.062.217-.57.529-1.004.934-1.304.408-.299.896-.449 1.464-.449.567 0 1.054.151 1.46.453.405.299.716.734.931 1.304.217.567.326 1.253.326 2.058 0 .809-.108 1.499-.323 2.072-.215.57-.525 1.005-.931 1.307-.405.3-.893.45-1.463.45zm0-.968c.502 0 .895-.245 1.177-.735.285-.49.428-1.199.428-2.126 0-.616-.066-1.137-.196-1.562-.128-.427-.313-.751-.554-.971a1.213 1.213 0 00-.855-.333c-.5 0-.893.246-1.177.739-.285.493-.429 1.202-.432 2.127 0 .618.064 1.141.192 1.568.131.425.316.748.555.967.239.218.526.326.862.326zm7.874-.547v-.391c0-.28.058-.536.174-.768.119-.234.29-.421.515-.561a1.51 1.51 0 01.822-.214c.328 0 .604.07.826.21.222.14.39.327.503.561.116.235.174.492.174.772v.391c0 .28-.058.538-.174.772a1.39 1.39 0 01-.51.561c-.223.14-.496.211-.819.211-.326 0-.601-.071-.826-.211a1.386 1.386 0 01-.511-.561 1.716 1.716 0 01-.174-.772zm.844-.391v.391c0 .208.05.396.149.565.099.169.272.254.518.254.244 0 .414-.085.511-.254.096-.169.145-.357.145-.565v-.391c0-.208-.048-.396-.142-.565-.091-.169-.263-.254-.514-.254-.242 0-.413.085-.515.254a1.08 1.08 0 00-.152.565zm-4.575-3.854v-.392c0-.28.058-.537.174-.771.118-.234.29-.422.514-.562.227-.14.501-.21.823-.21.328 0 .603.07.826.21.222.14.39.328.503.562.114.234.17.491.17.771v.392c0 .28-.058.537-.173.771a1.373 1.373 0 01-.508.562c-.222.14-.495.21-.818.21-.329 0-.605-.07-.83-.21a1.406 1.406 0 01-.507-.562 1.712 1.712 0 01-.174-.771zm.848-.392v.392c0 .207.048.396.145.565.099.169.271.253.518.253.241 0 .41-.084.507-.253.099-.169.148-.358.148-.565v-.392c0-.207-.047-.396-.141-.565-.094-.169-.266-.253-.514-.253-.242 0-.413.084-.515.253a1.098 1.098 0 00-.148.565zm-.504 6.028l5.101-7.419h.866l-5.101 7.419h-.866zM24.959 27.05c-.053-.496-.277-.883-.67-1.159-.39-.277-.898-.415-1.523-.415-.44 0-.817.067-1.131.199-.314.133-.555.313-.722.54a1.312 1.312 0 00-.255.778c0 .243.055.453.165.63.113.179.267.33.46.455.193.122.407.224.642.307.235.084.471.154.71.21l1.09.273c.44.103.863.24 1.268.415.41.174.775.394 1.097.66.325.264.583.584.772.96.19.374.284.814.284 1.318 0 .681-.174 1.282-.522 1.8-.349.516-.853.92-1.512 1.21-.655.289-1.449.433-2.38.433-.906 0-1.692-.14-2.358-.42-.663-.281-1.182-.69-1.557-1.228-.371-.538-.572-1.193-.602-1.966h2.073c.03.405.156.742.375 1.011.22.27.506.47.858.603.357.132.754.198 1.194.198.458 0 .86-.068 1.204-.204.349-.14.621-.333.818-.58a1.4 1.4 0 00.301-.875c-.003-.303-.092-.553-.267-.75-.174-.2-.418-.367-.733-.5a7.062 7.062 0 00-1.09-.363l-1.324-.341c-.959-.246-1.716-.62-2.273-1.12-.553-.503-.83-1.172-.83-2.005 0-.686.186-1.286.557-1.801.375-.515.885-.915 1.529-1.2.644-.287 1.373-.43 2.187-.43.826 0 1.55.143 2.17.43.626.285 1.116.68 1.472 1.188.356.504.54 1.084.551 1.739H24.96zm8.334-.29v1.591h-5.017v-1.59h5.017zm-3.779-2.09h2.057v8.192c0 .277.042.49.125.637a.67.67 0 00.341.295c.14.053.296.08.466.08.129 0 .246-.01.352-.029a2.84 2.84 0 00.25-.05l.347 1.607c-.11.038-.267.08-.472.125a3.86 3.86 0 01-.738.08 3.354 3.354 0 01-1.392-.233 2.165 2.165 0 01-.983-.807c-.24-.364-.357-.818-.353-1.364V24.67zm8.01 10.994a3.64 3.64 0 01-1.494-.296c-.44-.2-.788-.496-1.046-.886-.253-.39-.38-.871-.38-1.443 0-.493.09-.9.273-1.222.181-.322.43-.58.744-.773a3.755 3.755 0 011.062-.437 8.63 8.63 0 011.233-.222c.512-.053.926-.1 1.245-.142.318-.045.549-.113.693-.204.148-.095.221-.24.221-.438v-.034c0-.428-.127-.76-.38-.994-.254-.235-.62-.352-1.097-.352-.504 0-.903.11-1.199.329-.291.22-.488.48-.59.778l-1.921-.272a3.06 3.06 0 01.75-1.33c.348-.36.775-.629 1.278-.807a4.888 4.888 0 011.67-.272c.421 0 .84.049 1.256.147a3.54 3.54 0 011.142.489c.345.223.622.528.83.915.212.386.318.87.318 1.449v5.84h-1.977V34.29h-.068a2.51 2.51 0 01-.529.681 2.542 2.542 0 01-.846.506 3.413 3.413 0 01-1.188.188zm.534-1.512c.413 0 .771-.081 1.074-.244.303-.167.536-.386.7-.66.166-.272.25-.57.25-.891v-1.029a.97.97 0 01-.33.148 4.679 4.679 0 01-.512.12c-.19.034-.377.064-.562.09l-.483.069c-.307.041-.582.11-.824.204a1.368 1.368 0 00-.574.398c-.14.166-.21.382-.21.648 0 .378.138.664.414.857.277.194.63.29 1.057.29zm10.5-7.392v1.591h-5.017v-1.59h5.017zm-3.778-2.09h2.057v8.192c0 .277.041.49.125.637.087.144.2.242.34.295.14.053.296.08.467.08.128 0 .246-.01.352-.029a2.84 2.84 0 00.25-.05l.346 1.607c-.11.038-.267.08-.471.125-.2.046-.447.072-.739.08a3.354 3.354 0 01-1.392-.233 2.165 2.165 0 01-.983-.807c-.238-.364-.356-.818-.352-1.364V24.67zm5.498 10.817V26.76h2.057v8.727H50.28zm1.035-9.965a1.2 1.2 0 01-.841-.324 1.044 1.044 0 01-.353-.79c0-.31.118-.574.353-.79.234-.22.515-.33.84-.33.33 0 .61.11.842.33.234.216.352.48.352.79 0 .307-.118.57-.352.79a1.187 1.187 0 01-.841.324zm6.944 10.136c-.871 0-1.62-.191-2.244-.574a3.831 3.831 0 01-1.438-1.585c-.333-.678-.5-1.458-.5-2.341 0-.886.17-1.669.512-2.347a3.817 3.817 0 011.443-1.59c.625-.383 1.364-.574 2.216-.574.708 0 1.335.13 1.88.392.55.257.987.623 1.313 1.096.326.47.511 1.02.557 1.648H60.03c-.08-.42-.269-.77-.568-1.051-.296-.284-.692-.426-1.188-.426-.42 0-.79.113-1.108.34-.318.224-.566.546-.744.966-.174.421-.261.925-.261 1.512 0 .595.087 1.106.261 1.534.174.424.419.752.733.983.318.227.691.34 1.12.34.302 0 .573-.056.812-.17a1.64 1.64 0 00.608-.505c.163-.22.274-.487.335-.801h1.966a3.427 3.427 0 01-.546 1.642 3.23 3.23 0 01-1.284 1.113c-.541.265-1.178.398-1.909.398zm9.786-8.898v1.591h-5.017v-1.59h5.017zm-3.779-2.09h2.057v8.192c0 .277.042.49.125.637a.67.67 0 00.341.295c.14.053.295.08.466.08.129 0 .246-.01.352-.029a2.84 2.84 0 00.25-.05l.347 1.607c-.11.038-.267.08-.472.125a3.86 3.86 0 01-.738.08 3.354 3.354 0 01-1.392-.233 2.165 2.165 0 01-.983-.807c-.24-.364-.357-.818-.353-1.364V24.67zm5.499 10.817V26.76h2.057v8.727h-2.057zm1.034-9.965a1.2 1.2 0 01-.84-.324 1.044 1.044 0 01-.353-.79c0-.31.117-.574.352-.79.235-.22.515-.33.841-.33.33 0 .61.11.84.33.236.216.353.48.353.79 0 .307-.117.57-.352.79a1.187 1.187 0 01-.841.324zm6.945 10.136c-.872 0-1.62-.191-2.245-.574A3.832 3.832 0 0174.06 33.5c-.334-.678-.5-1.458-.5-2.341 0-.886.17-1.669.511-2.347a3.817 3.817 0 011.443-1.59c.625-.383 1.364-.574 2.216-.574.709 0 1.335.13 1.88.392.55.257.988.623 1.313 1.096.326.47.512 1.02.557 1.648h-1.966a1.88 1.88 0 00-.568-1.051c-.295-.284-.691-.426-1.187-.426-.42 0-.79.113-1.108.34-.319.224-.567.546-.745.966-.174.421-.261.925-.261 1.512 0 .595.087 1.106.261 1.534.175.424.419.752.733.983.319.227.692.34 1.12.34.303 0 .573-.056.812-.17.243-.117.445-.286.608-.505.163-.22.275-.487.335-.801h1.966a3.427 3.427 0 01-.545 1.642 3.23 3.23 0 01-1.284 1.113c-.542.265-1.178.398-1.91.398z" fill="#1D1E25"/><path d="M258.668 28.03c-.801 0-1.457.656-1.457 1.458 0 .801.656 1.457 1.457 1.457.802 0 1.458-.656 1.458-1.457 0-.802-.656-1.458-1.458-1.458zm10.201 0c-.802 0-1.457.656-1.457 1.458a1.46 1.46 0 001.457 1.457c.801 0 1.457-.656 1.457-1.457 0-.802-.656-1.458-1.457-1.458zm-5.1 0c-.802 0-1.457.656-1.457 1.458a1.46 1.46 0 001.457 1.457c.801 0 1.457-.656 1.457-1.457 0-.802-.656-1.458-1.457-1.458z" fill="#7E8492"/></svg>