<svg width="65" height="10" fill="none" xmlns="http://www.w3.org/2000/svg"><path d="M1.168 9H.172V.434h4.77v.879H1.167v3.14h3.545v.873H1.168V9zM8.85.299c.421 0 .785.074 1.09.222.308.145.544.354.708.627.168.274.252.604.252.99 0 .508-.166.938-.498 1.29a5.251 5.251 0 01-1.254.96l2.38 2.31c.214-.25.39-.54.527-.868a7.43 7.43 0 00.345-1.078h.985c-.125.516-.287.99-.487 1.424a4.354 4.354 0 01-.738 1.142L13.877 9h-1.318l-1.061-1.037c-.25.23-.52.433-.808.61a3.822 3.822 0 01-.956.404c-.347.093-.746.14-1.195.14-.547 0-1.021-.09-1.424-.27a2.099 2.099 0 01-.937-.79c-.219-.348-.328-.774-.328-1.278 0-.414.076-.77.228-1.066.152-.297.37-.56.65-.791a6.94 6.94 0 011.008-.674 12.45 12.45 0 01-.521-.615 3.029 3.029 0 01-.399-.674 2.04 2.04 0 01-.152-.797c0-.39.088-.724.264-1.002.18-.277.431-.49.756-.639C8.012.373 8.4.3 8.85.3zm-.528 4.564a6.67 6.67 0 00-.785.522c-.215.172-.38.365-.498.58-.113.215-.17.474-.17.78 0 .456.154.823.463 1.1.309.274.72.41 1.236.41.532 0 .983-.087 1.354-.263a3.55 3.55 0 00.955-.638l-2.555-2.49zm.492-3.761c-.355 0-.644.093-.867.28-.218.184-.328.442-.328.774 0 .297.08.57.24.82.16.25.389.528.686.833.488-.27.842-.53 1.06-.78.223-.254.334-.55.334-.89a.974.974 0 00-.31-.75c-.203-.192-.475-.287-.815-.287zm6.3-.668h2.425c1.07 0 1.875.16 2.414.48.54.32.809.865.809 1.635 0 .332-.065.63-.194.896a1.67 1.67 0 01-.55.65 2.24 2.24 0 01-.897.358v.059c.375.058.707.166.996.322.29.156.516.375.68.656.164.281.246.639.246 1.072 0 .528-.123.973-.37 1.336a2.251 2.251 0 01-1.03.827c-.446.183-.973.275-1.582.275h-2.948V.434zm.995 3.673h1.641c.746 0 1.262-.123 1.547-.369.289-.246.433-.605.433-1.078 0-.488-.171-.84-.515-1.055-.34-.214-.883-.322-1.63-.322H16.11v2.824zm0 .838V8.15h1.782c.761 0 1.3-.148 1.617-.445.316-.3.474-.705.474-1.213a1.54 1.54 0 00-.216-.832c-.141-.23-.371-.406-.692-.527-.316-.125-.74-.188-1.271-.188h-1.694zm12.076 2.39v-5.23h1.53c.637 0 1.107.128 1.412.386.305.254.457.639.457 1.155 0 .378-.098.68-.293.902a1.693 1.693 0 01-.662.474l1.389 2.315h-.961L29.844 5.25h-.809v2.086h-.85zm.85-2.776h.65c.325 0 .579-.08.762-.24.188-.16.282-.378.282-.651 0-.3-.086-.518-.258-.65-.172-.133-.438-.2-.797-.2h-.639v1.74zm.774 4.558c-.637 0-1.225-.11-1.764-.328a4.258 4.258 0 01-1.4-.92 4.193 4.193 0 01-.92-1.394 4.706 4.706 0 01-.323-1.758c0-.637.11-1.223.328-1.758.22-.54.526-1.006.92-1.4a4.256 4.256 0 011.4-.92A4.63 4.63 0 0129.81.31c.613 0 1.185.11 1.716.334a4.277 4.277 0 011.407.925c.402.395.716.86.943 1.395a4.44 4.44 0 01.34 1.752 4.63 4.63 0 01-.328 1.758 4.177 4.177 0 01-2.326 2.314 4.586 4.586 0 01-1.752.328zm0-.597a3.77 3.77 0 001.459-.282 3.674 3.674 0 001.2-.79 3.767 3.767 0 001.102-2.731c0-.524-.093-1.014-.28-1.47a3.777 3.777 0 00-.78-1.214 3.549 3.549 0 00-1.195-.82 3.728 3.728 0 00-1.506-.299c-.547 0-1.051.094-1.512.281a3.563 3.563 0 00-1.98 2.004 4.06 4.06 0 00-.276 1.518c0 .523.092 1.015.275 1.476.184.457.444.862.78 1.213.34.348.738.621 1.195.82a3.85 3.85 0 001.518.294zM44.123 9H38.51v-.814l2.29-2.327c.427-.43.784-.812 1.073-1.148.293-.336.516-.666.668-.99.152-.328.229-.688.229-1.078 0-.485-.145-.854-.434-1.108-.285-.258-.662-.387-1.13-.387-.411 0-.774.07-1.09.211-.317.141-.641.34-.973.598l-.522-.656c.227-.192.473-.362.738-.51.27-.148.557-.266.862-.352.308-.085.636-.128.984-.128.527 0 .983.091 1.365.275.383.184.678.445.885.785.211.34.317.744.317 1.213 0 .453-.09.875-.27 1.266a5.21 5.21 0 01-.756 1.154 19.12 19.12 0 01-1.137 1.207l-1.863 1.857v.041h4.377V9zm6.914-4.295a9.94 9.94 0 01-.158 1.863c-.106.547-.272 1.01-.498 1.389-.227.379-.52.668-.879.867-.36.196-.791.293-1.295.293-.637 0-1.164-.174-1.582-.521-.414-.348-.725-.85-.932-1.506-.203-.66-.304-1.455-.304-2.385 0-.914.091-1.7.275-2.355.188-.66.488-1.166.902-1.518.414-.355.961-.533 1.641-.533.645 0 1.176.176 1.594.527.418.348.728.852.931 1.512.203.656.305 1.445.305 2.367zm-4.67 0c0 .797.06 1.461.182 1.992.12.532.316.93.586 1.196.273.261.63.392 1.072.392.441 0 .797-.13 1.066-.392.274-.262.471-.659.592-1.19.125-.531.188-1.197.188-1.998 0-.785-.06-1.441-.182-1.969-.121-.53-.316-.93-.586-1.195-.27-.27-.629-.404-1.078-.404-.45 0-.809.134-1.078.404-.27.266-.465.664-.586 1.195-.117.528-.176 1.184-.176 1.97zM57.857 9h-5.613v-.814l2.291-2.327c.426-.43.783-.812 1.072-1.148a4.33 4.33 0 00.668-.99 2.53 2.53 0 00.229-1.078c0-.485-.145-.854-.434-1.108-.285-.258-.662-.387-1.13-.387-.41 0-.774.07-1.09.211-.317.141-.641.34-.973.598l-.522-.656c.227-.192.473-.362.739-.51a3.697 3.697 0 011.846-.48c.527 0 .982.091 1.365.275.383.184.677.445.885.785.21.34.316.744.316 1.213 0 .453-.09.875-.27 1.266-.18.386-.431.771-.755 1.154a19.72 19.72 0 01-1.137 1.207L53.48 8.068v.041h4.377V9zm6.915-4.295a9.85 9.85 0 01-.159 1.863c-.105.547-.271 1.01-.498 1.389-.226.379-.52.668-.879.867-.359.196-.79.293-1.295.293-.636 0-1.164-.174-1.582-.521-.414-.348-.724-.85-.931-1.506-.203-.66-.305-1.455-.305-2.385 0-.914.092-1.7.275-2.355.188-.66.489-1.166.903-1.518.414-.355.96-.533 1.64-.533.645 0 1.176.176 1.594.527.418.348.729.852.932 1.512.203.656.305 1.445.305 2.367zm-4.67 0c0 .797.06 1.461.181 1.992.121.532.317.93.586 1.196.274.261.631.392 1.072.392.442 0 .797-.13 1.067-.392.273-.262.47-.659.592-1.19.125-.531.187-1.197.187-1.998 0-.785-.06-1.441-.181-1.969-.122-.53-.317-.93-.587-1.195-.269-.27-.628-.404-1.078-.404-.449 0-.808.134-1.078.404-.27.266-.465.664-.586 1.195-.117.528-.175 1.184-.175 1.97z" fill="#899D9D"/></svg>