<svg width="214" height="221" fill="none" xmlns="http://www.w3.org/2000/svg"><g filter="url(#filter0_d_256_1138)"><rect width="213.214" height="220.629" rx="8" fill="#fff"/><path d="M29.278 28.502H26.79a2.436 2.436 0 00-.279-.858c-.14-.254-.32-.47-.54-.648a2.376 2.376 0 00-.76-.409 2.912 2.912 0 00-.927-.142c-.602 0-1.127.15-1.574.449-.447.296-.793.727-1.04 1.296-.246.564-.369 1.25-.369 2.056 0 .83.123 1.527.37 2.091.25.565.598.99 1.045 1.279.447.288.964.431 1.551.431.33 0 .634-.043.915-.13a2.42 2.42 0 00.756-.38c.22-.171.401-.378.545-.62.148-.243.25-.52.307-.83l2.488.012a4.642 4.642 0 01-1.511 2.87 4.84 4.84 0 01-1.534.92c-.591.223-1.26.335-2.006.335-1.038 0-1.966-.235-2.784-.705-.814-.47-1.458-1.15-1.932-2.04-.47-.89-.704-1.967-.704-3.233 0-1.269.239-2.348.716-3.238.477-.89 1.125-1.569 1.943-2.034.818-.47 1.738-.705 2.761-.705.674 0 1.3.095 1.875.284.58.19 1.093.466 1.54.83.447.36.81.8 1.091 1.323.284.523.466 1.122.545 1.796zm6.816 3.847v-5.012h2.42v8.728H36.19v-1.586h-.09a2.577 2.577 0 01-.983 1.233c-.455.31-1.01.466-1.665.466-.584 0-1.097-.132-1.54-.398a2.734 2.734 0 01-1.04-1.13c-.246-.489-.371-1.074-.375-1.756v-5.557h2.42v5.125c.004.515.143.923.415 1.222.273.3.639.449 1.097.449.292 0 .564-.067.818-.2a1.55 1.55 0 00.614-.602c.159-.265.236-.592.233-.982zm11.118-2.523l-2.216.136c-.038-.19-.12-.36-.245-.511a1.298 1.298 0 00-.494-.37 1.68 1.68 0 00-.721-.142c-.376 0-.692.08-.95.24-.257.154-.386.363-.386.624 0 .209.084.385.25.528.167.145.453.26.858.347l1.58.318c.848.175 1.48.455 1.898.841.416.387.624.894.624 1.523 0 .572-.168 1.074-.505 1.506-.334.431-.792.769-1.375 1.011-.58.239-1.248.358-2.006.358-1.155 0-2.076-.24-2.761-.722a2.812 2.812 0 01-1.2-1.977l2.382-.125c.072.352.246.621.522.807.277.182.631.273 1.063.273.424 0 .765-.082 1.023-.245.26-.166.394-.38.397-.642a.668.668 0 00-.278-.54c-.182-.143-.462-.253-.841-.329l-1.511-.301c-.853-.17-1.487-.466-1.904-.886-.413-.421-.62-.957-.62-1.608 0-.561.152-1.044.455-1.45.307-.405.737-.717 1.29-.937.557-.22 1.209-.33 1.955-.33 1.102 0 1.97.233 2.602.7.636.465 1.008 1.1 1.114 1.903zm5.865-2.489v1.818H47.82v-1.818h5.256zm-4.063-2.09h2.42v8.136c0 .223.035.397.103.522a.564.564 0 00.284.256c.125.05.269.074.432.074.114 0 .227-.01.34-.029.114-.022.201-.04.262-.05l.38 1.8a6.777 6.777 0 01-.51.131 4.09 4.09 0 01-.802.097c-.583.023-1.094-.055-1.534-.233a2.141 2.141 0 01-1.017-.83c-.242-.375-.362-.848-.358-1.42v-8.455zm8.989 10.988c-.883 0-1.646-.188-2.29-.563a3.849 3.849 0 01-1.483-1.58c-.348-.677-.523-1.463-.523-2.357 0-.902.175-1.69.523-2.364a3.804 3.804 0 011.483-1.58c.644-.378 1.407-.567 2.29-.567.882 0 1.644.189 2.284.568.644.375 1.14.901 1.489 1.58.348.674.522 1.461.522 2.363 0 .894-.174 1.68-.522 2.358a3.838 3.838 0 01-1.49 1.58c-.64.374-1.4.562-2.283.562zm.011-1.875c.402 0 .737-.114 1.006-.341.269-.231.471-.545.608-.943.14-.398.21-.85.21-1.358 0-.508-.07-.96-.21-1.358-.136-.398-.34-.712-.608-.943-.27-.231-.604-.347-1.006-.347-.405 0-.746.116-1.023.347-.272.23-.479.545-.619.943-.136.398-.204.85-.204 1.358 0 .507.068.96.204 1.358.14.398.347.712.62.943.276.227.617.341 1.022.341zm5.358 1.705v-8.728h2.307v1.54h.102c.182-.511.485-.915.91-1.21.424-.296.931-.443 1.522-.443.599 0 1.108.15 1.529.448.42.296.7.697.84 1.205h.091c.178-.5.5-.9.966-1.199.47-.303 1.025-.454 1.665-.454.814 0 1.475.26 1.983.778.511.515.767 1.246.767 2.193v5.87h-2.415v-5.392c0-.485-.129-.849-.386-1.091-.258-.243-.58-.364-.966-.364-.44 0-.782.14-1.029.42-.246.277-.369.642-.369 1.097v5.33h-2.346V30.62c0-.428-.124-.769-.37-1.022-.242-.254-.562-.381-.96-.381-.269 0-.511.068-.727.204-.212.133-.38.32-.506.563a1.788 1.788 0 00-.187.84v5.24h-2.42zm18.071.17c-.897 0-1.67-.182-2.318-.545a3.735 3.735 0 01-1.489-1.557c-.348-.675-.522-1.472-.522-2.392 0-.898.174-1.686.522-2.364a3.863 3.863 0 011.472-1.585c.636-.379 1.382-.568 2.239-.568a4.55 4.55 0 011.608.278c.5.182.935.456 1.306.824.375.367.667.83.875 1.386.209.553.313 1.201.313 1.943v.665h-7.37v-1.5h5.092a1.85 1.85 0 00-.228-.926 1.628 1.628 0 00-.63-.63 1.799 1.799 0 00-.927-.234c-.367 0-.693.086-.977.256-.28.167-.5.392-.659.676-.16.28-.24.593-.244.938v1.426c0 .432.08.805.238 1.12.163.314.392.556.688.727.295.17.646.255 1.051.255.269 0 .515-.038.739-.113.223-.076.414-.19.574-.341.158-.152.28-.337.363-.557l2.239.148a3.057 3.057 0 01-.7 1.409 3.502 3.502 0 01-1.351.931c-.55.22-1.184.33-1.904.33zm5.085-.17v-8.728h2.347v1.523h.09c.16-.542.427-.95.802-1.227.375-.28.807-.42 1.296-.42a3.648 3.648 0 01.76.084v2.148a3.163 3.163 0 00-.47-.09 4.24 4.24 0 00-.552-.04c-.356 0-.674.077-.954.232a1.715 1.715 0 00-.66.637 1.835 1.835 0 00-.238.943v4.938h-2.42zm17.012-7.875a2.59 2.59 0 00-.335-.734 2.077 2.077 0 00-.529-.545 2.258 2.258 0 00-.704-.347 2.988 2.988 0 00-.87-.119c-.594 0-1.117.148-1.568.443-.447.296-.795.726-1.045 1.29-.25.56-.375 1.246-.375 2.057 0 .81.123 1.5.369 2.068.246.568.595 1.002 1.045 1.301.451.296.983.444 1.597.444.557 0 1.032-.099 1.426-.296.398-.2.701-.483.909-.847.212-.363.318-.793.318-1.29l.5.075h-3v-1.853h4.87v1.466c0 1.023-.216 1.902-.648 2.637a4.419 4.419 0 01-1.784 1.693c-.758.394-1.625.59-2.602.59-1.091 0-2.05-.24-2.875-.721-.826-.485-1.47-1.172-1.932-2.063-.459-.893-.688-1.954-.688-3.181 0-.944.137-1.784.41-2.523.276-.742.662-1.371 1.159-1.886a5.007 5.007 0 011.733-1.177 5.615 5.615 0 012.141-.403c.66 0 1.273.097 1.841.29.569.19 1.072.458 1.512.807.443.348.805.763 1.085 1.244.28.477.46 1.004.54 1.58h-2.5zm3.91 7.875v-8.728h2.347v1.523h.091c.159-.542.426-.95.801-1.227.375-.28.807-.42 1.295-.42a3.635 3.635 0 01.762.084v2.148a3.17 3.17 0 00-.472-.09 4.236 4.236 0 00-.551-.04 1.94 1.94 0 00-.955.232 1.72 1.72 0 00-.659.637 1.838 1.838 0 00-.238.943v4.938h-2.421zm9.584.17c-.882 0-1.646-.188-2.29-.563a3.854 3.854 0 01-1.483-1.58c-.348-.677-.522-1.463-.522-2.357 0-.902.174-1.69.522-2.364a3.808 3.808 0 011.483-1.58c.644-.378 1.408-.567 2.29-.567.883 0 1.644.189 2.284.568.644.375 1.14.901 1.489 1.58.348.674.523 1.461.523 2.363 0 .894-.175 1.68-.523 2.358a3.842 3.842 0 01-1.489 1.58c-.64.374-1.401.562-2.284.562zm.011-1.875c.402 0 .737-.114 1.006-.341.269-.231.472-.545.608-.943.14-.398.21-.85.21-1.358 0-.508-.07-.96-.21-1.358-.136-.398-.339-.712-.608-.943-.269-.231-.604-.347-1.006-.347-.405 0-.746.116-1.022.347-.273.23-.479.545-.62.943-.136.398-.204.85-.204 1.358 0 .507.068.96.204 1.358.141.398.347.712.62.943.276.227.617.341 1.022.341zm6.861 1.705l-2.375-8.728h2.449l1.352 5.864h.08l1.409-5.864h2.403l1.432 5.83h.074l1.33-5.83h2.443l-2.369 8.728h-2.563l-1.5-5.49h-.108l-1.5 5.49h-2.557zm16.03-8.728v1.818h-5.256v-1.818h5.256zm-4.062-2.09h2.42v8.136c0 .223.034.397.102.522a.564.564 0 00.284.256c.125.05.269.074.432.074.114 0 .227-.01.341-.029.114-.022.201-.04.261-.05l.381 1.8a6.695 6.695 0 01-.511.131c-.22.053-.487.085-.801.097-.584.023-1.095-.055-1.534-.233a2.138 2.138 0 01-1.017-.83c-.243-.375-.362-.848-.358-1.42v-8.455zm7.747 5.772v5.046H141.2V24.428h2.353v4.449h.102c.197-.515.515-.919.954-1.21.44-.296.991-.443 1.654-.443.606 0 1.134.132 1.585.397a2.66 2.66 0 011.057 1.131c.254.489.379 1.074.375 1.756v5.557h-2.421V30.94c.004-.538-.132-.957-.409-1.256-.272-.3-.655-.449-1.147-.449-.33 0-.622.07-.875.21a1.49 1.49 0 00-.591.614c-.141.265-.212.585-.216.96z" fill="#1D1E25"/><path stroke="#E6E9ED" stroke-dasharray="2 2" d="M46.702 69.773h143m-143 52h143m-143 55h143"/><path d="M55.25 191.486h1.057v6.239c0 .557-.102 1.03-.306 1.419a2.081 2.081 0 01-.866.886c-.372.202-.81.303-1.316.303a2.99 2.99 0 01-1.275-.26 2.098 2.098 0 01-.877-.75c-.213-.324-.32-.709-.32-1.155h1.04c0 .247.06.463.183.648.125.182.295.324.511.426.216.102.462.154.738.154.304 0 .562-.064.775-.192.213-.128.375-.316.486-.563.114-.25.17-.555.17-.916v-6.239zm4.965 8.881c-.415 0-.791-.078-1.13-.234a1.94 1.94 0 01-.805-.686c-.199-.301-.298-.665-.298-1.091 0-.375.074-.679.222-.912.147-.236.345-.421.592-.554.247-.134.52-.233.818-.298.301-.069.604-.123.908-.162.398-.052.72-.09.967-.115.25-.029.432-.076.546-.141.116-.065.174-.179.174-.341v-.034c0-.421-.115-.747-.345-.98-.227-.233-.572-.35-1.035-.35-.48 0-.857.105-1.13.316-.272.21-.464.434-.575.673l-.955-.341c.171-.398.398-.707.682-.929.287-.224.6-.381.938-.469a3.88 3.88 0 011.005-.136 4 4 0 01.725.077c.276.048.541.149.797.302.258.154.473.385.643.695.17.31.256.724.256 1.244v4.313h-1.006v-.887h-.05a1.77 1.77 0 01-.342.456c-.159.162-.37.3-.635.414-.264.113-.586.17-.967.17zm.153-.903c.398 0 .733-.078 1.006-.235a1.595 1.595 0 00.835-1.385v-.92c-.042.051-.136.098-.281.141a4.89 4.89 0 01-.494.106 26.639 26.639 0 01-.963.128 3.814 3.814 0 00-.733.166 1.261 1.261 0 00-.546.337c-.136.147-.204.349-.204.605 0 .349.129.614.388.792.26.177.592.265.992.265zm5.688-3.188v3.938h-1.005v-6.546h.971v1.023h.085c.154-.332.387-.599.7-.801.312-.205.715-.307 1.21-.307.443 0 .83.091 1.163.273.332.179.59.451.775.818.185.364.277.824.277 1.381v4.159h-1.005v-4.091c0-.514-.134-.915-.4-1.202-.268-.29-.634-.435-1.1-.435-.321 0-.608.07-.861.209-.25.139-.448.343-.593.61-.144.267-.217.591-.217.971z" fill="#808D9E"/><path opacity=".7" d="M18.73 64.814v-1.04h2.08v7.29h-1.15v-6.25h-.93zm3.646 2.51c0-1.153.194-2.053.58-2.7.394-.653 1.067-.98 2.02-.98.954 0 1.624.327 2.01.98.394.647.59 1.547.59 2.7 0 1.167-.196 2.08-.59 2.74-.386.654-1.056.98-2.01.98-.953 0-1.626-.326-2.02-.98-.386-.66-.58-1.573-.58-2.74zm4.08 0c0-.54-.036-.996-.11-1.37-.066-.373-.206-.676-.42-.91-.213-.24-.53-.36-.95-.36-.42 0-.736.12-.95.36-.213.234-.356.537-.43.91-.066.374-.1.83-.1 1.37 0 .56.034 1.03.1 1.41.067.38.207.687.42.92.22.234.54.35.96.35.42 0 .737-.116.95-.35.22-.233.364-.54.43-.92.067-.38.1-.85.1-1.41zm4.657.99l2.54 2.75h-1.54l-2.04-2.37v2.37h-1.14v-7.4h1.14v4.3l2-2.41h1.58l-2.54 2.76zm-5.775 50.44h-3.35v1.99c.14-.186.347-.343.62-.47.28-.126.577-.19.89-.19.56 0 1.013.12 1.36.36.353.24.603.544.75.91.153.367.23.754.23 1.16 0 .494-.097.934-.29 1.32-.187.38-.47.68-.85.9-.373.22-.833.33-1.38.33-.727 0-1.31-.18-1.75-.54-.44-.36-.703-.836-.79-1.43h1.11c.073.314.237.564.49.75.253.18.57.27.95.27.473 0 .827-.143 1.06-.43.24-.286.36-.666.36-1.14 0-.48-.12-.846-.36-1.1-.24-.26-.593-.39-1.06-.39-.327 0-.603.084-.83.25-.22.16-.38.38-.48.66h-1.08v-4.21h4.4v1zm4.017 3.56l2.54 2.75h-1.54l-2.04-2.37v2.37h-1.14v-7.4h1.14v4.3l2-2.41h1.58l-2.54 2.76zm-5.958 53.01c0-1.153.193-2.053.58-2.7.393-.653 1.067-.98 2.02-.98.953 0 1.623.327 2.01.98.393.647.59 1.547.59 2.7 0 1.167-.197 2.08-.59 2.74-.387.654-1.057.98-2.01.98-.953 0-1.627-.326-2.02-.98-.387-.66-.58-1.573-.58-2.74zm4.08 0c0-.54-.037-.996-.11-1.37-.067-.373-.207-.676-.42-.91-.213-.24-.53-.36-.95-.36-.42 0-.737.12-.95.36-.213.234-.357.537-.43.91-.067.374-.1.83-.1 1.37 0 .56.033 1.03.1 1.41.066.38.206.687.42.92.22.234.54.35.96.35.42 0 .736-.116.95-.35.22-.233.363-.54.43-.92s.1-.85.1-1.41z" fill="#1D1E25"/><path d="M164.619 191.486h1.261l2.966 7.245h.102l2.966-7.245h1.261v8.728h-.988v-6.631h-.085l-2.728 6.631h-.954l-2.728-6.631h-.085v6.631h-.988v-8.728zm12.465 8.881c-.415 0-.791-.078-1.129-.234a1.942 1.942 0 01-.806-.686c-.198-.301-.298-.665-.298-1.091 0-.375.074-.679.222-.912.147-.236.345-.421.592-.554.247-.134.52-.233.818-.298.301-.069.604-.123.908-.162.398-.052.72-.09.967-.115.25-.029.432-.076.546-.141.116-.065.174-.179.174-.341v-.034c0-.421-.115-.747-.345-.98-.227-.233-.572-.35-1.035-.35-.48 0-.857.105-1.13.316-.272.21-.464.434-.575.673l-.954-.341c.17-.398.397-.707.681-.929.287-.224.6-.381.938-.469a3.888 3.888 0 011.006-.136 4 4 0 01.724.077c.276.048.541.149.797.302.258.154.473.385.643.695.171.31.256.724.256 1.244v4.313h-1.006v-.887h-.051a1.77 1.77 0 01-.341.456c-.159.162-.37.3-.635.414-.264.113-.586.17-.967.17zm.154-.903c.397 0 .732-.078 1.005-.235a1.59 1.59 0 00.835-1.385v-.92c-.042.051-.136.098-.281.141a4.913 4.913 0 01-.494.106 27.03 27.03 0 01-.963.128 3.798 3.798 0 00-.733.166 1.265 1.265 0 00-.546.337c-.136.147-.204.349-.204.605 0 .349.129.614.388.792.261.177.592.265.993.265zm4.682.75v-6.546h.971v.989h.068c.12-.324.336-.587.648-.788a1.906 1.906 0 011.057-.303c.074 0 .166.001.277.004.111.003.195.007.251.013v1.023a2.633 2.633 0 00-.234-.039 2.409 2.409 0 00-.379-.029c-.318 0-.602.066-.852.2a1.51 1.51 0 00-.589.545c-.142.23-.213.493-.213.789v4.142h-1.005zm-73.301 0v-8.728h5.233v.938h-4.176v2.949h3.784v.937h-3.784v3.904h-1.057zm9.171.136c-.631 0-1.175-.139-1.633-.418a2.802 2.802 0 01-1.052-1.176c-.244-.505-.367-1.093-.367-1.764 0-.67.123-1.261.367-1.773a2.891 2.891 0 011.031-1.201c.443-.29.96-.435 1.551-.435.341 0 .678.057 1.01.17.333.114.635.299.908.554.273.253.49.589.652 1.006.162.418.243.932.243 1.543v.426h-5.046v-.869h4.023c0-.37-.074-.699-.222-.989a1.657 1.657 0 00-.622-.686 1.738 1.738 0 00-.946-.252c-.4 0-.747.1-1.039.299-.29.196-.513.451-.67.767a2.254 2.254 0 00-.234 1.014v.58c0 .494.085.913.256 1.257.173.341.413.6.72.779.307.177.663.265 1.07.265.264 0 .502-.037.715-.111a1.54 1.54 0 00.559-.341c.156-.153.277-.344.362-.571l.972.273a2.171 2.171 0 01-.516.869c-.242.247-.54.44-.895.58a3.325 3.325 0 01-1.197.204zm4.376-.136v-8.728h1.006v3.222h.085c.074-.114.176-.259.307-.435a1.79 1.79 0 01.571-.477c.25-.142.588-.213 1.014-.213.551 0 1.037.138 1.457.413.421.276.749.667.985 1.172.236.506.353 1.103.353 1.79 0 .693-.117 1.294-.353 1.803-.236.505-.563.897-.98 1.176a2.57 2.57 0 01-1.445.413c-.42 0-.757-.07-1.01-.209a1.876 1.876 0 01-.584-.481 6.722 6.722 0 01-.315-.452h-.119v1.006h-.972zm.989-3.273c0 .494.072.93.217 1.308.145.375.356.669.635.882.278.211.619.316 1.023.316.42 0 .771-.111 1.052-.333.284-.224.497-.525.639-.903.145-.381.218-.804.218-1.27 0-.46-.071-.875-.213-1.244a1.92 1.92 0 00-.635-.882c-.282-.219-.635-.329-1.061-.329-.409 0-.753.104-1.032.312a1.865 1.865 0 00-.63.86c-.142.367-.213.794-.213 1.283z" fill="#808D9E"/><rect x="54.75" y="74.564" width="15" height="52.535" rx="7.5" fill="#EB6E46" stroke="#fff" stroke-width="3"/><rect x="54.75" y="89.361" width="15" height="52.535" rx="7.5" fill="#20BFF7" stroke="#fff" stroke-width="3"/><rect x="54.75" y="126.673" width="15" height="52.535" rx="7.5" fill="#2280FF" stroke="#fff" stroke-width="3"/><rect x="110.75" y="108.66" width="15" height="35.292" rx="7.5" fill="#EB6E46" stroke="#fff" stroke-width="3"/><rect x="110.75" y="133.106" width="15" height="35.292" rx="7.5" fill="#20BFF7" stroke="#fff" stroke-width="3"/><rect x="110.75" y="158.839" width="15" height="20.369" rx="7.5" fill="#2280FF" stroke="#fff" stroke-width="3"/><rect x="166.75" y="113.163" width="15" height="33.724" rx="7.5" fill="#EB6E46" stroke="#fff" stroke-width="3"/><rect x="166.75" y="122.341" width="15" height="33.724" rx="7.5" fill="#20BFF7" stroke="#fff" stroke-width="3"/><rect x="166.75" y="145.485" width="15" height="33.724" rx="7.5" fill="#2280FF" stroke="#fff" stroke-width="3"/></g><defs><filter id="filter0_d_256_1138" x="-60" y="-40" width="373.213" height="380.629" filterUnits="userSpaceOnUse" color-interpolation-filters="sRGB"><feFlood flood-opacity="0" result="BackgroundImageFix"/><feColorMatrix in="SourceAlpha" values="0 0 0 0 0 0 0 0 0 0 0 0 0 0 0 0 0 0 127 0" result="hardAlpha"/><feOffset dx="20" dy="40"/><feGaussianBlur stdDeviation="40"/><feComposite in2="hardAlpha" operator="out"/><feColorMatrix values="0 0 0 0 0.178125 0 0 0 0 0.200292 0 0 0 0 0.316667 0 0 0 0.12 0"/><feBlend mode="multiply" in2="BackgroundImageFix" result="effect1_dropShadow_256_1138"/><feBlend in="SourceGraphic" in2="effect1_dropShadow_256_1138" result="shape"/></filter></defs></svg>