<svg width="420" height="347" fill="none" xmlns="http://www.w3.org/2000/svg"><g filter="url(#filter0_d_256_1038)"><rect x=".096" width="419" height="346" rx="8" transform="rotate(.016 .096 0)" fill="#fff"/><path d="M29.242 31.646c-.057-.573-.3-1.018-.731-1.336-.431-.317-1.016-.476-1.755-.476-.501 0-.925.07-1.27.213-.347.137-.612.329-.797.575-.18.246-.27.525-.27.838-.01.26.045.488.163.682.124.194.292.362.505.504.213.137.459.258.738.362.28.1.578.185.895.256l1.307.313a9.213 9.213 0 011.747.569c.53.237.99.528 1.377.874.389.346.69.753.902 1.222.218.469.329 1.006.333 1.612-.005.89-.232 1.662-.682 2.315-.445.649-1.09 1.153-1.932 1.513-.838.354-1.85.532-3.033.531-1.174 0-2.197-.18-3.068-.54-.867-.36-1.543-.893-2.031-1.599-.483-.71-.736-1.589-.76-2.635h2.977c.033.489.172.896.418 1.222.251.322.585.566 1.002.732.42.161.897.242 1.427.242.52 0 .973-.075 1.357-.227.388-.151.689-.362.902-.632.213-.27.32-.58.32-.93a1.21 1.21 0 00-.291-.824c-.19-.222-.469-.412-.838-.568a8.516 8.516 0 00-1.342-.427l-1.584-.398c-1.226-.298-2.195-.765-2.905-1.4-.71-.635-1.062-1.49-1.057-2.564-.005-.88.23-1.65.704-2.308.478-.658 1.134-1.172 1.967-1.54.834-.37 1.78-.554 2.841-.554 1.08 0 2.022.185 2.827.555.81.37 1.44.883 1.889 1.541.45.659.681 1.421.695 2.288l-2.947-.001zm7.766 10.57c-.696 0-1.317-.12-1.861-.363a2.995 2.995 0 01-1.292-1.087c-.313-.483-.469-1.084-.469-1.804 0-.606.112-1.115.335-1.527a2.7 2.7 0 01.909-.994c.384-.25.82-.44 1.307-.568a9.957 9.957 0 011.548-.269 38.994 38.994 0 001.535-.184c.388-.062.67-.151.845-.27.175-.118.263-.293.263-.525v-.043c0-.45-.142-.798-.426-1.044-.28-.246-.677-.37-1.193-.37-.545 0-.978.12-1.3.362a1.667 1.667 0 00-.64.895l-2.798-.228a3.803 3.803 0 01.839-1.719c.417-.487.954-.861 1.612-1.121.663-.265 1.43-.398 2.302-.398.606 0 1.186.072 1.74.214a4.553 4.553 0 011.484.66c.435.3.778.683 1.03 1.152.25.464.375 1.02.375 1.669l-.002 7.358h-2.87l.001-1.514h-.085a3.08 3.08 0 01-.703.902 3.254 3.254 0 01-1.059.604 4.404 4.404 0 01-1.427.212zm.867-2.088c.445 0 .838-.087 1.179-.262.34-.18.608-.421.802-.724.195-.303.292-.647.292-1.03v-1.158a1.616 1.616 0 01-.39.17 7.14 7.14 0 01-.547.135c-.204.038-.407.074-.611.107l-.554.078a3.745 3.745 0 00-.93.248 1.489 1.489 0 00-.619.462c-.146.189-.22.426-.22.71 0 .412.149.727.447.944.303.214.687.32 1.15.32zm10.153-12.66l-.004 14.545h-3.026l.005-14.546h3.025zm6.891 14.76c-1.122 0-2.088-.228-2.897-.682a4.67 4.67 0 01-1.86-1.947c-.436-.843-.654-1.84-.653-2.99 0-1.122.218-2.107.654-2.955a4.83 4.83 0 011.84-1.98c.796-.474 1.728-.71 2.799-.71.72 0 1.39.116 2.01.349a4.46 4.46 0 011.633 1.03c.468.46.833 1.037 1.093 1.733.26.691.39 1.501.39 2.43v.83l-9.212-.002v-1.875l6.364.001a2.31 2.31 0 00-.284-1.157 2.026 2.026 0 00-.788-.789 2.248 2.248 0 00-1.157-.292c-.46 0-.867.107-1.222.32-.35.208-.625.49-.824.845-.199.35-.3.74-.306 1.172v1.782c0 .54.099 1.006.298 1.4.203.392.49.696.859.909.369.213.807.32 1.314.32.336 0 .644-.047.923-.142a1.92 1.92 0 00.717-.426c.2-.19.35-.421.455-.696l2.798.185a3.82 3.82 0 01-.874 1.762c-.435.497-.999.885-1.69 1.164-.687.274-1.48.411-2.38.411zm15.56-8.007l-2.77.17a1.433 1.433 0 00-.305-.64 1.622 1.622 0 00-.617-.461 2.1 2.1 0 00-.902-.178c-.469 0-.864.1-1.186.298-.322.194-.483.454-.483.781 0 .26.104.48.312.66.208.18.566.325 1.072.434l1.975.398c1.06.218 1.85.57 2.371 1.052.521.483.781 1.118.781 1.904a2.97 2.97 0 01-.633 1.882c-.416.54-.99.96-1.719 1.264-.724.298-1.56.447-2.507.446-1.444 0-2.594-.301-3.451-.903-.852-.606-1.352-1.43-1.498-2.472l2.976-.155c.09.44.307.776.653 1.009.345.227.788.34 1.328.34.53.001.956-.1 1.278-.304.327-.209.493-.476.498-.803a.835.835 0 00-.348-.674c-.227-.18-.578-.318-1.051-.413l-1.89-.377c-1.065-.213-1.858-.582-2.378-1.108-.516-.526-.774-1.196-.774-2.01 0-.701.19-1.305.569-1.811.383-.507.921-.897 1.612-1.172.696-.274 1.51-.411 2.444-.411 1.377 0 2.462.292 3.252.875.796.582 1.26 1.375 1.392 2.38zm5.838 7.8l.004-14.545 5.739.001c1.098 0 2.036.197 2.812.59.781.389 1.375.94 1.782 1.656.412.71.618 1.546.617 2.507 0 .966-.208 1.797-.625 2.493-.417.69-1.02 1.221-1.812 1.59-.786.37-1.738.554-2.855.553h-3.842v-2.472h3.346c.587 0 1.074-.08 1.463-.24.388-.161.677-.403.866-.725.195-.322.292-.722.292-1.2 0-.483-.097-.89-.291-1.221-.19-.332-.48-.583-.873-.754-.389-.175-.879-.263-1.47-.263h-2.074l-.004 12.03h-3.075zm7.857-6.617l3.613 6.62h-3.395l-3.535-6.621h3.317zm9.507 6.835c-1.122 0-2.088-.228-2.898-.683a4.67 4.67 0 01-1.86-1.946c-.435-.843-.653-1.84-.652-2.99 0-1.123.218-2.107.654-2.955a4.83 4.83 0 011.84-1.98c.795-.474 1.728-.71 2.798-.71.72 0 1.39.116 2.01.348a4.46 4.46 0 011.633 1.03c.469.46.834 1.038 1.094 1.734.26.691.39 1.5.39 2.429v.83l-9.212-.002V35.47l6.364.002c0-.436-.094-.821-.284-1.158a2.037 2.037 0 00-.788-.788 2.248 2.248 0 00-1.158-.292c-.459 0-.866.107-1.221.32-.35.208-.625.49-.824.844-.2.35-.301.741-.306 1.172v1.783c0 .54.099 1.006.297 1.4.204.392.49.695.86.908.369.214.807.32 1.313.32.337 0 .644-.047.924-.141.279-.095.518-.237.717-.426.199-.19.35-.422.455-.696l2.798.185a3.821 3.821 0 01-.874 1.761c-.436.497-1 .886-1.69 1.165-.687.274-1.48.411-2.38.41zm6.48 3.88l.005-15h2.983l-.001 1.833h.135a4.01 4.01 0 01.575-.895 3.04 3.04 0 01.995-.767c.412-.208.923-.312 1.534-.312a4.1 4.1 0 012.202.626c.672.412 1.209 1.035 1.611 1.868.403.829.604 1.868.603 3.118 0 1.217-.197 2.244-.59 3.082-.389.834-.919 1.466-1.592 1.896a4.079 4.079 0 01-2.244.639c-.587 0-1.087-.098-1.499-.292a3.107 3.107 0 01-1.001-.731c-.26-.299-.459-.6-.596-.903h-.092l-.002 5.838h-3.026zm2.965-9.545c0 .649.089 1.214.269 1.697.18.483.44.86.781 1.13.341.265.755.398 1.243.398.492 0 .909-.135 1.25-.404.341-.275.599-.654.774-1.137.18-.487.271-1.048.271-1.683 0-.63-.087-1.184-.263-1.662-.175-.478-.433-.852-.773-1.122-.341-.27-.76-.405-1.257-.405-.493 0-.91.13-1.25.39-.337.26-.595.63-.775 1.108-.18.478-.27 1.041-.27 1.69zm14.122 5.671c-1.103 0-2.058-.234-2.862-.703a4.81 4.81 0 01-1.853-1.975c-.436-.848-.653-1.83-.653-2.948 0-1.127.218-2.112.654-2.954a4.758 4.758 0 011.854-1.974c.805-.474 1.76-.71 2.863-.71s2.055.237 2.855.711a4.737 4.737 0 011.86 1.975c.435.843.653 1.828.653 2.955-.001 1.117-.219 2.1-.655 2.947a4.793 4.793 0 01-1.861 1.974c-.8.469-1.752.703-2.855.702zm.015-2.343c.501 0 .921-.142 1.257-.426.336-.289.589-.682.76-1.179.175-.497.263-1.063.263-1.697 0-.635-.087-1.2-.262-1.698-.17-.497-.424-.89-.76-1.179-.336-.289-.755-.433-1.257-.434-.506 0-.932.145-1.278.433-.341.29-.599.682-.775 1.18-.17.496-.256 1.062-.256 1.697 0 .634.085 1.2.255 1.697.176.497.433.89.774 1.18.346.283.772.425 1.279.426zm6.821 2.132l.003-10.909 2.934.001-.001 1.903h.114c.199-.677.533-1.188 1.002-1.533a2.628 2.628 0 011.619-.525 4.551 4.551 0 01.952.106l-.001 2.685a3.947 3.947 0 00-.589-.114 5.312 5.312 0 00-.689-.05c-.445 0-.843.097-1.194.291a2.15 2.15 0 00-.824.795 2.297 2.297 0 00-.298 1.18l-.002 6.171h-3.026zM138.12 31.13v2.273l-6.57-.002.001-2.273 6.569.002zm-5.077-2.615h3.026l-.003 10.171c0 .28.042.497.127.654a.708.708 0 00.356.32c.156.061.336.092.539.092.142 0 .284-.012.426-.035.142-.029.251-.05.327-.064l.475 2.251a8.4 8.4 0 01-.639.163 5.125 5.125 0 01-1.001.12c-.73.03-1.369-.068-1.918-.29a2.679 2.679 0 01-1.271-1.038c-.303-.469-.452-1.06-.447-1.776l.003-10.568z" fill="#1D1E25"/><g clip-path="url(#clip0_256_1038)"><mask id="a" style="mask-type:luminance" maskUnits="userSpaceOnUse" x="25" y="74" width="369" height="261"><path transform="rotate(.016 25.965 74.007)" fill="#fff" d="M25.965 74.007h367.22v260H25.965z"/></mask><g mask="url(#a)"><g clip-path="url(#clip1_256_1038)"><path d="M362.767 315.736c0 .921-.167 1.716-.499 2.387-.333.67-.789 1.187-1.369 1.55-.579.364-1.241.546-1.986.545-.744 0-1.406-.182-1.985-.546-.58-.363-1.036-.881-1.368-1.551-.332-.671-.498-1.466-.498-2.387.001-.92.167-1.715.5-2.386.332-.67.788-1.187 1.368-1.551.58-.363 1.242-.545 1.986-.545.744.001 1.406.183 1.985.546.58.364 1.036.881 1.368 1.552.332.671.498 1.466.498 2.386zm-1.023 0c0-.755-.126-1.393-.379-1.913-.249-.52-.589-.914-1.018-1.181a2.64 2.64 0 00-1.431-.401c-.529 0-1.008.133-1.437.4-.426.267-.765.661-1.018 1.18-.251.52-.376 1.158-.376 1.914 0 .755.125 1.393.375 1.913.252.52.592.914 1.018 1.181.429.267.907.401 1.436.401.528 0 1.005-.133 1.432-.4.429-.267.768-.661 1.018-1.181.253-.519.38-1.157.38-1.913zm5.321 4.502c-.613 0-1.142-.146-1.585-.435a2.834 2.834 0 01-1.022-1.198c-.239-.509-.358-1.09-.358-1.743.001-.665.123-1.252.367-1.76a2.9 2.9 0 011.032-1.197c.443-.29.96-.435 1.551-.434.46 0 .875.085 1.244.256.37.17.672.409.908.716s.382.665.439 1.074h-1.006a1.56 1.56 0 00-.511-.793c-.262-.233-.614-.35-1.057-.35-.392 0-.736.102-1.031.307a1.995 1.995 0 00-.687.856c-.162.366-.243.797-.243 1.291 0 .506.079.946.238 1.321.162.375.389.666.682.874.295.207.642.311 1.04.311.261 0 .498-.045.711-.136.213-.091.394-.221.542-.392.147-.17.253-.375.315-.613h1.006a2.34 2.34 0 01-.422 1.044 2.36 2.36 0 01-.883.733c-.363.178-.787.268-1.27.268zm6.893-6.68v.852l-3.392-.001v-.852l3.392.001zm-2.403-1.569h1.006l-.002 6.239c0 .284.041.497.123.639a.637.637 0 00.324.281c.134.046.274.069.422.069.111 0 .202-.006.273-.017l.17-.034.204.903a2.133 2.133 0 01-.75.119c-.284 0-.562-.061-.835-.183a1.658 1.658 0 01-.673-.559c-.176-.25-.264-.565-.264-.946l.002-6.511z" fill="#808D9E"/><path fill-rule="evenodd" clip-rule="evenodd" d="M363.842 303.1l.05-183 1.22.001-.05 183-1.22-.001z" fill="#E9ECF2"/></g><g clip-path="url(#clip2_256_1038)"><path d="M306.844 313.539a1.337 1.337 0 00-.622-1.006c-.364-.238-.81-.358-1.338-.358-.386 0-.724.062-1.014.187a1.62 1.62 0 00-.674.516 1.24 1.24 0 00-.239.745c0 .233.056.434.166.601.114.165.259.303.435.414.176.108.361.197.554.268.193.069.371.124.533.167l.886.239c.227.059.48.142.758.247.282.105.55.249.806.431.258.179.471.409.639.69.167.281.251.627.251 1.036a2.3 2.3 0 01-.371 1.278c-.245.381-.603.683-1.074.907-.469.225-1.039.337-1.709.337-.625-.001-1.167-.102-1.624-.303a2.604 2.604 0 01-1.074-.844 2.412 2.412 0 01-.438-1.258l1.091.001c.028.329.139.602.332.818a1.8 1.8 0 00.741.477c.301.103.625.154.972.154.403 0 .766-.065 1.087-.196a1.87 1.87 0 00.763-.553c.187-.239.281-.517.281-.836 0-.289-.081-.525-.243-.707a1.774 1.774 0 00-.639-.443 6.598 6.598 0 00-.856-.299l-1.074-.307c-.682-.196-1.221-.476-1.619-.84-.398-.364-.596-.84-.596-1.428 0-.488.132-.914.396-1.278a2.65 2.65 0 011.074-.852 3.624 3.624 0 011.513-.306c.563 0 1.063.101 1.5.303a2.59 2.59 0 011.04.818c.258.347.394.74.409 1.181l-1.023-.001zm5.486 6.684c-.631-.001-1.175-.14-1.632-.418a2.806 2.806 0 01-1.053-1.177c-.244-.506-.366-1.094-.366-1.764.001-.671.123-1.262.367-1.773a2.894 2.894 0 011.032-1.201c.443-.29.96-.435 1.551-.434.341 0 .678.057 1.01.17.332.114.635.299.908.554.272.253.489.589.651 1.006.162.418.243.932.243 1.543v.426l-5.046-.001v-.87l4.023.002c0-.37-.074-.699-.221-.989a1.664 1.664 0 00-.622-.686 1.738 1.738 0 00-.946-.252c-.401 0-.747.099-1.04.298-.29.196-.513.451-.669.767a2.242 2.242 0 00-.235 1.014v.579c0 .495.085.914.255 1.258.174.341.414.601.72.78.307.176.664.264 1.07.264a2.2 2.2 0 00.716-.11 1.54 1.54 0 00.558-.341c.156-.154.277-.344.362-.571l.972.273a2.149 2.149 0 01-.516.869c-.241.247-.54.44-.895.579a3.303 3.303 0 01-1.197.205zm4.239 2.319l.002-9h.972v1.04h.119c.074-.114.176-.258.307-.435.134-.179.324-.338.571-.477.25-.142.588-.213 1.014-.212.552 0 1.037.138 1.458.413.42.276.748.667.984 1.172.235.506.353 1.103.353 1.79 0 .693-.118 1.294-.354 1.803-.236.505-.563.897-.981 1.176a2.565 2.565 0 01-1.444.413c-.421-.001-.757-.07-1.01-.21a1.865 1.865 0 01-.584-.481 6.722 6.722 0 01-.315-.452h-.085l-.001 3.46h-1.006zm.99-5.727c0 .494.072.93.217 1.308.145.375.357.669.635.883.278.21.619.315 1.023.315.42 0 .771-.11 1.052-.332.284-.224.497-.525.64-.903.145-.381.217-.804.217-1.27 0-.46-.07-.875-.212-1.244a1.928 1.928 0 00-.635-.883c-.281-.219-.635-.328-1.061-.328-.409 0-.753.103-1.031.311a1.86 1.86 0 00-.631.86c-.143.367-.214.794-.214 1.283z" fill="#808D9E"/><path fill-rule="evenodd" clip-rule="evenodd" d="M311.382 303.086l.05-183h1.22l-.05 183h-1.22z" fill="#E9ECF2"/></g><g clip-path="url(#clip3_256_1038)"><path d="M247.915 320.068h-1.108l3.207-8.726h1.091l3.202 8.728h-1.108l-2.606-7.347h-.068l-2.61 7.345zm.41-3.409l4.466.002-.001.937-4.466-.001.001-.938zm11.33.737l.002-3.87h1.005l-.002 6.546h-1.005v-1.108h-.068a2.154 2.154 0 01-.716.848c-.324.23-.733.344-1.228.344-.409 0-.772-.089-1.09-.268a1.87 1.87 0 01-.75-.819c-.182-.366-.273-.828-.273-1.385l.002-4.159h1.005l-.001 4.091c0 .478.133.858.4 1.142.27.285.614.427 1.031.427.25 0 .505-.064.763-.192.262-.127.481-.323.657-.588.179-.264.268-.6.268-1.009zm5.489 5.268c-.486 0-.904-.063-1.253-.188a2.642 2.642 0 01-1.423-1.125l.801-.562c.091.119.206.255.345.409.139.156.33.291.571.405.245.116.564.175.959.175.528 0 .965-.128 1.308-.383.344-.256.516-.657.516-1.202l.001-1.33h-.086c-.073.12-.179.267-.315.444a1.792 1.792 0 01-.58.464c-.25.133-.588.2-1.014.2a2.721 2.721 0 01-1.423-.376 2.622 2.622 0 01-.993-1.091c-.241-.477-.362-1.057-.361-1.738 0-.671.118-1.255.354-1.752.236-.5.564-.886.984-1.159a2.606 2.606 0 011.458-.413c.426.001.764.072 1.014.214.253.139.446.298.579.477.137.176.242.321.316.435h.102v-1.04l.972.001-.002 6.732c0 .563-.128 1.02-.384 1.373a2.186 2.186 0 01-1.023.779 3.851 3.851 0 01-1.423.251zm-.033-3.597c.403.001.744-.092 1.022-.276.279-.185.491-.45.636-.797.145-.346.217-.761.217-1.244 0-.472-.07-.888-.212-1.249a1.878 1.878 0 00-.631-.848c-.278-.205-.622-.307-1.031-.307-.426 0-.781.108-1.065.323a1.968 1.968 0 00-.636.87 3.362 3.362 0 00-.209 1.21c0 .454.071.856.213 1.206.145.346.358.619.639.818.284.196.636.294 1.057.294z" fill="#808D9E"/><path fill-rule="evenodd" clip-rule="evenodd" d="M256.482 303.071l.051-183h1.22l-.051 183h-1.22z" fill="#E9ECF2"/></g><g clip-path="url(#clip4_256_1038)"><path d="M201.469 311.328l1.057.001-.001 6.238c-.001.557-.103 1.03-.308 1.419a2.079 2.079 0 01-.865.886c-.372.202-.811.303-1.317.303a2.99 2.99 0 01-1.274-.261 2.097 2.097 0 01-.877-.75c-.213-.324-.32-.709-.32-1.155h1.04c0 .248.061.463.183.648.125.182.295.324.511.426.216.103.462.154.737.154.304 0 .563-.064.776-.192a1.21 1.21 0 00.486-.562c.114-.25.171-.555.171-.916l.001-6.239zm7.162 6.053l.001-3.869h1.006l-.002 6.546h-1.006l.001-1.108h-.068a2.147 2.147 0 01-.717.847c-.324.23-.733.345-1.227.345-.409 0-.773-.089-1.091-.269a1.874 1.874 0 01-.75-.818c-.181-.366-.272-.828-.272-1.385l.001-4.159h1.006l-.001 4.091c0 .477.133.858.4 1.142.27.284.614.427 1.031.427.25 0 .504-.064.763-.192.261-.128.48-.324.656-.588.179-.264.269-.6.269-1.01zm3.855-6.05l-.002 8.728-1.006-.001.003-8.727h1.005z" fill="#808D9E"/><path fill-rule="evenodd" clip-rule="evenodd" d="M204.022 303.056l.051-183 2.44.001-.051 183-2.44-.001z" fill="#E9ECF2"/><path opacity=".1" fill-rule="evenodd" clip-rule="evenodd" d="M182.062 303.05l.051-183 48.8.014-.051 183-48.8-.014z" fill="url(#paint0_linear_256_1038)"/></g><g clip-path="url(#clip5_256_1038)"><path d="M148.753 311.314h1.057l-.001 6.239c-.001.557-.103 1.03-.308 1.419a2.084 2.084 0 01-.865.886c-.372.201-.811.302-1.317.302a2.99 2.99 0 01-1.274-.26 2.109 2.109 0 01-.878-.751c-.213-.323-.319-.708-.319-1.154h1.04c0 .247.061.463.183.648.125.181.295.324.511.426.216.102.462.153.737.153.304.001.563-.063.776-.191.213-.128.375-.315.486-.562.114-.25.171-.556.171-.917l.001-6.238zm7.162 6.053l.001-3.869h1.006l-.002 6.545h-1.006l.001-1.108h-.068a2.157 2.157 0 01-.717.848c-.324.23-.733.345-1.227.345-.409 0-.773-.09-1.091-.269a1.885 1.885 0 01-.75-.818c-.181-.367-.272-.829-.272-1.385l.001-4.16 1.006.001-.001 4.091c0 .477.133.858.4 1.142.27.284.614.426 1.031.426.25 0 .504-.064.763-.191.261-.128.48-.324.656-.588.179-.264.269-.601.269-1.01zm3.854-1.26l-.001 3.937h-1.006l.002-6.546.971.001v1.022h.085a1.88 1.88 0 01.699-.801c.313-.204.716-.306 1.211-.306.443 0 .831.091 1.163.273.332.179.591.452.775.818.185.364.277.824.277 1.381l-.001 4.159h-1.006l.001-4.091c0-.514-.133-.915-.4-1.202-.267-.29-.633-.435-1.099-.435-.321 0-.608.07-.861.209-.25.139-.448.342-.593.609-.145.267-.217.591-.217.972z" fill="#808D9E"/><path fill-rule="evenodd" clip-rule="evenodd" d="M156.442 303.043l.05-183 1.22.001-.05 183-1.22-.001z" fill="#E9ECF2"/></g><g clip-path="url(#clip6_256_1038)"><path d="M88.215 311.297h1.261l2.964 7.246h.102l2.968-7.244h1.261l-.002 8.728-.989-.001.002-6.63h-.085l-2.729 6.63-.955-.001-2.725-6.631h-.085l-.002 6.631-.989-.001.003-8.727zm12.463 8.884c-.415 0-.791-.078-1.13-.234a1.94 1.94 0 01-.805-.687c-.198-.301-.298-.665-.298-1.091 0-.375.075-.679.222-.912.148-.235.346-.42.593-.553.247-.134.52-.233.818-.299.301-.068.604-.122.908-.161.397-.051.72-.09.967-.115.25-.028.432-.075.546-.14.116-.066.174-.179.174-.341v-.034c0-.421-.114-.748-.345-.981-.227-.233-.572-.349-1.035-.349-.48-.001-.856.105-1.129.315-.273.21-.465.434-.576.673l-.954-.341c.17-.398.398-.708.682-.929.287-.225.6-.381.938-.469.34-.09.676-.136 1.005-.136.21 0 .452.026.725.077.275.049.541.149.796.303.259.153.473.385.644.695.17.309.255.724.255 1.244l-.001 4.313-1.006-.001v-.886h-.051a1.77 1.77 0 01-.341.456 1.973 1.973 0 01-.635.413c-.264.114-.587.17-.967.17zm.153-.903c.398 0 .733-.078 1.006-.234a1.6 1.6 0 00.836-1.385v-.92c-.043.051-.136.098-.281.14-.142.04-.307.075-.495.107a25.915 25.915 0 01-.963.127 3.832 3.832 0 00-.733.166 1.262 1.262 0 00-.545.337c-.137.147-.205.349-.205.605 0 .349.13.613.388.792.261.177.592.265.992.265zm5.095 3.206c-.17 0-.322-.015-.456-.043a1.206 1.206 0 01-.277-.077l.256-.886c.244.063.46.085.648.068a.771.771 0 00.498-.251c.148-.148.283-.388.405-.72l.188-.511-2.419-6.581 1.091.001 1.806 5.216h.068l1.808-5.215h1.091l-2.78 7.499c-.125.338-.28.618-.465.84-.185.224-.399.39-.644.498a1.98 1.98 0 01-.818.162z" fill="#808D9E"/><path fill-rule="evenodd" clip-rule="evenodd" d="M100.336 303.028l.05-183h1.193l-.051 183h-1.192z" fill="#E9ECF2"/></g><g clip-path="url(#clip7_256_1038)"><path d="M38.95 299.491l-2.827 7.775-1.154-.001 3.254-8.53h.744l-.017.756zm2.365 7.776l-2.828-7.776-.018-.756h.744l3.262 8.533-1.16-.001zm-.146-3.158v.926l-4.793-.002v-.925l4.793.001zm3.455-1.962l-.002 7.559-1.09-.001.003-8.777h.996l.093 1.219zm4.271 1.9v.123c0 .461-.055.888-.164 1.283-.11.39-.27.73-.48 1.019a2.186 2.186 0 01-.769.674c-.304.16-.654.24-1.048.24-.403 0-.758-.067-1.067-.2a2.104 2.104 0 01-.785-.58 2.97 2.97 0 01-.515-.914 5.295 5.295 0 01-.258-1.201v-.657c.047-.468.136-.888.265-1.259a3.13 3.13 0 01.51-.949c.214-.266.474-.467.779-.604.305-.14.656-.21 1.055-.21.398 0 .752.078 1.06.234.309.153.569.372.78.657.21.285.368.627.474 1.025.109.395.163.834.163 1.319zm-1.09.122v-.123a3.78 3.78 0 00-.099-.89 2.246 2.246 0 00-.31-.739 1.477 1.477 0 00-.527-.504 1.5 1.5 0 00-.768-.187 1.69 1.69 0 00-.715.14c-.2.094-.369.221-.51.381-.14.156-.256.336-.345.539a3.026 3.026 0 00-.194.621v1.517c.078.274.187.532.327.774.141.238.328.432.563.58.234.145.529.217.885.217.292 0 .544-.06.755-.181a1.53 1.53 0 00.528-.51 2.33 2.33 0 00.31-.738c.067-.281.1-.58.1-.897zm3.643-2.243l-.001 5.344h-1.084l.002-6.34h1.054l.03.996zm1.981-1.03l-.006 1.007a1.636 1.636 0 00-.258-.035 2.678 2.678 0 00-.27-.012c-.25 0-.47.039-.661.117a1.378 1.378 0 00-.487.328 1.587 1.587 0 00-.316.504 2.437 2.437 0 00-.147.633l-.305.176c0-.383.038-.743.112-1.078.078-.336.197-.633.358-.891.16-.262.363-.465.61-.609a1.708 1.708 0 011.16-.193.757.757 0 01.21.053z" fill="#92929D"/><path fill-rule="evenodd" clip-rule="evenodd" d="M45.436 303.013l.05-183h1.193l-.05 183h-1.193z" fill="#F1F1F5"/></g><g filter="url(#filter1_d_256_1038)"><path d="M214.06 128.059c.002-6.627 5.376-11.998 12.003-11.997l48 .014c6.628.001 11.999 5.376 11.997 12.003l-.004 14c-.002 6.627-5.376 11.998-12.003 11.997l-60-.017.007-26z" fill="#fff"/></g><path d="M248.581 140.208c-.739 0-1.395-.125-1.969-.374-.57-.248-1.017-.588-1.342-1.019a2.399 2.399 0 01-.477-1.477c-.003-.427.09-.82.279-1.178.189-.358.444-.656.766-.895a2.465 2.465 0 011.084-.462v-.069a2.158 2.158 0 01-1.273-.801 2.31 2.31 0 01-.476-1.457 2.313 2.313 0 01.437-1.402c.296-.411.7-.734 1.214-.969.514-.238 1.1-.358 1.76-.357.653 0 1.234.119 1.745.358.513.235.918.559 1.213.97.298.411.447.878.447 1.402a2.307 2.307 0 01-.493 1.456 2.148 2.148 0 01-1.258.801v.069c.398.067.756.221 1.074.463.321.239.576.537.765.895.192.358.288.751.288 1.178 0 .55-.163 1.043-.487 1.477-.325.43-.773.77-1.343 1.018-.567.249-1.218.373-1.954.373zm0-1.422c.382 0 .713-.065.995-.194.281-.132.5-.318.656-.556.156-.239.236-.514.239-.826a1.55 1.55 0 00-.253-.86 1.663 1.663 0 00-.671-.591 2.115 2.115 0 00-.965-.215c-.364 0-.689.072-.974.214-.285.142-.511.34-.677.591a1.508 1.508 0 00-.238.86c-.004.312.072.587.228.826.156.235.374.419.656.552.285.132.62.199 1.004.199zm.002-4.639a1.73 1.73 0 00.825-.188 1.44 1.44 0 00.572-.527c.139-.225.21-.486.214-.781a1.45 1.45 0 00-.209-.765 1.344 1.344 0 00-.566-.512 1.821 1.821 0 00-.836-.185c-.321 0-.604.061-.85.184-.242.119-.431.29-.567.512a1.425 1.425 0 00-.194.766c-.003.295.063.555.199.78.139.222.33.398.571.527.246.126.526.189.841.189zm5.416 5.923v-1.332l3.536-3.465c.338-.341.62-.644.845-.909.226-.265.395-.522.508-.771a1.91 1.91 0 00.169-.795 1.5 1.5 0 00-.219-.825 1.45 1.45 0 00-.601-.537 1.952 1.952 0 00-.87-.19c-.335 0-.628.07-.88.209-.252.136-.448.33-.587.582a1.862 1.862 0 00-.204.899h-1.755c0-.646.148-1.208.443-1.685a2.983 2.983 0 011.218-1.109c.521-.261 1.117-.392 1.79-.392.683 0 1.283.128 1.8.383.517.256.918.605 1.203 1.05.288.444.432.951.432 1.521 0 .381-.073.756-.219 1.124-.146.367-.403.775-.771 1.222-.365.448-.877.99-1.537 1.626l-1.755 1.784v.07l4.434.001v1.541l-6.98-.002zm12.459.197c-.819 0-1.522-.207-2.108-.622-.583-.417-1.032-1.019-1.347-1.805-.311-.789-.467-1.738-.467-2.849.004-1.11.162-2.054.474-2.833.315-.782.764-1.379 1.347-1.79.587-.41 1.288-.616 2.103-.615.816 0 1.517.205 2.103.617.587.411 1.036 1.007 1.347 1.79.315.782.472 1.727.472 2.834-.001 1.113-.158 2.064-.473 2.853-.312.786-.762 1.385-1.348 1.8-.584.414-1.285.621-2.103.62zm0-1.556c.636 0 1.139-.313 1.507-.939.371-.63.557-1.556.557-2.779 0-.809-.084-1.488-.253-2.038-.169-.551-.407-.965-.715-1.243a1.567 1.567 0 00-1.094-.423c-.633 0-1.134.314-1.502.944-.368.626-.554 1.546-.557 2.759-.004.812.077 1.495.243 2.048.169.554.407.972.715 1.253.309.279.675.418 1.099.418z" fill="#1D1E25"/><rect x="225.059" y="130.205" width="10" height="10" rx="2" transform="rotate(.016 225.059 130.205)" fill="#2280FF"/><path d="M17.037 213.891c4.498 1.848 15.133 6.997 21.687 12.815 8.192 7.271 34.7 15.24 50.612-2.063 15.911-17.304 23.143-23.533 34.711-23.53 11.569.003 19.281-2.418 32.301-20.415 13.019-17.997 17.266-26.692 33.266-26.646 15.468.046 23.295 10.738 26.988 16.624l8.673 13.503c3.533 5.655 13.035 15.234 26.949 16.257 13.914 1.024 24.613-4.149 35.712-12.778 10.336-8.037 28.443-16.608 43.863.012 12.336 13.296 18.633 18.006 20.24 18.698" stroke="#2280FF" stroke-width="3" stroke-linecap="round"/><path d="M-6.965 220.619c5.21 1.346 17.528 5.098 25.12 9.337 9.489 5.297 40.192 11.105 58.618-1.497 18.427-12.602 26.802-17.139 40.201-17.135 13.398.004 22.331-1.759 37.408-14.866 15.077-13.107 19.995-19.441 38.527-19.405 17.915.035 26.981 7.824 31.26 12.112l10.046 9.836c4.093 4.12 15.099 11.098 31.214 11.845 16.116.748 28.507-3.019 41.361-9.303 11.97-5.853 32.941-12.094 50.802.014 14.29 9.686 21.583 13.117 23.444 13.622" stroke="#F55" stroke-width="3" stroke-linecap="round"/></g><path fill="#fff" d="M25.953 116.007l59.78.017-.056 203-59.78-.017z"/><g clip-path="url(#clip8_256_1038)"><path d="M41.512 125.284l-.002 8.727h-1.057l.002-7.619h-.05l-2.132 1.414v-1.074l2.183-1.448h1.056zm3.549 6.342l-.017-1.244h.205l2.864-2.914h1.244l-3.052 3.085h-.085l-1.16 1.073zm-.938 2.386l.002-8.727h1.006l-.003 8.727h-1.005zm4.159.001l-2.556-3.239.716-.699 3.118 3.939-1.278-.001z" fill="#808D9E"/></g><g clip-path="url(#clip9_256_1038)"><path d="M48.561 304.133c-.642 0-1.189-.175-1.64-.525-.452-.352-.797-.862-1.035-1.53-.239-.671-.358-1.48-.358-2.429 0-.943.12-1.749.36-2.416.24-.671.587-1.182 1.04-1.534.454-.355 1-.532 1.636-.532.636 0 1.18.178 1.632.533.454.352.8.864 1.04 1.534.24.668.36 1.473.36 2.417 0 .948-.12 1.758-.358 2.428-.239.668-.584 1.178-1.036 1.53-.452.349-.999.524-1.64.524zm0-.938c.637 0 1.131-.306 1.484-.92.352-.613.529-1.488.529-2.625 0-.755-.08-1.399-.242-1.93-.16-.531-.39-.936-.69-1.215a1.525 1.525 0 00-1.079-.418c-.63 0-1.123.311-1.478.933-.356.619-.534 1.496-.534 2.629 0 .756.08 1.398.238 1.926.16.529.388.931.686 1.207.301.275.663.413 1.087.413z" fill="#808D9E"/></g><g clip-path="url(#clip10_256_1038)"><path d="M28.644 270.008v-.767l2.882-3.153c.338-.369.617-.69.836-.963.218-.275.38-.534.486-.775.108-.244.162-.5.162-.767a1.42 1.42 0 00-.221-.797 1.44 1.44 0 00-.597-.52 1.95 1.95 0 00-.852-.184c-.335 0-.628.07-.878.209a1.437 1.437 0 00-.576.575c-.133.247-.2.537-.2.869H28.68c0-.511.118-.96.354-1.346.236-.387.557-.688.964-.903a2.902 2.902 0 011.376-.324c.512 0 .965.108 1.36.324.394.216.704.508.928.874a2.3 2.3 0 01.337 1.223c0 .321-.059.635-.175.942-.114.304-.313.643-.597 1.018-.282.372-.672.827-1.173 1.364l-1.96 2.096v.068l4.056.001v.937l-5.506-.001zm10.198.122c-.642 0-1.189-.175-1.64-.525-.452-.352-.797-.862-1.035-1.53-.239-.67-.358-1.48-.358-2.429 0-.943.12-1.748.36-2.416.24-.67.588-1.182 1.04-1.534.454-.355 1-.532 1.636-.532.636 0 1.18.178 1.632.533.454.353.8.864 1.04 1.535.24.667.36 1.473.36 2.416 0 .949-.12 1.758-.358 2.429-.239.667-.584 1.177-1.036 1.529-.452.35-.999.524-1.64.524zm0-.937c.637 0 1.131-.307 1.484-.921.352-.613.529-1.488.529-2.624 0-.756-.08-1.4-.242-1.931-.16-.531-.39-.936-.69-1.215a1.525 1.525 0 00-1.079-.417c-.63-.001-1.123.31-1.478.932-.356.62-.533 1.496-.534 2.63 0 .755.08 1.397.238 1.926.16.528.388.93.686 1.206.301.276.663.413 1.087.414zm7.586.939c-.642 0-1.189-.175-1.64-.524-.452-.353-.797-.863-1.035-1.531-.239-.67-.358-1.48-.358-2.429 0-.943.12-1.748.359-2.416.242-.67.588-1.181 1.04-1.534.455-.355 1-.532 1.637-.532.636 0 1.18.178 1.632.533.454.353.8.864 1.039 1.535.241.667.362 1.473.361 2.416 0 .949-.12 1.758-.358 2.429-.24.667-.584 1.177-1.036 1.529-.452.35-.999.524-1.641.524zm0-.937c.637 0 1.131-.307 1.483-.92.353-.614.53-1.489.53-2.625 0-.756-.08-1.399-.243-1.931-.159-.531-.389-.936-.69-1.214a1.521 1.521 0 00-1.078-.418c-.63-.001-1.123.31-1.479.932-.355.62-.533 1.496-.533 2.63 0 .755.08 1.397.238 1.926.159.528.388.93.686 1.206.3.276.663.413 1.086.414z" fill="#808D9E"/></g><g clip-path="url(#clip11_256_1038)"><path d="M28.45 234.218v-.869l3.837-6.067h.63v1.346h-.426l-2.899 4.585v.068l5.165.001v.938l-6.307-.002zm4.107 1.791v-2.459l.002-6.268h1.006l-.002 8.727h-1.006zm6.728.121c-.642 0-1.189-.175-1.64-.524-.452-.353-.797-.863-1.035-1.531-.239-.67-.358-1.48-.358-2.429 0-.943.12-1.748.359-2.416.242-.67.588-1.181 1.04-1.534.455-.355 1-.532 1.637-.532.636 0 1.18.178 1.632.533.454.353.8.864 1.039 1.535.241.667.362 1.473.361 2.416 0 .949-.12 1.759-.358 2.429-.239.667-.584 1.177-1.036 1.529-.452.35-.999.524-1.64.524zm0-.937c.637 0 1.131-.307 1.484-.92.352-.614.529-1.489.529-2.625 0-.756-.08-1.399-.243-1.931-.158-.531-.389-.936-.69-1.214a1.521 1.521 0 00-1.078-.418c-.63 0-1.123.31-1.478.933-.356.619-.534 1.495-.534 2.629 0 .755.08 1.397.238 1.926.16.528.388.93.686 1.206a1.55 1.55 0 001.086.414zm7.586.939c-.642 0-1.189-.175-1.64-.524-.452-.353-.797-.863-1.036-1.53-.238-.671-.357-1.481-.357-2.43 0-.943.12-1.748.359-2.416.241-.67.588-1.181 1.04-1.533.454-.355 1-.533 1.636-.533.637.001 1.18.178 1.632.533.455.353.801.864 1.04 1.535.241.668.361 1.473.361 2.416 0 .949-.12 1.759-.358 2.429-.24.668-.584 1.177-1.036 1.53-.452.349-1 .523-1.641.523zm0-.937c.636 0 1.13-.307 1.483-.92.353-.614.53-1.489.53-2.625 0-.756-.081-1.399-.243-1.931-.159-.531-.389-.936-.69-1.214a1.521 1.521 0 00-1.078-.418c-.63 0-1.123.311-1.479.933-.355.619-.533 1.495-.533 2.629 0 .755.079 1.397.238 1.926.159.528.387.93.686 1.206.3.276.663.414 1.086.414z" fill="#808D9E"/></g><g clip-path="url(#clip12_256_1038)"><path d="M31.561 202.128a3.267 3.267 0 01-1.074-.205 2.572 2.572 0 01-.98-.661c-.295-.312-.532-.734-.71-1.265-.18-.535-.269-1.205-.269-2.012 0-.773.073-1.457.218-2.054.145-.599.356-1.103.631-1.512.276-.412.608-.725.998-.938a2.73 2.73 0 011.325-.319c.489 0 .923.098 1.304.295.383.193.696.463.937.809.241.347.398.746.469 1.198h-1.04a1.926 1.926 0 00-.562-.976c-.279-.259-.648-.388-1.108-.388-.676-.001-1.21.293-1.598.881-.387.588-.582 1.413-.585 2.476h.068a2.568 2.568 0 011.3-1.018 2.51 2.51 0 01.848-.14c.5 0 .958.125 1.372.375.415.247.747.59.997 1.027.25.435.375.933.375 1.496a3.08 3.08 0 01-.363 1.483 2.758 2.758 0 01-1.019 1.065c-.434.261-.946.389-1.534.383zm0-.937c.358 0 .68-.09.964-.269.287-.179.513-.419.677-.72a2.03 2.03 0 00.252-1.005c0-.361-.08-.689-.243-.985a1.86 1.86 0 00-.66-.712 1.748 1.748 0 00-.954-.264c-.27 0-.522.054-.755.162-.233.105-.437.25-.613.434a2.1 2.1 0 00-.41.635 2.02 2.02 0 00.766 2.446c.287.185.613.277.976.278zm7.523.939c-.642 0-1.189-.175-1.64-.525-.452-.352-.797-.862-1.036-1.53-.238-.67-.357-1.48-.357-2.429 0-.943.12-1.748.359-2.416.241-.67.588-1.181 1.04-1.534.455-.355 1-.532 1.636-.532.637 0 1.18.178 1.632.533.455.353.801.864 1.04 1.535.241.667.362 1.473.361 2.416 0 .949-.12 1.758-.358 2.429-.24.667-.584 1.177-1.036 1.529-.452.35-.999.524-1.641.524zm0-.937c.637 0 1.131-.307 1.483-.92.353-.614.53-1.489.53-2.625 0-.756-.081-1.399-.243-1.931-.159-.531-.389-.936-.69-1.214a1.521 1.521 0 00-1.078-.418c-.63-.001-1.123.31-1.479.932-.355.62-.533 1.496-.533 2.63 0 .755.079 1.397.238 1.926.159.528.388.93.686 1.206.3.276.663.413 1.086.414zm7.586.939c-.642 0-1.19-.175-1.64-.524-.452-.353-.797-.863-1.036-1.531-.238-.67-.357-1.48-.357-2.429 0-.943.12-1.748.358-2.416.242-.67.589-1.181 1.04-1.534.455-.355 1-.532 1.637-.532s1.18.178 1.632.533c.455.353.801.864 1.04 1.535.24.667.361 1.473.361 2.416 0 .949-.12 1.759-.359 2.429-.238.667-.584 1.177-1.035 1.529-.452.35-1 .524-1.641.524zm0-.937c.636 0 1.13-.307 1.483-.92.353-.614.529-1.489.53-2.625 0-.756-.081-1.399-.243-1.931-.159-.531-.389-.936-.69-1.214a1.522 1.522 0 00-1.078-.418c-.63 0-1.124.31-1.479.933-.355.619-.533 1.495-.533 2.629 0 .755.079 1.397.238 1.926.159.528.387.93.685 1.206.302.276.664.414 1.087.414z" fill="#808D9E"/></g><g clip-path="url(#clip13_256_1038)"><path d="M31.468 168.128c-.585 0-1.102-.104-1.55-.312a2.534 2.534 0 01-1.045-.865 2.173 2.173 0 01-.37-1.261 2.318 2.318 0 01.823-1.811c.258-.213.547-.348.865-.405v-.051a1.683 1.683 0 01-.997-.703 2.13 2.13 0 01-.366-1.24c-.003-.444.11-.84.337-1.189.227-.35.54-.625.938-.827a3.01 3.01 0 011.368-.302c.505 0 .957.101 1.355.303.397.202.71.477.937.827.23.349.346.746.349 1.189-.003.463-.13.876-.38 1.24a1.682 1.682 0 01-.984.703v.051c.315.057.6.192.852.405a2.375 2.375 0 01.835 1.811 2.207 2.207 0 01-.384 1.262c-.25.366-.598.654-1.044.864-.444.208-.956.311-1.539.311zm0-.938c.395.001.736-.063 1.023-.191.287-.128.509-.308.665-.541a1.46 1.46 0 00.239-.818 1.57 1.57 0 00-.256-.874 1.734 1.734 0 00-.685-.597 2.152 2.152 0 00-.985-.217c-.372 0-.704.072-.997.217-.29.145-.519.344-.686.596a1.54 1.54 0 00-.243.874 1.43 1.43 0 00.225.818c.156.233.38.414.67.541.289.128.633.192 1.03.192zm.002-4.142c.312.001.59-.062.83-.187.245-.125.437-.299.576-.524.14-.224.21-.487.213-.788a1.45 1.45 0 00-.208-.771 1.35 1.35 0 00-.567-.512 1.848 1.848 0 00-.844-.183 1.869 1.869 0 00-.856.183 1.317 1.317 0 00-.567.511 1.422 1.422 0 00-.196.771c-.003.301.063.564.2.788.139.225.33.4.575.525.244.125.525.187.844.187zM39 168.13c-.642 0-1.19-.175-1.64-.525-.453-.352-.798-.862-1.036-1.53-.238-.67-.358-1.48-.357-2.429 0-.943.12-1.748.358-2.416.242-.67.589-1.181 1.04-1.534.455-.355 1-.532 1.637-.532.636 0 1.18.178 1.632.533.454.353.8.864 1.04 1.535.24.667.361 1.473.36 2.416 0 .949-.119 1.758-.358 2.429-.239.667-.584 1.177-1.036 1.529-.452.35-.998.524-1.64.524zm0-.937c.636 0 1.13-.307 1.483-.92.353-.614.529-1.489.53-2.625 0-.756-.081-1.4-.243-1.931-.16-.531-.39-.936-.69-1.214a1.521 1.521 0 00-1.078-.418c-.63-.001-1.124.31-1.48.932-.355.62-.532 1.496-.533 2.63 0 .755.08 1.397.239 1.926.158.528.387.93.685 1.206.301.276.664.413 1.087.414zm7.585.939c-.642 0-1.189-.175-1.64-.524-.452-.353-.797-.863-1.035-1.531-.239-.67-.358-1.48-.358-2.429 0-.943.12-1.748.359-2.416.242-.67.588-1.181 1.04-1.534.455-.355 1-.532 1.637-.532.636 0 1.18.178 1.632.533.454.353.8.864 1.039 1.535.241.667.362 1.473.362 2.416 0 .949-.12 1.759-.359 2.429-.239.667-.584 1.177-1.036 1.529-.452.35-.999.524-1.64.524zm0-.937c.637 0 1.131-.307 1.484-.92.352-.614.528-1.489.529-2.625 0-.756-.08-1.399-.242-1.931-.16-.531-.39-.936-.69-1.214a1.521 1.521 0 00-1.078-.418c-.631 0-1.124.31-1.48.933-.355.619-.533 1.495-.533 2.629 0 .755.08 1.397.238 1.926.16.528.388.93.686 1.206.301.276.663.414 1.087.414z" fill="#808D9E"/></g><g filter="url(#filter2_d_256_1038)"><rect x="198.054" y="150.055" width="14" height="14" rx="7" transform="rotate(.016 198.054 150.055)" fill="#2280FF"/><rect x="199.054" y="151.055" width="12" height="12" rx="6" transform="rotate(.016 199.054 151.055)" stroke="#fff" stroke-width="2"/></g><rect x="195.543" y="81.054" width="12.2" height="10" rx="2" transform="rotate(.016 195.543 81.054)" fill="#F55"/><path d="M226.928 84.063h-1.233a2.552 2.552 0 00-1.038-1.612 2.787 2.787 0 00-.85-.418 3.402 3.402 0 00-.975-.14c-.616 0-1.175.156-1.675.468-.497.311-.894.77-1.189 1.377-.292.606-.438 1.35-.438 2.232 0 .881.145 1.625.437 2.232.295.607.691 1.066 1.188 1.377.5.312 1.059.468 1.675.468.338 0 .663-.046.975-.139.311-.092.595-.23.85-.412a2.6 2.6 0 001.039-1.615h1.233a4.12 4.12 0 01-.507 1.397c-.246.41-.551.76-.915 1.048a4.009 4.009 0 01-1.228.651 4.58 4.58 0 01-1.447.224c-.869 0-1.641-.213-2.317-.637-.676-.425-1.208-1.028-1.595-1.81-.388-.783-.581-1.71-.581-2.785 0-1.073.194-2.001.582-2.784.388-.782.92-1.385 1.597-1.809.676-.424 1.448-.636 2.317-.636.513 0 .996.075 1.446.225.454.149.864.368 1.228.656.365.285.669.633.915 1.044.245.408.414.874.506 1.398zm4.434 7.16c-.689 0-1.294-.165-1.815-.493a3.339 3.339 0 01-1.212-1.377c-.288-.59-.432-1.28-.432-2.069 0-.795.144-1.49.433-2.083a3.339 3.339 0 011.213-1.381c.521-.328 1.126-.492 1.815-.492.689 0 1.293.165 1.81.493.52.328.924.789 1.212 1.382.292.593.437 1.288.437 2.083 0 .79-.146 1.479-.438 2.069a3.297 3.297 0 01-1.213 1.376c-.517.328-1.121.492-1.81.492zm0-1.054c.524 0 .955-.134 1.293-.402a2.38 2.38 0 00.751-1.06c.162-.437.244-.91.244-1.42a4.11 4.11 0 00-.243-1.428 2.41 2.41 0 00-.751-1.069c-.338-.272-.769-.408-1.292-.408-.524 0-.955.136-1.293.407a2.41 2.41 0 00-.751 1.069 4.1 4.1 0 00-.244 1.427c0 .51.081.984.243 1.422.163.437.413.79.751 1.059.338.268.769.403 1.292.403zm4.751.896l.002-7.636h1.134v1.193h.099c.159-.407.416-.724.771-.949.355-.229.78-.343 1.278-.343.503 0 .923.115 1.257.344.338.225.602.542.791.95h.079c.196-.395.489-.708.88-.94.391-.235.86-.353 1.407-.352.683 0 1.242.214 1.676.641.434.425.651 1.086.65 1.984l-.001 5.11h-1.173l.001-5.11c0-.564-.154-.966-.462-1.208a1.71 1.71 0 00-1.089-.364c-.537 0-.953.162-1.248.487-.295.322-.442.73-.442 1.223l-.002 4.972h-1.193l.001-5.23c.001-.435-.14-.785-.422-1.05-.282-.268-.644-.403-1.089-.403-.304 0-.59.081-.855.243a1.834 1.834 0 00-.636.677 1.997 1.997 0 00-.239.989l-.001 4.772h-1.174zm11.667 2.867l.003-10.5h1.134l-.001 1.213h.14c.086-.132.205-.301.358-.507.156-.208.378-.394.666-.556.292-.166.686-.249 1.183-.248.643 0 1.21.16 1.701.482.49.322.873.778 1.148 1.368.275.59.412 1.286.412 2.088-.001.809-.138 1.51-.414 2.103-.275.59-.656 1.047-1.143 1.372-.488.321-1.05.482-1.686.481-.49 0-.883-.081-1.178-.243a2.182 2.182 0 01-.681-.563 7.474 7.474 0 01-.368-.527h-.099l-.001 4.037h-1.174zm1.156-6.681c-.001.576.084 1.085.253 1.526.169.437.416.78.74 1.03.325.245.723.367 1.193.367.491 0 .9-.129 1.228-.387.332-.262.581-.613.746-1.054.17-.444.254-.938.254-1.481a3.99 3.99 0 00-.248-1.452 2.243 2.243 0 00-.74-1.03c-.328-.255-.741-.382-1.238-.382-.477 0-.878.12-1.203.362-.325.239-.571.573-.736 1.004-.166.428-.249.926-.249 1.496zm10.078 3.98c-.736 0-1.37-.163-1.904-.488a3.268 3.268 0 01-1.227-1.373c-.285-.59-.428-1.276-.427-2.058 0-.782.142-1.472.428-2.068.288-.6.689-1.067 1.203-1.402.517-.338 1.121-.507 1.81-.506.398 0 .79.066 1.178.199.388.133.741.348 1.059.646.318.296.571.687.76 1.174.189.487.283 1.087.283 1.8v.497l-5.886-.002v-1.014l4.693.001c0-.43-.086-.815-.258-1.153a1.948 1.948 0 00-.726-.8c-.311-.196-.679-.294-1.103-.294-.468 0-.872.115-1.214.347a2.285 2.285 0 00-.78.895 2.62 2.62 0 00-.274 1.183v.676c0 .577.099 1.066.298 1.467.202.398.482.701.84.91.357.206.773.309 1.247.309.309 0 .587-.043.836-.13a1.77 1.77 0 00.651-.397c.182-.179.323-.4.423-.666l1.133.318c-.119.385-.32.723-.602 1.014a2.918 2.918 0 01-1.044.676 3.87 3.87 0 01-1.397.239zm7.77-7.794v.995l-3.958-.002.001-.994 3.957.001zm-2.803-1.83h1.173l-.002 7.279c0 .331.048.58.144.746a.744.744 0 00.378.328c.155.053.319.08.492.08.129 0 .235-.007.318-.02l.199-.04.238 1.054a2.532 2.532 0 01-.875.139 2.37 2.37 0 01-.974-.214 1.938 1.938 0 01-.786-.652c-.205-.291-.308-.66-.308-1.103l.003-7.597zm4.066 9.467l.002-7.636h1.173l-.002 7.636h-1.173zm.599-8.909a.836.836 0 01-.592-.234.752.752 0 01-.243-.562c0-.218.081-.406.244-.561a.833.833 0 01.591-.234c.229 0 .425.078.587.234a.742.742 0 01.248.562.745.745 0 01-.248.561.818.818 0 01-.587.234zm5.546 1.274v.995l-3.957-.001v-.995l3.957.001zm-2.803-1.83h1.173l-.002 7.279c0 .331.048.58.144.745a.744.744 0 00.378.329c.155.053.32.08.492.08.129 0 .235-.007.318-.02l.199-.04.238 1.054a2.525 2.525 0 01-.875.139 2.37 2.37 0 01-.974-.214 1.93 1.93 0 01-.785-.652c-.206-.291-.308-.66-.308-1.103l.002-7.597zm7.086 9.627c-.689 0-1.294-.165-1.814-.493a3.348 3.348 0 01-1.213-1.377c-.288-.59-.432-1.28-.432-2.069 0-.795.145-1.49.433-2.082a3.33 3.33 0 011.214-1.382c.52-.328 1.125-.492 1.814-.492.69 0 1.293.165 1.81.493a3.3 3.3 0 011.213 1.382c.291.594.437 1.288.437 2.083-.001.79-.147 1.479-.439 2.069a3.297 3.297 0 01-1.213 1.376c-.517.328-1.12.492-1.81.492zm0-1.054c.524 0 .955-.134 1.293-.402a2.37 2.37 0 00.751-1.06 4.04 4.04 0 00.244-1.42 4.11 4.11 0 00-.243-1.428 2.401 2.401 0 00-.75-1.069c-.338-.272-.769-.408-1.293-.408-.524 0-.954.136-1.293.407a2.41 2.41 0 00-.751 1.069 4.1 4.1 0 00-.244 1.427c0 .51.081.984.244 1.422.162.437.412.79.75 1.059.338.269.769.403 1.292.403zm4.751.896l.003-7.636h1.133v1.154h.079a1.84 1.84 0 01.756-.92 2.225 2.225 0 011.233-.353c.087 0 .194.002.323.005.13.004.228.009.294.015l-.001 1.194a3.368 3.368 0 00-.273-.045 2.69 2.69 0 00-.442-.035c-.372 0-.703.078-.995.233a1.713 1.713 0 00-.935 1.556l-.001 4.833h-1.174z" fill="#1D1E25"/><rect x="27.183" y="81.007" width="12.2" height="10" rx="2" transform="rotate(.016 27.183 81.007)" fill="#2280FF"/><path d="M50.376 80.832h1.472l3.458 8.453h.119l3.463-8.45h1.471l-.003 10.182h-1.153l.002-7.736h-.1l-3.183 7.734h-1.114l-3.18-7.737h-.1l-.001 7.736h-1.154l.003-10.182zm12.548 13.049a2.58 2.58 0 01-.532-.05 1.4 1.4 0 01-.323-.09l.299-1.034c.285.074.537.1.755.08a.906.906 0 00.582-.293c.173-.172.33-.452.473-.84l.219-.596-2.822-7.677h1.273l2.106 6.086h.08l2.11-6.085h1.272l-3.244 8.75a3.31 3.31 0 01-.542.979 2.031 2.031 0 01-.751.581 2.3 2.3 0 01-.955.189zm9.975.003l.003-10.5h1.133v1.213h.14c.085-.132.205-.301.357-.507.156-.209.378-.394.667-.556.291-.166.686-.249 1.183-.249.643 0 1.21.161 1.7.483.49.322.873.777 1.148 1.367.275.59.413 1.287.412 2.089 0 .808-.138 1.51-.413 2.102-.275.59-.656 1.048-1.144 1.372-.487.322-1.049.482-1.685.482-.49 0-.884-.081-1.178-.244a2.185 2.185 0 01-.681-.562 7.513 7.513 0 01-.368-.527h-.1v4.037h-1.174zm1.155-6.682c0 .577.084 1.086.253 1.527.17.437.416.78.74 1.029.326.245.723.368 1.194.368.49 0 .9-.129 1.228-.387a2.37 2.37 0 00.746-1.054c.17-.444.254-.938.254-1.481 0-.537-.082-1.021-.248-1.452a2.243 2.243 0 00-.74-1.03c-.329-.255-.741-.383-1.238-.383-.478 0-.879.12-1.204.363-.325.238-.57.573-.736 1.004-.165.427-.248.926-.249 1.496zm6.877 3.82l.002-7.636h1.134v1.154h.079c.14-.378.391-.685.756-.92a2.224 2.224 0 011.233-.353 10.761 10.761 0 01.616.021v1.193c-.04-.01-.13-.025-.273-.045a2.7 2.7 0 00-.443-.035c-.371 0-.703.078-.994.233a1.763 1.763 0 00-.686.637 1.716 1.716 0 00-.25.92v4.832H80.93zm7.579.161c-.69 0-1.294-.164-1.815-.492a3.343 3.343 0 01-1.212-1.378c-.288-.59-.433-1.28-.432-2.068 0-.795.144-1.49.433-2.083a3.338 3.338 0 011.213-1.382c.52-.328 1.126-.492 1.815-.491.69 0 1.293.164 1.81.492.52.329.924.79 1.212 1.383.292.593.437 1.287.437 2.083 0 .789-.146 1.478-.438 2.068a3.298 3.298 0 01-1.213 1.377c-.517.328-1.12.492-1.81.492zm0-1.054c.524 0 .955-.133 1.293-.402.338-.268.588-.621.75-1.059.163-.437.245-.91.245-1.421 0-.51-.081-.986-.243-1.427a2.405 2.405 0 00-.75-1.07c-.339-.271-.77-.407-1.293-.407-.524 0-.955.135-1.293.407a2.406 2.406 0 00-.751 1.069c-.163.44-.244.916-.244 1.426 0 .51.081.985.243 1.422.162.438.413.79.75 1.06.339.268.77.402 1.293.402zm7.635 1.057c-.637 0-1.198-.162-1.686-.483-.487-.325-.868-.782-1.143-1.373-.275-.593-.412-1.294-.412-2.103 0-.802.138-1.498.413-2.088.276-.59.659-1.045 1.15-1.367.49-.32 1.057-.481 1.7-.481.497 0 .89.083 1.178.249.291.162.514.348.666.557.156.205.277.374.363.507h.1v-3.759h1.173l-.002 10.183H98.51v-1.174h-.139a7.523 7.523 0 01-.368.527 2.168 2.168 0 01-.681.561c-.295.163-.688.244-1.178.244zm.159-1.054c.47 0 .868-.123 1.193-.368.325-.248.572-.591.741-1.029.17-.44.254-.95.254-1.526 0-.57-.082-1.069-.248-1.496-.165-.431-.41-.766-.735-1.005-.325-.242-.726-.363-1.203-.363-.498 0-.912.127-1.243.382a2.291 2.291 0 00-.741 1.03c-.163.43-.244.914-.244 1.45 0 .544.082 1.038.248 1.482.169.441.417.793.745 1.055.332.258.743.388 1.233.388zm9.966-2.225l.001-4.514h1.173l-.002 7.637h-1.173v-1.293h-.079a2.506 2.506 0 01-.836.989c-.378.268-.855.402-1.432.402-.477 0-.901-.105-1.272-.314a2.193 2.193 0 01-.875-.954c-.212-.428-.318-.966-.318-1.616l.002-4.852h1.173l-.001 4.773c-.001.556.155 1 .467 1.332.314.332.715.498 1.203.498.291 0 .588-.075.889-.224a1.93 1.93 0 00.766-.686c.209-.308.314-.7.314-1.178zm5.923 3.283c-.715 0-1.332-.17-1.849-.508a3.31 3.31 0 01-1.193-1.397c-.278-.593-.417-1.271-.417-2.033.001-.776.143-1.46.428-2.054a3.382 3.382 0 011.204-1.396c.517-.338 1.12-.507 1.81-.507.537 0 1.021.1 1.451.299a2.78 2.78 0 011.059.835c.275.358.446.776.512 1.253h-1.173c-.09-.348-.289-.656-.597-.925-.305-.272-.716-.408-1.233-.408-.457 0-.858.12-1.203.358-.341.235-.608.568-.801.999-.189.427-.283.93-.283 1.506-.001.59.092 1.104.278 1.541.188.438.453.778.795 1.02.344.242.749.363 1.213.363.305 0 .581-.053.83-.159.249-.106.459-.258.632-.457.172-.199.295-.437.368-.716h1.173a2.714 2.714 0 01-1.522 2.073c-.424.209-.918.313-1.482.313zm7.542-7.793l-.001.994-3.957-.001v-.994h3.958zm-2.804-1.83h1.174l-.003 7.278c0 .332.048.58.144.746.1.162.226.272.378.328.156.053.32.08.492.08.13 0 .236-.007.319-.02l.198-.04.239 1.054c-.08.03-.191.06-.333.09-.143.033-.324.05-.542.05-.332 0-.656-.072-.975-.215a1.942 1.942 0 01-.785-.651c-.205-.292-.308-.66-.308-1.104l.002-7.597z" fill="#1D1E25"/></g></g><defs><clipPath id="clip0_256_1038"><path fill="#fff" transform="rotate(.016 -239073.066 96299.895)" d="M0 0h366v260H0z"/></clipPath><clipPath id="clip1_256_1038"><path fill="#fff" transform="rotate(.016 -434829.887 1273930.639)" d="M0 0h26.84v206H0z"/></clipPath><clipPath id="clip2_256_1038"><path fill="#fff" transform="rotate(.016 -434802.395 1079498.858)" d="M0 0h29.28v206H0z"/></clipPath><clipPath id="clip3_256_1038"><path fill="#fff" transform="rotate(.016 -434775.513 880644.468)" d="M0 0h30.5v206H0z"/></clipPath><clipPath id="clip4_256_1038"><path fill="#fff" transform="rotate(.016 -434744.437 659695.146)" d="M0 0h48.8v206H0z"/></clipPath><clipPath id="clip5_256_1038"><path fill="#fff" transform="rotate(.016 -434725.334 509449.607)" d="M0 0h29.28v206H0z"/></clipPath><clipPath id="clip6_256_1038"><path fill="#fff" transform="rotate(.016 -434696.05 301754.709)" d="M0 0h32.94v206H0z"/></clipPath><clipPath id="clip7_256_1038"><path fill="#fff" transform="rotate(.016 -434667.948 111740.102)" d="M0 0h28.06v206H0z"/></clipPath><clipPath id="clip8_256_1038"><path fill="#fff" transform="rotate(.016 -427427.902 133834.397)" d="M0 0h17.08v24H0z"/></clipPath><clipPath id="clip9_256_1038"><path fill="#fff" transform="rotate(.016 -1043191.893 160263.076)" d="M0 0h10.98v24H0z"/></clipPath><clipPath id="clip10_256_1038"><path fill="#fff" transform="rotate(.016 -920030.85 93995.327)" d="M0 0h29.28v24H0z"/></clipPath><clipPath id="clip11_256_1038"><path fill="#fff" transform="rotate(.016 -796878.77 94012.013)" d="M0 0h29.28v24H0z"/></clipPath><clipPath id="clip12_256_1038"><path fill="#fff" transform="rotate(.016 -673726.688 94030.51)" d="M0 0h29.28v24H0z"/></clipPath><clipPath id="clip13_256_1038"><path fill="#fff" transform="rotate(.016 -550574.607 94047.195)" d="M0 0h29.28v24H0z"/></clipPath><filter id="filter0_d_256_1038" x="-60" y="-40" width="579.096" height="506.116" filterUnits="userSpaceOnUse" color-interpolation-filters="sRGB"><feFlood flood-opacity="0" result="BackgroundImageFix"/><feColorMatrix in="SourceAlpha" values="0 0 0 0 0 0 0 0 0 0 0 0 0 0 0 0 0 0 127 0" result="hardAlpha"/><feOffset dx="20" dy="40"/><feGaussianBlur stdDeviation="40"/><feComposite in2="hardAlpha" operator="out"/><feColorMatrix values="0 0 0 0 0.348368 0 0 0 0 0.377296 0 0 0 0 0.529167 0 0 0 0.12 0"/><feBlend mode="multiply" in2="BackgroundImageFix" result="effect1_dropShadow_256_1038"/><feBlend in="SourceGraphic" in2="effect1_dropShadow_256_1038" result="shape"/></filter><filter id="filter1_d_256_1038" x="192.053" y="98.062" width="116.007" height="82.013" filterUnits="userSpaceOnUse" color-interpolation-filters="sRGB"><feFlood flood-opacity="0" result="BackgroundImageFix"/><feColorMatrix in="SourceAlpha" values="0 0 0 0 0 0 0 0 0 0 0 0 0 0 0 0 0 0 127 0" result="hardAlpha"/><feOffset dy="4"/><feGaussianBlur stdDeviation="11"/><feComposite in2="hardAlpha" operator="out"/><feColorMatrix values="0 0 0 0 0.624722 0 0 0 0 0.6401 0 0 0 0 0.720833 0 0 0 0.25 0"/><feBlend mode="multiply" in2="BackgroundImageFix" result="effect1_dropShadow_256_1038"/><feBlend in="SourceGraphic" in2="effect1_dropShadow_256_1038" result="shape"/></filter><filter id="filter2_d_256_1038" x="194.052" y="148.057" width="22" height="22" filterUnits="userSpaceOnUse" color-interpolation-filters="sRGB"><feFlood flood-opacity="0" result="BackgroundImageFix"/><feColorMatrix in="SourceAlpha" values="0 0 0 0 0 0 0 0 0 0 0 0 0 0 0 0 0 0 127 0" result="hardAlpha"/><feOffset dy="2"/><feGaussianBlur stdDeviation="2"/><feColorMatrix values="0 0 0 0 0.268354 0 0 0 0 0.268354 0 0 0 0 0.31049 0 0 0 0.15 0"/><feBlend in2="BackgroundImageFix" result="effect1_dropShadow_256_1038"/><feBlend in="SourceGraphic" in2="effect1_dropShadow_256_1038" result="shape"/></filter><linearGradient id="paint0_linear_256_1038" x1="206.513" y1="120.057" x2="206.462" y2="303.057" gradientUnits="userSpaceOnUse"><stop stop-color="#2A85FF"/><stop offset="1" stop-color="#2A85FF" stop-opacity="0"/></linearGradient></defs></svg>