<svg width="420" height="120" fill="none" xmlns="http://www.w3.org/2000/svg"><g filter="url(#filter0_d_256_1112)"><rect x=".033" width="419" height="119" rx="8" transform="rotate(.016 .033 0)" fill="#000"/><path d="M34.58 65.828l.005-18.182h1.165l-.005 18.182H34.58zm3.093-12.18c-.057-.573-.3-1.018-.731-1.335-.431-.318-1.016-.476-1.755-.477-.501 0-.925.071-1.27.213-.346.137-.612.329-.797.575-.18.246-.27.526-.27.838-.01.26.045.488.164.682.123.194.29.362.504.505.213.137.459.258.738.362.28.1.578.185.895.256l1.307.313a9.215 9.215 0 011.747.568c.53.237.99.528 1.377.874.389.346.69.753.902 1.222.218.469.329 1.006.333 1.612-.005.89-.232 1.662-.682 2.316-.445.648-1.09 1.152-1.932 1.512-.839.355-1.85.532-3.033.532-1.174 0-2.197-.18-3.068-.54-.866-.361-1.543-.894-2.03-1.6-.484-.71-.737-1.588-.76-2.635l2.976.001c.033.488.172.895.418 1.222.251.322.585.566 1.002.732.421.16.897.241 1.427.242.52 0 .973-.076 1.357-.227.388-.152.689-.362.902-.632.213-.27.32-.58.32-.93a1.21 1.21 0 00-.291-.824c-.19-.223-.469-.413-.838-.569a8.526 8.526 0 00-1.342-.426l-1.584-.398c-1.226-.3-2.194-.766-2.904-1.4-.71-.635-1.063-1.49-1.058-2.565-.005-.88.23-1.65.704-2.308.478-.658 1.134-1.171 1.967-1.54.834-.37 1.78-.554 2.841-.554 1.08 0 2.022.186 2.827.555.81.37 1.44.884 1.889 1.542.45.658.681 1.42.695 2.287h-2.947zm10.503 10.564c-1.06 0-2.005-.183-2.834-.548-.823-.369-1.474-.876-1.952-1.52-.474-.649-.717-1.397-.731-2.244h3.096c.02.355.135.668.348.938.218.265.506.471.866.618.36.147.765.22 1.215.22.469 0 .883-.082 1.243-.248a2.04 2.04 0 00.845-.688c.204-.294.306-.632.306-1.016a1.7 1.7 0 00-.327-1.03c-.213-.303-.52-.54-.923-.71-.398-.17-.87-.256-1.42-.256H46.55v-2.26l1.357.001c.465 0 .874-.08 1.23-.24a1.98 1.98 0 00.837-.668c.2-.29.299-.625.299-1.009a1.74 1.74 0 00-.263-.959 1.735 1.735 0 00-.724-.653 2.355 2.355 0 00-1.08-.235c-.416 0-.797.076-1.143.227a1.999 1.999 0 00-.83.632c-.21.275-.32.596-.335.966l-2.947-.001c.014-.838.253-1.577.718-2.216.464-.639 1.089-1.138 1.875-1.498.79-.364 1.683-.546 2.678-.546 1.004 0 1.882.183 2.635.548.752.364 1.337.857 1.753 1.477.422.616.63 1.307.625 2.074.004.815-.25 1.494-.76 2.038-.508.545-1.168.89-1.983 1.037v.114c1.07.137 1.885.51 2.443 1.115.563.602.843 1.355.838 2.259a3.55 3.55 0 01-.718 2.209c-.479.643-1.14 1.15-1.982 1.519-.843.37-1.809.554-2.898.553zm14.14-14.74l-.005 14.545h-3.075l.003-11.627h-.085l-3.332 2.087.001-2.727 3.602-2.279h2.89zm5.988 12.558l-.078.781c-.062.625-.18 1.248-.356 1.868-.17.625-.35 1.191-.54 1.697a53.33 53.33 0 01-.448 1.194h-1.96c.071-.28.168-.67.292-1.173.123-.497.24-1.056.348-1.676.11-.62.178-1.252.207-1.896l.035-.796 2.5.001zm7.855 2.31c-1.222-.004-2.273-.305-3.153-.902-.876-.597-1.55-1.461-2.024-2.593-.468-1.132-.7-2.493-.695-4.084 0-1.586.236-2.938.705-4.055.473-1.118 1.148-1.967 2.024-2.55.881-.586 1.93-.88 3.147-.88 1.217.001 2.263.295 3.139.882.88.588 1.557 1.44 2.03 2.558.474 1.112.708 2.462.703 4.048 0 1.596-.238 2.96-.712 4.09-.469 1.132-1.141 1.996-2.018 2.593-.876.596-1.925.894-3.146.894zm0-2.55c.834.001 1.5-.418 1.997-1.256.497-.838.744-2.095.74-3.77 0-1.104-.114-2.023-.34-2.757-.223-.733-.54-1.285-.952-1.655a2.076 2.076 0 00-1.442-.554c-.828 0-1.491.414-1.989 1.242-.497.829-.748 2.07-.754 3.722 0 1.117.111 2.05.334 2.798.227.744.546 1.302.958 1.676a2.1 2.1 0 001.449.555zm13.333-12.51a6.28 6.28 0 012.16.377 4.973 4.973 0 011.86 1.201c.549.55.982 1.279 1.299 2.188.321.904.484 2.015.489 3.331 0 1.236-.14 2.34-.42 3.31-.275.966-.67 1.787-1.187 2.464a5.183 5.183 0 01-1.868 1.548c-.73.35-1.544.525-2.444.525-.97 0-1.827-.188-2.57-.562a4.828 4.828 0 01-1.797-1.542 4.798 4.798 0 01-.816-2.202l3.033.001c.118.53.366.942.745 1.236.379.289.848.433 1.406.434.947 0 1.667-.412 2.16-1.236.492-.828.741-1.962.746-3.401h-.1a3.481 3.481 0 01-.88 1.1 4.11 4.11 0 01-1.272.703 4.546 4.546 0 01-1.512.248c-.857 0-1.622-.202-2.294-.604a4.332 4.332 0 01-1.59-1.663c-.389-.705-.583-1.51-.582-2.414-.005-.976.22-1.845.675-2.607a4.755 4.755 0 011.904-1.79c.82-.434 1.77-.65 2.855-.645zm.02 2.415c-.477 0-.903.114-1.278.34a2.514 2.514 0 00-.88.917 2.546 2.546 0 00-.313 1.285c0 .478.103.91.312 1.293.213.379.501.682.866.91a2.4 2.4 0 001.264.333 2.436 2.436 0 001.776-.745c.227-.237.405-.509.533-.817a2.617 2.617 0 00-.134-2.244 2.497 2.497 0 00-.881-.923 2.35 2.35 0 00-1.264-.349zm7.916 12.332l.001-2.216 5.179-4.793c.44-.426.81-.81 1.108-1.15a4.36 4.36 0 00.689-1.001c.157-.331.235-.689.235-1.072 0-.427-.097-.794-.291-1.101a1.911 1.911 0 00-.795-.718 2.493 2.493 0 00-1.143-.256c-.446 0-.834.09-1.165.27-.332.18-.588.437-.768.773-.18.337-.27.737-.27 1.2h-2.919c0-.952.216-1.778.647-2.479a4.317 4.317 0 011.812-1.626c.776-.383 1.671-.574 2.685-.574 1.041 0 1.948.185 2.72.555.776.364 1.38.871 1.81 1.52.431.649.646 1.392.646 2.23 0 .55-.109 1.092-.327 1.627-.213.535-.595 1.129-1.144 1.782-.55.649-1.324 1.427-2.323 2.336l-2.124 2.08v.1l6.107.002v2.514l-10.37-.003z" fill="#fff"/><path d="M88.984 85.388v.994h-4.117v-.995l4.117.001zm-2.886 7.636l.003-8.69c0-.438.103-.803.308-1.094a1.91 1.91 0 01.8-.656 2.53 2.53 0 011.04-.219 2.688 2.688 0 011.114.2l-.339 1.014a5.884 5.884 0 00-.248-.075 1.508 1.508 0 00-.408-.045c-.388 0-.668.098-.84.293-.17.196-.254.482-.254.86l-.002 8.412h-1.174zm4.028 0l.002-7.636h1.134v1.154h.08c.138-.377.39-.684.755-.92a2.225 2.225 0 011.233-.352c.086 0 .194.002.323.005.13.003.227.008.293.015v1.193c-.04-.01-.13-.025-.273-.044a2.69 2.69 0 00-.443-.035c-.37 0-.702.077-.994.233a1.762 1.762 0 00-.686.636 1.715 1.715 0 00-.25.92v4.832h-1.174zm7.579.162c-.69 0-1.294-.164-1.814-.493a3.344 3.344 0 01-1.213-1.377c-.288-.59-.432-1.28-.432-2.068 0-.796.145-1.49.433-2.083a3.338 3.338 0 011.213-1.382c.52-.328 1.126-.492 1.815-.492.69 0 1.293.165 1.81.493.52.328.924.789 1.212 1.382.292.594.438 1.288.437 2.084 0 .788-.146 1.478-.438 2.068a3.296 3.296 0 01-1.213 1.376c-.517.328-1.12.492-1.81.492zm0-1.054c.524 0 .955-.134 1.293-.402a2.38 2.38 0 00.751-1.059c.163-.437.244-.911.244-1.422 0-.51-.08-.986-.243-1.427a2.405 2.405 0 00-.75-1.069c-.339-.272-.77-.408-1.293-.408-.524 0-.955.136-1.293.407a2.404 2.404 0 00-.75 1.07c-.163.44-.245.915-.245 1.426 0 .51.081.984.243 1.422.163.437.413.79.75 1.059.339.269.77.403 1.293.403zm4.751.896l.002-7.636h1.134v1.193h.099c.159-.407.416-.724.771-.949.355-.228.781-.343 1.278-.343.503 0 .923.115 1.257.344.338.225.602.542.791.95h.079c.196-.395.489-.708.88-.94.392-.235.861-.353 1.407-.352.683 0 1.242.214 1.676.641.434.425.651 1.086.65 1.984l-.001 5.111h-1.173l.001-5.111c0-.564-.154-.966-.462-1.208a1.711 1.711 0 00-1.089-.364c-.536 0-.952.163-1.248.487-.295.322-.442.73-.442 1.223l-.002 4.972h-1.193l.002-5.23c0-.435-.141-.784-.423-1.05-.281-.268-.644-.403-1.088-.403-.305 0-.59.081-.856.244a1.833 1.833 0 00-.636.676 1.997 1.997 0 00-.239.989l-.001 4.773h-1.174zm16.282-10.177l-.003 10.182h-1.173l.003-10.182h1.173zm3.893 10.362a3.1 3.1 0 01-1.317-.274 2.26 2.26 0 01-.94-.8c-.232-.352-.347-.776-.347-1.273 0-.438.086-.793.258-1.064a1.83 1.83 0 01.692-.646c.288-.156.606-.272.954-.348.352-.08.705-.143 1.059-.189.464-.06.841-.104 1.129-.134.292-.033.504-.087.636-.164.136-.076.204-.208.204-.397v-.04c0-.49-.134-.872-.402-1.144-.265-.271-.668-.407-1.208-.408-.56 0-.999.123-1.318.368-.318.245-.542.507-.671.785l-1.114-.398c.199-.464.465-.825.796-1.083.335-.262.7-.444 1.094-.547a4.545 4.545 0 011.173-.159c.246 0 .527.03.846.09.321.056.631.174.929.353.302.18.552.45.751.81.198.362.298.846.298 1.453l-.002 5.03h-1.173V92h-.059c-.08.166-.213.343-.398.532-.186.19-.433.35-.741.482-.309.133-.685.199-1.129.199zm.179-1.054c.464 0 .856-.091 1.174-.273a1.87 1.87 0 00.726-.706c.166-.288.249-.592.249-.91v-1.074c-.05.06-.159.115-.328.164a5.532 5.532 0 01-.577.124 26.377 26.377 0 01-1.124.15c-.305.04-.59.104-.855.193a1.47 1.47 0 00-.636.393c-.159.172-.239.407-.239.706 0 .407.151.715.452.924.305.206.691.309 1.158.309zm10.373-5.048l-1.054.298a1.957 1.957 0 00-.293-.513 1.423 1.423 0 00-.517-.417c-.218-.11-.499-.165-.84-.165-.467 0-.857.108-1.168.323-.309.212-.463.482-.463.81 0 .292.106.523.318.692.212.169.544.31.994.422l1.134.28c.682.165 1.191.419 1.526.76.334.338.502.774.502 1.308a1.945 1.945 0 01-.379 1.173c-.248.345-.596.617-1.044.815-.447.199-.968.298-1.561.298-.779 0-1.423-.17-1.934-.507-.51-.339-.833-.833-.969-1.482l1.114-.279c.106.412.306.72.601.925.298.206.688.309 1.168.309.547 0 .981-.116 1.303-.348.325-.235.487-.517.488-.845a.888.888 0 00-.279-.666c-.185-.182-.47-.318-.855-.408l-1.272-.299c-.7-.165-1.213-.422-1.541-.77-.325-.352-.487-.791-.487-1.318 0-.431.121-.812.363-1.144a2.47 2.47 0 011-.78 3.504 3.504 0 011.441-.283c.756 0 1.349.166 1.78.498.434.331.742.769.924 1.313zm4.727-1.71v.995l-3.957-.001V85.4h3.957zm-2.803-1.83h1.173l-.002 7.28c0 .33.048.58.144.745a.744.744 0 00.378.328c.156.053.32.08.492.08.129 0 .235-.007.318-.02l.199-.04.238 1.054c-.079.03-.19.06-.333.09-.142.033-.323.05-.542.05-.331 0-.656-.072-.974-.215a1.929 1.929 0 01-.785-.651c-.206-.292-.308-.66-.308-1.104l.002-7.597zm8.258 12.332c-.198 0-.376-.016-.531-.05a1.42 1.42 0 01-.324-.09l.299-1.033c.285.073.537.1.756.08a.905.905 0 00.581-.294c.173-.172.33-.452.473-.84l.219-.596-2.822-7.677h1.273l2.106 6.086h.08l2.109-6.085h1.273l-3.244 8.75c-.146.394-.327.72-.542.98a2.036 2.036 0 01-.751.58c-.282.126-.6.19-.955.19zm9.467-2.702c-.736 0-1.371-.162-1.904-.487a3.272 3.272 0 01-1.228-1.373c-.285-.59-.427-1.276-.427-2.058 0-.782.143-1.472.428-2.068.289-.6.69-1.067 1.204-1.402.517-.338 1.12-.507 1.81-.507.397 0 .79.067 1.178.2.388.132.741.348 1.059.646.318.295.571.686.76 1.174.189.487.283 1.087.283 1.8v.497l-5.887-.002.001-1.014 4.693.001c0-.43-.086-.815-.258-1.153a1.948 1.948 0 00-.726-.801c-.312-.196-.679-.293-1.104-.294-.467 0-.871.116-1.213.348a2.296 2.296 0 00-.781.895 2.632 2.632 0 00-.273 1.183l-.001.676c0 .577.1 1.066.298 1.467.202.397.482.7.84.91.358.205.774.308 1.248.308.308 0 .587-.043.835-.129a1.81 1.81 0 00.652-.397c.182-.18.323-.401.422-.666l1.134.318c-.119.385-.32.723-.602 1.014-.282.288-.63.514-1.044.676a3.87 3.87 0 01-1.397.238zm6.694.022c-.484 0-.923-.091-1.318-.274a2.262 2.262 0 01-.939-.8c-.232-.352-.348-.776-.348-1.273 0-.438.087-.792.259-1.064.172-.275.403-.49.691-.646.289-.156.607-.272.955-.348.351-.08.704-.142 1.059-.189.464-.06.84-.104 1.128-.133.292-.034.504-.088.637-.164.136-.077.204-.21.204-.398v-.04c0-.49-.134-.872-.403-1.143-.265-.272-.667-.408-1.208-.409-.56 0-.999.123-1.317.368-.318.245-.542.507-.671.785l-1.114-.398c.199-.464.464-.825.796-1.083a2.979 2.979 0 011.094-.547 4.54 4.54 0 011.173-.159c.245 0 .527.03.845.09.322.057.631.174.93.353.301.18.551.45.75.811.199.361.298.845.298 1.452l-.001 5.031h-1.174l.001-1.034h-.06c-.08.165-.212.343-.398.531a2.28 2.28 0 01-.741.483c-.308.132-.684.198-1.128.198zm.179-1.054c.464 0 .855-.09 1.173-.273.322-.182.564-.418.726-.706.166-.288.249-.591.249-.91v-1.073c-.049.06-.159.114-.328.164a5.509 5.509 0 01-.576.124 25.937 25.937 0 01-1.124.149c-.305.04-.59.104-.855.193a1.479 1.479 0 00-.637.393c-.159.172-.238.407-.239.706 0 .407.151.716.453.924.305.206.691.309 1.158.31zm4.962.877l.002-7.637h1.134v1.154h.079a1.83 1.83 0 01.756-.92 2.226 2.226 0 011.233-.352 10.33 10.33 0 01.617.02l-.001 1.193a3.543 3.543 0 00-.273-.045 2.693 2.693 0 00-.443-.035c-.371 0-.702.078-.994.234a1.713 1.713 0 00-.935 1.556l-.001 4.832h-1.174z" fill="#5C616E"/><path d="M45.229 91.123v-1.467l4.322-6.825h1.223v2.089h-.746l-2.91 4.608v.08h6.03v1.517l-7.92-.002zm4.856 1.89l.001-2.336.02-.656.002-7.19 1.74.001-.003 10.182h-1.76zm5.493.111c-.302 0-.56-.106-.776-.318a1.03 1.03 0 01-.318-.776 1.019 1.019 0 01.319-.765c.215-.212.474-.318.775-.318.292 0 .545.106.76.318a1.046 1.046 0 01.175 1.318c-.1.165-.233.298-.398.397a1.036 1.036 0 01-.537.144zm2.932-.108v-1.333l3.536-3.464a16.7 16.7 0 00.845-.91 3.3 3.3 0 00.508-.77c.112-.248.169-.514.169-.795 0-.322-.073-.597-.219-.826a1.455 1.455 0 00-.601-.537 1.94 1.94 0 00-.87-.189c-.335 0-.628.07-.88.209a1.44 1.44 0 00-.587.581 1.869 1.869 0 00-.204.9h-1.755c0-.647.148-1.209.443-1.686a2.986 2.986 0 011.218-1.108c.52-.262 1.117-.392 1.79-.392.683 0 1.283.128 1.8.383.517.255.918.605 1.203 1.05.288.444.432.95.432 1.52 0 .382-.073.757-.22 1.124-.145.368-.402.776-.77 1.223-.365.448-.877.99-1.537 1.625l-1.755 1.785v.07h4.434v1.542l-6.98-.002zm14.14-1.905v-.537a2.4 2.4 0 01.248-1.089 2.01 2.01 0 01.737-.8c.321-.202.71-.303 1.168-.303.47 0 .865.101 1.183.303.318.2.558.465.72.796.166.332.25.696.249 1.094v.537a2.4 2.4 0 01-.249 1.089c-.166.33-.41.598-.731.8-.318.202-.71.303-1.173.303-.465 0-.857-.102-1.179-.304a1.974 1.974 0 01-.73-.8 2.44 2.44 0 01-.244-1.09zm1.297-.537v.537c0 .262.063.502.189.72.126.22.348.33.666.33.321 0 .542-.108.661-.324a1.45 1.45 0 00.184-.725v-.537a1.52 1.52 0 00-.173-.726c-.116-.223-.34-.334-.671-.334-.312 0-.532.111-.662.333a1.4 1.4 0 00-.194.726zm-6.471-5.291v-.537c0-.398.085-.763.254-1.094.169-.332.414-.597.736-.795.321-.202.71-.303 1.168-.303.467 0 .86.101 1.178.303.322.2.564.465.726.796.162.331.243.696.243 1.094v.537c0 .397-.083.762-.249 1.093a1.915 1.915 0 01-.726.79c-.322.2-.713.299-1.173.299-.468 0-.862-.1-1.183-.299a1.952 1.952 0 01-.726-.796 2.4 2.4 0 01-.248-1.088zm1.307-.537v.537c0 .265.061.507.184.726.126.215.348.323.666.323.318 0 .537-.107.656-.323.123-.219.184-.46.184-.726v-.537a1.52 1.52 0 00-.173-.725c-.116-.223-.338-.334-.666-.334-.315 0-.536.111-.662.333a1.447 1.447 0 00-.189.726zm-.743 8.273l7.003-10.18h1.243l-7.003 10.18H68.04z" fill="#60D39C"/><g clip-path="url(#clip0_256_1112)" stroke="#60D39C" stroke-width="2" stroke-linecap="round"><path d="M30.759 87.258l3.75-3.749 3.75 3.751" stroke-linejoin="round"/><path d="M34.507 92.51l.003-9"/></g><path d="M35.181 27.627a1.358 1.358 0 00-.586-1.014c-.341-.242-.786-.364-1.332-.364-.385 0-.715.058-.99.174a1.465 1.465 0 00-.631.472c-.146.199-.22.426-.224.681 0 .212.048.396.144.552.1.156.233.288.402.398.17.106.357.195.562.268.205.073.413.135.621.185l.955.239a6.6 6.6 0 011.109.363c.357.152.677.345.959.577.285.232.51.512.676.84.165.328.248.713.248 1.154 0 .596-.153 1.121-.458 1.575-.305.451-.746.804-1.323 1.059-.573.252-1.267.377-2.083.377-.792 0-1.48-.123-2.063-.368-.58-.246-1.034-.604-1.362-1.074-.325-.471-.5-1.045-.526-1.72h1.814c.027.354.136.65.328.885s.443.41.75.527c.312.116.66.174 1.045.174.4 0 .752-.06 1.054-.178a1.72 1.72 0 00.716-.507c.172-.219.26-.474.264-.766a.973.973 0 00-.234-.656 1.712 1.712 0 00-.641-.438 6.179 6.179 0 00-.955-.318l-1.158-.299c-.838-.216-1.501-.542-1.988-.98-.484-.44-.726-1.026-.726-1.755 0-.6.163-1.125.488-1.576.328-.45.774-.8 1.338-1.049.563-.251 1.201-.377 1.914-.377.722 0 1.355.127 1.899.379.547.248.976.595 1.287 1.039.312.44.472.948.482 1.521h-1.775zm5.674 7.538a3.19 3.19 0 01-1.307-.258 2.134 2.134 0 01-.915-.776c-.222-.342-.333-.763-.332-1.263 0-.431.08-.787.239-1.069.159-.282.376-.507.651-.676.275-.169.585-.296.93-.383a7.643 7.643 0 011.079-.193c.447-.046.81-.088 1.088-.124.279-.04.481-.1.607-.179.13-.083.194-.21.194-.383v-.03c0-.374-.11-.664-.333-.87-.222-.205-.541-.308-.96-.308-.44 0-.79.096-1.048.288-.255.192-.428.42-.517.68l-1.68-.238c.132-.464.35-.852.656-1.163.305-.315.678-.55 1.119-.706a4.28 4.28 0 011.461-.238c.368 0 .734.043 1.099.13.364.086.698.228 1 .427.3.196.543.463.725.8.185.339.278.762.278 1.269l-.002 5.11h-1.73v-1.05h-.06a2.146 2.146 0 01-.462.597c-.195.183-.442.33-.74.443a3.004 3.004 0 01-1.04.163zm.468-1.322c.361 0 .675-.071.94-.213.265-.146.469-.338.611-.577a1.47 1.47 0 00.22-.78v-.9a.848.848 0 01-.289.129c-.132.04-.282.074-.447.104-.166.03-.33.056-.492.08l-.423.06a3.142 3.142 0 00-.72.178 1.2 1.2 0 00-.503.348c-.123.146-.184.334-.184.567 0 .33.12.581.362.75.242.17.55.254.925.254zm7.177-9.011l-.003 10.181h-1.8L46.7 24.83h1.8zm5.228 10.332c-.766 0-1.427-.16-1.983-.478a3.233 3.233 0 01-1.278-1.362c-.298-.59-.447-1.285-.447-2.084 0-.785.15-1.474.448-2.068a3.384 3.384 0 011.264-1.391c.54-.335 1.175-.502 1.904-.502.47 0 .915.076 1.332.23.421.148.792.38 1.114.695.324.315.58.716.765 1.204.185.484.278 1.06.278 1.73v.552l-6.26-.002v-1.213l4.535.001a1.936 1.936 0 00-.224-.92 1.627 1.627 0 00-.61-.641 1.72 1.72 0 00-.906-.234c-.368 0-.69.09-.97.268a1.85 1.85 0 00-.65.696 2.005 2.005 0 00-.235.94v1.059c0 .444.081.825.243 1.143.163.315.39.557.681.726.292.166.633.249 1.024.249.262 0 .5-.036.711-.11.212-.075.396-.186.552-.332.156-.146.274-.327.353-.542l1.68.19a2.618 2.618 0 01-.606 1.163 2.956 2.956 0 01-1.134.765c-.46.179-.988.268-1.58.268zM64.683 29.4l-1.64.178a1.318 1.318 0 00-.244-.467 1.209 1.209 0 00-.457-.353 1.666 1.666 0 00-.706-.134c-.375 0-.69.08-.945.243-.252.162-.376.373-.373.631a.661.661 0 00.244.542c.169.14.447.254.835.343l1.302.28c.723.155 1.26.402 1.61.74.356.339.534.781.538 1.328-.004.48-.145.905-.423 1.273-.276.364-.659.649-1.15.854-.49.206-1.053.308-1.69.308-.934 0-1.687-.196-2.257-.587-.57-.395-.909-.943-1.018-1.646l1.755-.169c.08.345.248.605.507.781.258.176.595.264 1.009.264.427 0 .77-.088 1.03-.263.26-.176.392-.393.392-.651 0-.22-.084-.4-.253-.543-.166-.142-.425-.252-.776-.328l-1.302-.274c-.733-.152-1.275-.41-1.626-.77-.351-.365-.525-.826-.522-1.383-.003-.47.125-.878.384-1.223.262-.348.625-.616 1.089-.805.467-.192 1.006-.288 1.615-.288.895 0 1.6.191 2.113.573.517.38.837.896.96 1.546z" fill="#5C616F"/><path d="M255.624 65.889l.005-18.182h1.165l-.005 18.182h-1.165zm3.093-12.18c-.056-.573-.3-1.018-.731-1.335-.431-.318-1.015-.476-1.754-.477-.502 0-.926.071-1.271.213-.346.137-.611.329-.796.575-.18.246-.27.526-.27.838-.01.26.045.488.163.682.123.194.291.362.504.505.213.137.459.258.739.362.279.1.577.185.894.256l1.307.313a9.196 9.196 0 011.747.568c.53.237.99.528 1.378.874.388.346.689.753.901 1.222.218.469.329 1.006.334 1.612-.005.89-.233 1.662-.683 2.316-.445.648-1.089 1.152-1.932 1.512-.838.355-1.849.532-3.033.532-1.174 0-2.197-.18-3.068-.54-.866-.361-1.543-.894-2.031-1.6-.482-.71-.735-1.588-.759-2.635l2.976.001c.033.488.173.895.419 1.222a2.33 2.33 0 001.001.732c.421.16.897.241 1.428.242.52 0 .973-.076 1.356-.227.388-.152.689-.362.902-.632.213-.27.32-.58.32-.93a1.21 1.21 0 00-.291-.824c-.189-.223-.468-.413-.838-.569a8.516 8.516 0 00-1.342-.426l-1.584-.398c-1.226-.3-2.194-.766-2.904-1.4-.71-.635-1.063-1.49-1.058-2.565-.004-.88.23-1.65.704-2.308.479-.658 1.134-1.171 1.968-1.54.833-.37 1.78-.554 2.841-.554 1.08 0 2.022.186 2.827.555.809.37 1.439.884 1.888 1.542.45.658.682 1.42.696 2.287h-2.948zm5.127 10.364l.001-2.216 5.178-4.793c.441-.426.81-.81 1.109-1.15a4.36 4.36 0 00.689-1.001 2.49 2.49 0 00.235-1.073c0-.426-.097-.793-.291-1.1a1.908 1.908 0 00-.796-.718 2.49 2.49 0 00-1.143-.256c-.445 0-.833.09-1.165.27-.331.18-.587.437-.767.773-.18.337-.27.737-.27 1.2h-2.919c0-.952.216-1.778.647-2.479a4.318 4.318 0 011.811-1.626c.777-.383 1.672-.574 2.685-.574 1.042 0 1.948.185 2.72.555.777.364 1.38.871 1.811 1.52.43.649.646 1.392.645 2.23 0 .55-.109 1.092-.327 1.627-.213.535-.594 1.129-1.144 1.782-.549.649-1.323 1.427-2.323 2.336l-2.124 2.08v.1l6.108.002-.001 2.514-10.369-.003zm17.865-14.74a6.28 6.28 0 012.159.377 4.978 4.978 0 011.86 1.201c.549.55.982 1.279 1.299 2.188.322.905.485 2.015.489 3.331 0 1.236-.14 2.34-.42 3.31-.275.966-.67 1.787-1.186 2.464a5.192 5.192 0 01-1.869 1.548c-.729.35-1.544.525-2.443.525-.971 0-1.828-.188-2.571-.562a4.825 4.825 0 01-1.796-1.542 4.802 4.802 0 01-.817-2.202l3.033.001c.118.53.367.942.745 1.236.379.289.848.434 1.407.434.947 0 1.666-.412 2.159-1.236.493-.828.742-1.962.747-3.401h-.1a3.474 3.474 0 01-.881 1.1 4.096 4.096 0 01-1.271.703 4.55 4.55 0 01-1.513.248c-.857 0-1.622-.201-2.294-.604a4.332 4.332 0 01-1.59-1.663c-.388-.705-.582-1.51-.582-2.415-.005-.975.221-1.844.675-2.606a4.759 4.759 0 011.904-1.789c.819-.435 1.771-.65 2.856-.646zm.02 2.415c-.478 0-.904.114-1.278.34-.37.228-.663.533-.881.917a2.546 2.546 0 00-.313 1.285c0 .478.104.91.312 1.293.213.379.502.682.866.91.369.222.791.333 1.264.333a2.44 2.44 0 001.776-.745c.227-.237.405-.509.533-.817a2.62 2.62 0 00-.134-2.244 2.498 2.498 0 00-.881-.923 2.348 2.348 0 00-1.264-.349zm10.647 10.344l-.078.781c-.062.625-.18 1.248-.356 1.868-.17.625-.351 1.19-.54 1.697-.185.507-.334.905-.448 1.193h-1.96c.071-.28.168-.67.291-1.172a24.5 24.5 0 00.349-1.676c.109-.62.178-1.252.206-1.896l.036-.796 2.5.001zm7.253-12.555l-.004 14.546-3.075-.001.003-11.627h-.085l-3.332 2.088.001-2.728 3.602-2.279 2.89.001zm3.453 14.547l.001-2.216 5.179-4.793c.44-.426.81-.81 1.108-1.15a4.36 4.36 0 00.689-1.001c.157-.332.235-.69.235-1.073 0-.426-.097-.793-.291-1.1a1.912 1.912 0 00-.795-.718 2.492 2.492 0 00-1.144-.256c-.445 0-.833.09-1.164.27-.332.18-.588.437-.768.773-.18.336-.27.736-.27 1.2h-2.919c0-.952.216-1.778.647-2.479a4.314 4.314 0 011.812-1.626c.776-.383 1.671-.575 2.684-.574 1.042 0 1.949.185 2.72.554.777.365 1.38.872 1.811 1.52.431.65.646 1.393.646 2.231a4.28 4.28 0 01-.327 1.627c-.214.534-.595 1.129-1.144 1.782-.55.648-1.324 1.427-2.323 2.336l-2.125 2.08v.1l6.108.001v2.514l-10.37-.002zm18.024.203c-1.094 0-2.067-.178-2.919-.533-.847-.36-1.512-.85-1.995-1.47a3.343 3.343 0 01-.724-2.11c0-.606.138-1.163.412-1.67.28-.51.659-.934 1.137-1.27a3.744 3.744 0 011.605-.653v-.1a3.156 3.156 0 01-1.889-1.13 3.247 3.247 0 01-.723-2.095c0-.753.22-1.422.661-2.01.44-.591 1.044-1.055 1.811-1.391.772-.34 1.648-.511 2.628-.51.98 0 1.854.17 2.621.511.771.341 1.377.808 1.818 1.4.44.587.662 1.255.667 2.003-.005.8-.252 1.499-.74 2.095a3.173 3.173 0 01-1.875 1.129v.1c.582.094 1.11.312 1.584.653.478.336.856.76 1.136 1.272a3.4 3.4 0 01.432 1.669 3.373 3.373 0 01-.732 2.109c-.483.62-1.151 1.11-2.003 1.47-.848.355-1.818.532-2.912.531zm.001-2.258c.487 0 .913-.087 1.278-.263a2.1 2.1 0 00.853-.738c.208-.317.312-.682.312-1.093a1.967 1.967 0 00-.319-1.116 2.2 2.2 0 00-.866-.767 2.691 2.691 0 00-1.257-.284c-.469 0-.888.094-1.257.283a2.18 2.18 0 00-.874.767 2.001 2.001 0 00-.313 1.115c0 .412.102.777.305 1.094.204.313.49.559.859.739.37.175.796.263 1.279.263zm.001-6.499c.408 0 .77-.082 1.087-.248.317-.165.566-.395.746-.689.18-.293.27-.632.27-1.015 0-.379-.09-.71-.269-.995a1.849 1.849 0 00-.739-.675 2.299 2.299 0 00-1.093-.248c-.412 0-.777.082-1.094.248-.318.16-.566.386-.746.674a1.849 1.849 0 00-.263.995c0 .383.089.722.269 1.015.18.294.429.524.746.69a2.31 2.31 0 001.086.248z" fill="#fff"/><path d="M310.028 85.45v.993h-4.117v-.995l4.117.001zm-2.886 7.635l.003-8.69c0-.438.103-.803.308-1.094.206-.292.473-.51.801-.656a2.527 2.527 0 011.039-.219c.288 0 .524.024.706.07.182.047.318.09.408.13l-.339 1.014a5.51 5.51 0 00-.248-.075 1.512 1.512 0 00-.408-.045c-.388 0-.668.098-.84.293-.169.196-.254.482-.254.86l-.002 8.412h-1.174zm4.028 0l.002-7.635h1.134l-.001 1.153h.08c.139-.377.391-.684.756-.92a2.226 2.226 0 011.233-.352c.086 0 .194.002.323.005.129.004.227.008.293.015v1.193a3.543 3.543 0 00-.273-.044 2.693 2.693 0 00-.443-.035c-.371 0-.702.077-.994.233a1.712 1.712 0 00-.935 1.556l-.002 4.832h-1.173zm7.579.162c-.689 0-1.294-.164-1.815-.493a3.345 3.345 0 01-1.212-1.377c-.288-.59-.432-1.28-.432-2.068 0-.796.144-1.49.433-2.083a3.339 3.339 0 011.213-1.382c.521-.328 1.126-.492 1.815-.492.69 0 1.293.165 1.81.493.52.328.924.789 1.212 1.382.292.594.437 1.288.437 2.084 0 .788-.146 1.478-.438 2.068a3.297 3.297 0 01-1.213 1.376c-.517.328-1.121.492-1.81.492zm0-1.054c.524 0 .955-.134 1.293-.402a2.38 2.38 0 00.751-1.059 4.04 4.04 0 00.244-1.422c0-.51-.081-.986-.243-1.427a2.411 2.411 0 00-.751-1.069c-.338-.272-.768-.408-1.292-.408s-.955.136-1.293.407a2.41 2.41 0 00-.751 1.07c-.162.44-.244.916-.244 1.426 0 .51.081.984.243 1.422.163.437.413.79.751 1.06.338.268.769.402 1.292.402zm4.751.896l.002-7.636h1.134v1.193h.099c.159-.407.416-.724.771-.949.355-.228.78-.343 1.278-.343.503 0 .923.115 1.257.344.338.225.602.542.791.95h.079c.196-.395.489-.708.88-.94.392-.235.861-.352 1.407-.352.683 0 1.242.214 1.676.641.434.425.651 1.086.65 1.984l-.001 5.111h-1.173l.001-5.111c0-.563-.154-.966-.462-1.208a1.711 1.711 0 00-1.089-.364c-.537 0-.953.163-1.248.487-.295.322-.442.73-.442 1.223l-.002 4.972h-1.193l.001-5.23c.001-.435-.14-.785-.422-1.05-.281-.268-.644-.403-1.088-.403-.305 0-.59.081-.856.244a1.833 1.833 0 00-.636.676 1.997 1.997 0 00-.239.989l-.001 4.773H323.5zm16.282-10.177l-.003 10.182h-1.173l.003-10.182h1.173zm3.893 10.362a3.1 3.1 0 01-1.317-.274 2.26 2.26 0 01-.94-.8c-.232-.352-.348-.776-.347-1.273 0-.438.086-.793.258-1.064a1.83 1.83 0 01.692-.646c.288-.156.606-.272.954-.348.352-.08.705-.142 1.059-.189.464-.06.841-.104 1.129-.134.292-.033.504-.087.636-.164.136-.076.204-.208.204-.397v-.04c0-.49-.134-.872-.402-1.144-.265-.272-.668-.407-1.208-.408-.56 0-.999.123-1.318.368-.318.245-.542.507-.671.785l-1.114-.398c.199-.464.465-.825.796-1.083.335-.262.7-.444 1.094-.547a4.545 4.545 0 011.173-.159c.246 0 .527.03.846.09.321.056.631.174.929.353.302.18.552.45.751.81.198.362.298.846.298 1.453l-.002 5.03h-1.173v-1.034h-.06a2.062 2.062 0 01-.397.532c-.186.19-.433.35-.741.482-.309.133-.685.199-1.129.199zm.179-1.054c.464 0 .855-.091 1.174-.273a1.868 1.868 0 00.975-1.616v-1.074c-.05.06-.159.115-.328.164a5.53 5.53 0 01-.577.125 26.886 26.886 0 01-1.124.148c-.305.04-.59.105-.855.194a1.47 1.47 0 00-.636.393c-.159.172-.239.407-.239.706 0 .407.151.716.452.924.305.206.691.309 1.158.309zm10.373-5.048l-1.054.298a1.957 1.957 0 00-.293-.513 1.423 1.423 0 00-.517-.417c-.219-.11-.499-.165-.84-.165-.467 0-.857.108-1.168.323-.309.212-.463.482-.463.81 0 .292.106.523.318.692.212.169.544.31.994.422l1.134.28c.682.165 1.191.419 1.526.76.334.338.502.774.502 1.308a1.945 1.945 0 01-.379 1.173c-.248.345-.596.617-1.044.815-.447.199-.968.298-1.561.298-.779 0-1.424-.17-1.934-.507-.51-.339-.833-.833-.969-1.482l1.114-.278c.106.41.306.719.601.924.298.206.688.309 1.168.309.547 0 .981-.116 1.303-.348.325-.235.487-.517.487-.845a.883.883 0 00-.278-.666c-.185-.182-.47-.318-.855-.408l-1.272-.299c-.7-.165-1.213-.422-1.541-.77-.325-.352-.487-.791-.487-1.318 0-.431.121-.812.363-1.144.245-.33.579-.591.999-.78a3.513 3.513 0 011.442-.283c.756 0 1.349.166 1.78.498.434.332.742.769.924 1.313zm4.727-1.71v.995l-3.957-.001v-.994h3.957zm-2.803-1.83h1.173l-.002 7.28c0 .33.048.58.144.745a.744.744 0 00.378.328c.156.053.32.08.492.08.129 0 .235-.007.318-.02l.199-.04.238 1.054c-.079.03-.19.06-.333.09-.142.033-.323.05-.542.05-.331 0-.656-.072-.974-.215a1.929 1.929 0 01-.785-.651c-.206-.292-.308-.66-.308-1.104l.002-7.597zm8.258 12.332c-.198 0-.376-.016-.532-.05a1.423 1.423 0 01-.323-.09l.299-1.033c.285.073.537.1.756.08a.905.905 0 00.581-.294c.173-.172.33-.452.473-.84l.219-.596-2.822-7.677h1.273l2.106 6.086h.08l2.109-6.085h1.273l-3.244 8.75c-.146.394-.327.72-.542.98a2.036 2.036 0 01-.751.58c-.282.126-.6.19-.955.19zm9.467-2.702c-.736 0-1.371-.162-1.904-.487a3.272 3.272 0 01-1.228-1.373c-.285-.59-.427-1.276-.427-2.058 0-.782.143-1.472.428-2.068.289-.6.69-1.067 1.204-1.402.517-.338 1.12-.507 1.81-.507.397 0 .79.067 1.178.2.388.132.74.348 1.059.646.318.295.571.686.76 1.174.189.487.283 1.087.283 1.8v.497l-5.887-.002.001-1.014 4.693.001c0-.43-.086-.815-.258-1.153a1.948 1.948 0 00-.726-.801c-.312-.196-.679-.294-1.104-.294-.467 0-.871.116-1.213.348a2.296 2.296 0 00-.781.895 2.632 2.632 0 00-.273 1.183l-.001.676c0 .577.1 1.066.298 1.467.202.398.482.7.84.91.358.205.774.308 1.248.308.308 0 .587-.043.835-.129a1.81 1.81 0 00.652-.397c.182-.18.323-.401.422-.666l1.134.318a2.51 2.51 0 01-.602 1.014c-.282.288-.63.514-1.044.676-.415.159-.88.238-1.397.238zm6.694.022c-.484 0-.923-.091-1.318-.274a2.263 2.263 0 01-.939-.8c-.232-.352-.348-.776-.348-1.273 0-.438.087-.792.259-1.064.172-.275.403-.49.691-.646.289-.156.607-.272.955-.348.351-.08.704-.142 1.059-.189.464-.06.84-.104 1.128-.133.292-.034.504-.088.637-.164.136-.077.204-.21.204-.398v-.04c0-.49-.134-.872-.403-1.143-.265-.272-.667-.408-1.208-.408-.56 0-.999.122-1.317.367-.318.245-.542.507-.672.785l-1.113-.398c.199-.464.464-.825.796-1.083a2.979 2.979 0 011.094-.547 4.53 4.53 0 011.173-.159c.245 0 .527.03.845.09.322.057.631.174.93.353.301.18.551.45.75.811.199.361.298.845.298 1.452l-.001 5.031h-1.174l.001-1.034h-.06c-.08.165-.212.343-.398.531-.186.19-.432.35-.741.483-.308.132-.684.198-1.128.198zm.179-1.054c.464 0 .855-.09 1.173-.273a1.85 1.85 0 00.726-.706c.166-.288.249-.591.249-.91v-1.073c-.049.06-.159.114-.328.164a5.509 5.509 0 01-.576.124 26.447 26.447 0 01-1.124.149c-.305.04-.59.104-.855.193a1.479 1.479 0 00-.637.393c-.159.172-.238.407-.239.706 0 .407.151.716.453.925.304.205.691.308 1.158.308zm4.962.876l.002-7.636h1.134l-.001 1.154h.08a1.83 1.83 0 01.756-.92 2.226 2.226 0 011.233-.352 10.33 10.33 0 01.616.02v1.193a3.543 3.543 0 00-.273-.045 2.693 2.693 0 00-.443-.035c-.371 0-.702.078-.994.234a1.713 1.713 0 00-.935 1.556l-.002 4.832h-1.173z" fill="#5C616E"/><path d="M271.948 82.893l-.003 10.182h-1.844l.002-8.388h-.06l-2.382 1.52.001-1.69 2.531-1.625h1.755zm3.15 10.292c-.301 0-.56-.106-.775-.318a1.026 1.026 0 01-.318-.776 1.021 1.021 0 01.318-.766c.216-.212.474-.318.776-.318.291 0 .545.107.76.319a1.043 1.043 0 01.174 1.317 1.136 1.136 0 01-.398.398 1.033 1.033 0 01-.537.144zm2.932-.109l.001-1.332 3.535-3.464c.339-.341.62-.645.846-.91.225-.265.394-.522.507-.77a1.9 1.9 0 00.169-.796c0-.321-.072-.596-.218-.825a1.453 1.453 0 00-.602-.537 1.94 1.94 0 00-.87-.19c-.334 0-.628.07-.88.21a1.43 1.43 0 00-.586.58 1.868 1.868 0 00-.204.9h-1.755c0-.646.147-1.208.442-1.685a2.994 2.994 0 011.219-1.108c.52-.262 1.117-.393 1.79-.393.682 0 1.282.128 1.799.384.517.255.918.605 1.203 1.049.288.444.432.951.432 1.521 0 .382-.073.756-.219 1.124-.146.368-.403.775-.771 1.223-.364.447-.877.989-1.536 1.625l-1.756 1.784v.07l4.435.001-.001 1.541-6.98-.002zm14.14-1.905v-.537c0-.394.083-.757.249-1.088.169-.332.414-.599.736-.8.322-.203.711-.304 1.168-.304.471 0 .865.102 1.184.304.318.199.558.464.72.796.166.331.249.696.248 1.093v.537c0 .395-.083.758-.249 1.09a1.965 1.965 0 01-.731.8c-.318.201-.709.302-1.173.302-.464 0-.857-.101-1.178-.303a1.975 1.975 0 01-.731-.8 2.446 2.446 0 01-.243-1.09zm1.298-.536v.537c-.001.261.062.502.188.72.126.22.348.329.666.329.322 0 .542-.108.662-.323.122-.219.184-.46.184-.726v-.537c0-.265-.058-.507-.174-.726-.116-.222-.339-.333-.671-.333-.311 0-.532.11-.661.333-.13.219-.194.46-.194.726zm-6.472-5.292v-.537c0-.398.085-.762.254-1.093.169-.332.415-.597.736-.796.322-.202.711-.303 1.169-.303.467 0 .86.102 1.178.304.321.199.563.464.725.795.163.332.244.697.244 1.094v.537a2.434 2.434 0 01-.249 1.094 1.921 1.921 0 01-.726.79c-.322.199-.713.298-1.174.298-.467 0-.862-.1-1.183-.298a1.956 1.956 0 01-.726-.796 2.41 2.41 0 01-.248-1.089zm1.308-.537v.537c0 .266.061.508.183.726.126.216.348.324.667.324.318 0 .536-.108.656-.323.123-.219.184-.46.184-.726v-.537c0-.265-.058-.507-.174-.726-.116-.222-.338-.333-.666-.333-.315 0-.535.11-.661.333a1.446 1.446 0 00-.189.725zm-.743 8.273l7.003-10.18h1.242l-7.002 10.18h-1.243z" fill="#E35454"/><g clip-path="url(#clip1_256_1112)" stroke="#E35454" stroke-width="2" stroke-linecap="round"><path d="M251.797 88.791l3.721 3.779 3.779-3.721" stroke-linejoin="round"/><path d="M255.587 83.57l-.069 9"/></g><path d="M250.574 24.887l2.257.001 3.021 7.379h.119l3.025-7.377h2.257l-.002 10.182h-1.77l.002-6.995h-.095l-2.816 6.964h-1.322l-2.812-6.981h-.095l-.002 7.01h-1.769l.002-10.183zm14.803 10.34c-.484 0-.92-.086-1.308-.258a2.134 2.134 0 01-.914-.776c-.222-.342-.333-.763-.333-1.263 0-.431.08-.787.239-1.069a1.84 1.84 0 01.652-.676c.275-.169.585-.296.929-.383a7.57 7.57 0 011.079-.193 42.49 42.49 0 001.089-.124c.278-.04.481-.1.607-.179.129-.083.194-.21.194-.383v-.03c0-.374-.111-.664-.333-.87-.222-.205-.542-.308-.96-.308-.44 0-.79.096-1.049.288a1.44 1.44 0 00-.517.68l-1.68-.238c.132-.464.351-.852.656-1.163.305-.315.678-.55 1.119-.706a4.283 4.283 0 011.462-.238c.368 0 .734.043 1.098.13.365.085.698.228 1 .427.301.196.543.463.725.8.186.339.278.761.278 1.269l-.001 5.11h-1.73v-1.05h-.06a2.165 2.165 0 01-.462.597 2.23 2.23 0 01-.741.443 2.994 2.994 0 01-1.039.163zm.468-1.322c.361 0 .674-.071.939-.214.265-.145.469-.337.612-.576.146-.239.219-.499.219-.78v-.9a.84.84 0 01-.288.129c-.133.04-.282.074-.448.104-.165.03-.329.056-.492.08l-.423.06a3.14 3.14 0 00-.72.178 1.2 1.2 0 00-.503.348.854.854 0 00-.184.566c0 .332.121.582.363.751.242.17.55.254.925.254zm5.374 1.17l.002-7.637 1.745.001-.001 1.273h.08c.139-.441.378-.78.716-1.02a1.973 1.973 0 011.169-.362c.099 0 .21.005.333.015.126.007.23.018.313.035l-.001 1.656a1.878 1.878 0 00-.363-.07 3.326 3.326 0 00-.472-.035 1.82 1.82 0 00-.885.213c-.258.14-.462.333-.612.582a1.64 1.64 0 00-.223.86l-.002 4.49-1.799-.001zm7.192-2.395l-.005-2.172h.289l2.745-3.067h2.103l-3.377 3.759h-.373l-1.382 1.48zm-1.642 2.396l.003-10.181h1.8l-.003 10.182h-1.8zm4.793.002l-2.485-3.476 1.214-1.268 3.424 4.744h-2.153zm6.244.15c-.765 0-1.427-.159-1.983-.477a3.236 3.236 0 01-1.278-1.363c-.298-.59-.447-1.284-.446-2.083 0-.785.149-1.475.448-2.068a3.374 3.374 0 011.263-1.392c.54-.334 1.175-.502 1.904-.501.471 0 .915.076 1.332.229.421.149.792.381 1.114.696.324.315.58.716.765 1.203.185.484.278 1.061.278 1.73v.552l-6.259-.001V30.54h4.534a1.942 1.942 0 00-.223-.919 1.63 1.63 0 00-.612-.641 1.718 1.718 0 00-.905-.234c-.367 0-.691.089-.969.268a1.848 1.848 0 00-.652.696c-.152.285-.23.598-.234.94v1.058c0 .444.081.825.243 1.144.163.315.39.557.681.726.292.165.633.248 1.024.249.262 0 .499-.037.711-.11a1.57 1.57 0 00.552-.332c.156-.146.274-.327.354-.542l1.68.19a2.621 2.621 0 01-.607 1.162 2.956 2.956 0 01-1.134.766c-.46.178-.987.268-1.581.268zm8.734-7.783l-.001 1.392h-4.39l.001-1.393 4.39.002zm-3.306-1.83h1.8l-.002 7.17c0 .242.036.427.109.556a.591.591 0 00.298.259c.123.046.259.07.408.07.113 0 .215-.009.308-.025.096-.017.169-.032.219-.045l.303 1.407a4.04 4.04 0 01-.413.11c-.175.04-.391.062-.646.069a2.933 2.933 0 01-1.218-.204 1.895 1.895 0 01-.86-.706c-.209-.319-.311-.716-.308-1.194l.002-7.467zm4.809 9.467l.002-7.636h1.8l-.003 7.637h-1.799zm.907-8.72a1.05 1.05 0 01-.736-.283.915.915 0 01-.308-.691.9.9 0 01.309-.691 1.04 1.04 0 01.736-.288c.288 0 .533.096.735.288.206.189.308.42.308.691a.915.915 0 01-.308.691 1.04 1.04 0 01-.736.283zm4.544 4.247l-.001 4.475h-1.8l.002-7.637h1.72v1.298h.09a2.18 2.18 0 01.84-1.019c.388-.252.867-.378 1.437-.377.527 0 .986.113 1.377.338.394.226.699.552.914.98.219.427.327.946.323 1.556l-.001 4.862h-1.8l.001-4.584c.001-.51-.132-.91-.397-1.198-.262-.289-.625-.433-1.089-.433-.314 0-.595.07-.84.208a1.446 1.446 0 00-.572.592c-.136.258-.204.571-.204.94zm10.051 7.5c-.647 0-1.202-.088-1.666-.264-.464-.172-.837-.404-1.118-.696a2.416 2.416 0 01-.587-.97l1.621-.392c.073.15.179.297.318.443.139.149.327.272.562.368.239.1.539.149.9.15.51 0 .933-.125 1.268-.373.334-.246.502-.65.502-1.213l.001-1.447h-.09a2.563 2.563 0 01-.408.571c-.175.196-.409.36-.701.492-.288.133-.651.2-1.089.199a3.141 3.141 0 01-1.596-.413c-.473-.279-.851-.693-1.133-1.243-.278-.554-.417-1.247-.417-2.078.001-.839.14-1.547.418-2.123.282-.58.662-1.02 1.139-1.317a2.93 2.93 0 011.596-.452c.448 0 .816.076 1.104.229.292.149.524.33.696.542.172.209.303.406.392.591h.1v-1.262h1.775l-.002 7.76c0 .654-.156 1.194-.468 1.621-.312.428-.738.748-1.278.96-.54.212-1.153.317-1.839.317zm.016-4.544c.381 0 .706-.092.974-.278a1.71 1.71 0 00.612-.8c.139-.348.209-.766.209-1.253 0-.48-.069-.902-.208-1.263-.136-.361-.338-.641-.607-.84-.265-.202-.591-.304-.979-.304-.401 0-.736.104-1.004.313a1.896 1.896 0 00-.607.86 3.482 3.482 0 00-.204 1.233c0 .467.067.877.203 1.228.139.348.343.62.612.816.271.192.604.288.999.288z" fill="#5C616F"/></g><defs><clipPath id="clip0_256_1112"><path fill="#fff" transform="rotate(.016 -297026.742 103309.09)" d="M0 0h12v12H0z"/></clipPath><clipPath id="clip1_256_1112"><path fill="#fff" transform="scale(1 -1) rotate(-.44 -12126.695 -32558.13)" d="M0 0h12v12H0z"/></clipPath><filter id="filter0_d_256_1112" x="-60" y="-40" width="579.033" height="279.116" filterUnits="userSpaceOnUse" color-interpolation-filters="sRGB"><feFlood flood-opacity="0" result="BackgroundImageFix"/><feColorMatrix in="SourceAlpha" values="0 0 0 0 0 0 0 0 0 0 0 0 0 0 0 0 0 0 127 0" result="hardAlpha"/><feOffset dx="20" dy="40"/><feGaussianBlur stdDeviation="40"/><feComposite in2="hardAlpha" operator="out"/><feColorMatrix values="0 0 0 0 0.178125 0 0 0 0 0.200292 0 0 0 0 0.316667 0 0 0 0.12 0"/><feBlend mode="multiply" in2="BackgroundImageFix" result="effect1_dropShadow_256_1112"/><feBlend in="SourceGraphic" in2="effect1_dropShadow_256_1112" result="shape"/></filter></defs></svg>