<svg width="27" height="33" fill="none" xmlns="http://www.w3.org/2000/svg"><path d="M9.227 18.773a1.5 1.5 0 10-2.121 2.121l1.06-1.06 1.061-1.061zm2.273 4.394l-1.06 1.06a1.5 1.5 0 002.12 0l-1.06-1.06zm7.727-5.606a1.5 1.5 0 00-2.121-2.122l1.06 1.061 1.061 1.06zm5.606-9.394h-1.5v20h3v-20h-1.5zM21.5 31.5V30H4.833v3H21.5v-1.5zm-20-3.333H3v-20H0v20h1.5zM4.833 4.833v1.5h3.334v-3H4.833v1.5zm13.334 0v1.5H21.5v-3h-3.333v1.5zM4.833 31.5V30A1.833 1.833 0 013 28.167H0A4.833 4.833 0 004.833 33v-1.5zm20-3.333h-1.5c0 1.012-.82 1.833-1.833 1.833v3a4.833 4.833 0 004.833-4.833h-1.5zm0-20h1.5A4.833 4.833 0 0021.5 3.333v3c1.012 0 1.833.821 1.833 1.834h1.5zm-23.333 0H3c0-1.013.82-1.834 1.833-1.834v-3A4.833 4.833 0 000 8.167h1.5zm6.667 11.666l-1.061 1.061 3.333 3.333 1.061-1.06 1.06-1.061-3.333-3.333-1.06 1.06zm3.333 3.334l1.06 1.06 6.667-6.666-1.06-1.061-1.061-1.06-6.667 6.666 1.061 1.06zm0-21.667V3h3.333V0H11.5v1.5zm3.333 6.667v-1.5H11.5v3h3.333v-1.5zm-3.333 0v-1.5a1.833 1.833 0 01-1.833-1.834h-3A4.833 4.833 0 0011.5 9.667v-1.5zm6.667-3.334h-1.5a1.834 1.834 0 01-1.834 1.834v3a4.833 4.833 0 004.834-4.834h-1.5zM14.833 1.5V3c1.013 0 1.834.82 1.834 1.833h3A4.833 4.833 0 0014.833 0v1.5zm-3.333 0V0a4.833 4.833 0 00-4.833 4.833h3C9.667 3.821 10.487 3 11.5 3V1.5z" fill="#fff"/></svg>