<svg width="36" height="33" fill="none" xmlns="http://www.w3.org/2000/svg"><g filter="url(#filter0_d_17342_200)"><path d="M29.666 3.833v17.5h-17.5v-17.5h17.5zm0-2.916h-17.5A2.925 2.925 0 009.25 3.833v17.5a2.925 2.925 0 002.916 2.917h17.5a2.925 2.925 0 002.917-2.917v-17.5A2.925 2.925 0 0029.667.917zm-10.98 17.5l-5.061-5.105 2.041-2.056 3.02 3.034 7.48-7.54 2.042 2.056-9.523 9.61zM6.332 6.75H3.416v20.417a2.925 2.925 0 002.917 2.916H26.75v-2.916H6.333V6.75z" fill="#4F8FF0"/></g><defs><filter id="filter0_d_17342_200" x="-.583" y=".917" width="37.166" height="37.167" filterUnits="userSpaceOnUse" color-interpolation-filters="sRGB"><feFlood flood-opacity="0" result="BackgroundImageFix"/><feColorMatrix in="SourceAlpha" values="0 0 0 0 0 0 0 0 0 0 0 0 0 0 0 0 0 0 127 0" result="hardAlpha"/><feOffset dy="4"/><feGaussianBlur stdDeviation="2"/><feComposite in2="hardAlpha" operator="out"/><feColorMatrix values="0 0 0 0 0 0 0 0 0 0 0 0 0 0 0 0 0 0 0.25 0"/><feBlend in2="BackgroundImageFix" result="effect1_dropShadow_17342_200"/><feBlend in="SourceGraphic" in2="effect1_dropShadow_17342_200" result="shape"/></filter></defs></svg>